<?xml version="1.0" encoding="UTF-8" standalone="no"?>
<svg width="264.848mm" height="264.848mm"
 xmlns="http://www.w3.org/2000/svg" xmlns:xlink="http://www.w3.org/1999/xlink"  version="1.2" baseProfile="tiny">
<title>Tableau de bord 1</title>
<desc>Rendered by Tableau</desc>
<defs>
</defs>
<g fill="none" stroke="black" stroke-width="1" fill-rule="evenodd" stroke-linecap="square" stroke-linejoin="bevel" >

<g >
<g fill="#ffffff" fill-opacity="1" stroke="none" transform="matrix(1,0,0,1,0,0)"
font-family="Benton Sans Book" font-size="16" font-weight="400" font-style="normal" 
>
<rect x="0" y="0" width="1001" height="1001"/>
</g>
</g>

<g >
<g fill="#fff8f6" fill-opacity="1" stroke="none" transform="matrix(1,0,0,1,12,12)"
font-family="Benton Sans Book" font-size="16" font-weight="400" font-style="normal" 
>
<rect x="0" y="0" width="976" height="976"/>
</g>
</g>

<clipPath id ="clip1" >
<rect x="-1" y="-1" height="42" width="978" transform="matrix(1,0,0,1,12,948)" />
</clipPath>
<g  clip-path="url(#clip1)" 
>
<g fill="none" stroke="#000000" stroke-opacity="1" stroke-width="1" stroke-linecap="square" stroke-linejoin="bevel" transform="matrix(1,0,0,1,12,948)"
font-family="Benton Sans Book" font-size="16" font-weight="400" font-style="normal" 
>
</g>
</g>

<g  clip-path="url(#clip1)" 
>
<g fill="none" stroke="#f5f5f5" stroke-opacity="1" stroke-width="1" stroke-linecap="butt" stroke-linejoin="bevel" transform="matrix(1,0,0,1,12,948)"
font-family="Benton Sans Book" font-size="16" font-weight="400" font-style="normal" 
>
<polyline fill="none" vector-effect="none" points="0,0 0,5 " />
<polyline fill="none" vector-effect="none" points="108,0 108,5 " />
<polyline fill="none" vector-effect="none" points="216,0 216,5 " />
<polyline fill="none" vector-effect="none" points="325,0 325,5 " />
<polyline fill="none" vector-effect="none" points="433,0 433,5 " />
<polyline fill="none" vector-effect="none" points="542,0 542,5 " />
<polyline fill="none" vector-effect="none" points="650,0 650,5 " />
<polyline fill="none" vector-effect="none" points="759,0 759,5 " />
<polyline fill="none" vector-effect="none" points="867,0 867,5 " />
<polyline fill="none" vector-effect="none" points="976,0 976,5 " />
</g>
</g>

<g  clip-path="url(#clip1)" 
>
<g fill="none" stroke="#f5f5f5" stroke-opacity="1" stroke-width="1" stroke-linecap="butt" stroke-linejoin="bevel" transform="matrix(1,0,0,1,12,948)"
font-family="Benton Sans Book" font-size="16" font-weight="400" font-style="normal" 
>
</g>
</g>

<g  clip-path="url(#clip1)" 
>
<g fill="none" stroke="#666666" stroke-opacity="1" stroke-width="1" stroke-linecap="square" stroke-linejoin="bevel" transform="matrix(1,0,0,1,12,948)"
font-family="Montserrat" font-size="9" font-weight="700" font-style="normal" 
>
<text fill="#666666" fill-opacity="1" stroke="none" xml:space="preserve" x="16.7969" y="13" font-family="Montserrat" font-size="9" font-weight="700" font-style="normal" 
 >OYAGAELEWEE</text>
</g>
</g>

<g  clip-path="url(#clip1)" 
>
<g fill="none" stroke="#666666" stroke-opacity="1" stroke-width="1" stroke-linecap="square" stroke-linejoin="bevel" transform="matrix(1,0,0,1,12,948)"
font-family="Montserrat" font-size="9" font-weight="700" font-style="normal" 
>
<text fill="#666666" fill-opacity="1" stroke="none" xml:space="preserve" x="150.172" y="13" font-family="Montserrat" font-size="9" font-weight="700" font-style="normal" 
 >BTLV</text>
</g>
</g>

<g  clip-path="url(#clip1)" 
>
<g fill="none" stroke="#666666" stroke-opacity="1" stroke-width="1" stroke-linecap="square" stroke-linejoin="bevel" transform="matrix(1,0,0,1,12,948)"
font-family="Montserrat" font-size="9" font-weight="700" font-style="normal" 
>
<text fill="#666666" fill-opacity="1" stroke="none" xml:space="preserve" x="245.766" y="13" font-family="Montserrat" font-size="9" font-weight="700" font-style="normal" 
 >Numéro 23</text>
</g>
</g>

<g  clip-path="url(#clip1)" 
>
<g fill="none" stroke="#666666" stroke-opacity="1" stroke-width="1" stroke-linecap="square" stroke-linejoin="bevel" transform="matrix(1,0,0,1,12,948)"
font-family="Montserrat" font-size="9" font-weight="700" font-style="normal" 
>
<text fill="#666666" fill-opacity="1" stroke="none" xml:space="preserve" x="353.125" y="13" font-family="Montserrat" font-size="9" font-weight="700" font-style="normal" 
 >Mystere TV</text>
</g>
</g>

<g  clip-path="url(#clip1)" 
>
<g fill="none" stroke="#666666" stroke-opacity="1" stroke-width="1" stroke-linecap="square" stroke-linejoin="bevel" transform="matrix(1,0,0,1,12,948)"
font-family="Montserrat" font-size="9" font-weight="700" font-style="normal" 
>
<text fill="#666666" fill-opacity="1" stroke="none" xml:space="preserve" x="469.109" y="13" font-family="Montserrat" font-size="9" font-weight="700" font-style="normal" 
 >ODH_Tv</text>
</g>
</g>

<g  clip-path="url(#clip1)" 
>
<g fill="none" stroke="#666666" stroke-opacity="1" stroke-width="1" stroke-linecap="square" stroke-linejoin="bevel" transform="matrix(1,0,0,1,12,948)"
font-family="Montserrat" font-size="9" font-weight="700" font-style="normal" 
>
<text fill="#666666" fill-opacity="1" stroke="none" xml:space="preserve" x="561.531" y="13" font-family="Montserrat" font-size="9" font-weight="700" font-style="normal" 
 >MikeCriss Blog</text>
</g>
</g>

<g  clip-path="url(#clip1)" 
>
<g fill="none" stroke="#666666" stroke-opacity="1" stroke-width="1" stroke-linecap="square" stroke-linejoin="bevel" transform="matrix(1,0,0,1,12,948)"
font-family="Montserrat" font-size="9" font-weight="700" font-style="normal" 
>
<text fill="#666666" fill-opacity="1" stroke="none" xml:space="preserve" x="674.188" y="13" font-family="Montserrat" font-size="9" font-weight="700" font-style="normal" 
 >INTROCRATE</text>
</g>
</g>

<g  clip-path="url(#clip1)" 
>
<g fill="none" stroke="#666666" stroke-opacity="1" stroke-width="1" stroke-linecap="square" stroke-linejoin="bevel" transform="matrix(1,0,0,1,12,948)"
font-family="Montserrat" font-size="9" font-weight="700" font-style="normal" 
>
<text fill="#666666" fill-opacity="1" stroke="none" xml:space="preserve" x="761.063" y="13" font-family="Montserrat" font-size="9" font-weight="700" font-style="normal" 
 >Bob Vous Dit Toute La</text>
</g>
</g>

<g  clip-path="url(#clip1)" 
>
<g fill="none" stroke="#666666" stroke-opacity="1" stroke-width="1" stroke-linecap="square" stroke-linejoin="bevel" transform="matrix(1,0,0,1,12,948)"
font-family="Montserrat" font-size="9" font-weight="700" font-style="normal" 
>
<text fill="#666666" fill-opacity="1" stroke="none" xml:space="preserve" x="799.234" y="24" font-family="Montserrat" font-size="9" font-weight="700" font-style="normal" 
 >Vérité</text>
</g>
</g>

<g  clip-path="url(#clip1)" 
>
<g fill="none" stroke="#666666" stroke-opacity="1" stroke-width="1" stroke-linecap="square" stroke-linejoin="bevel" transform="matrix(1,0,0,1,12,948)"
font-family="Montserrat" font-size="9" font-weight="700" font-style="normal" 
>
<text fill="#666666" fill-opacity="1" stroke="none" xml:space="preserve" x="883.766" y="13" font-family="Montserrat" font-size="9" font-weight="700" font-style="normal" 
 >Mr. Sauvons Les</text>
</g>
</g>

<g  clip-path="url(#clip1)" 
>
<g fill="none" stroke="#666666" stroke-opacity="1" stroke-width="1" stroke-linecap="square" stroke-linejoin="bevel" transform="matrix(1,0,0,1,12,948)"
font-family="Montserrat" font-size="9" font-weight="700" font-style="normal" 
>
<text fill="#666666" fill-opacity="1" stroke="none" xml:space="preserve" x="900.344" y="24" font-family="Montserrat" font-size="9" font-weight="700" font-style="normal" 
 >Animaux</text>
</g>
</g>

<g >
<g fill="none" stroke="#666666" stroke-opacity="1" stroke-width="1" stroke-linecap="square" stroke-linejoin="bevel" transform="matrix(1,0,0,1,12,948)"
font-family="Montserrat" font-size="9" font-weight="700" font-style="normal" 
>
</g>
</g>

<g  clip-path="url(#clip1)" 
>
<g fill="none" stroke="#666666" stroke-opacity="1" stroke-width="1" stroke-linecap="square" stroke-linejoin="bevel" transform="matrix(1,0,0,1,12,12)"
font-family="Montserrat" font-size="9" font-weight="700" font-style="normal" 
>
</g>
</g>

<clipPath id ="clip2" >
<rect x="0" y="0" height="937" width="977" transform="matrix(1,0,0,1,12,12)" />
</clipPath>
<g  clip-path="url(#clip2)" 
>
<g fill="none" stroke="#666666" stroke-opacity="1" stroke-width="1" stroke-linecap="square" stroke-linejoin="bevel" transform="matrix(1,0,0,1,12,12)"
font-family="Montserrat" font-size="9" font-weight="700" font-style="normal" 
>
</g>
</g>

<clipPath id ="clip3" >
<rect x="0" y="0" height="937" width="977" transform="matrix(1,0,0,1,12,12)" />
</clipPath>
<g  clip-path="url(#clip3)" 
>
<g fill="none" stroke="#666666" stroke-opacity="1" stroke-width="1" stroke-linecap="square" stroke-linejoin="bevel" transform="matrix(1,0,0,1,12,12)"
font-family="Montserrat" font-size="9" font-weight="700" font-style="normal" 
>
</g>
</g>

<g  clip-path="url(#clip3)" 
>
<g fill="#fff8f6" fill-opacity="1" stroke="none" transform="matrix(1,0,0,1,12,12)"
font-family="Montserrat" font-size="9" font-weight="700" font-style="normal" 
>
<rect x="0" y="0" width="977" height="937"/>
</g>
</g>

<g  clip-path="url(#clip3)" 
>
<g fill="#fff8f6" fill-opacity="1" stroke="none" transform="matrix(1,0,0,1,12,12)"
font-family="Montserrat" font-size="9" font-weight="700" font-style="normal" 
>
<rect x="0" y="0" width="977" height="937"/>
</g>
</g>

<clipPath id ="clip4" >
<rect x="0" y="0" height="937" width="976" transform="matrix(1,0,0,1,12,12)" />
</clipPath>
<g  clip-path="url(#clip4)" 
>
<g fill="none" stroke="#666666" stroke-opacity="1" stroke-width="1" stroke-linecap="square" stroke-linejoin="bevel" transform="matrix(1,0,0,1,12,12)"
font-family="Montserrat" font-size="9" font-weight="700" font-style="normal" 
>
</g>
</g>

<g  clip-path="url(#clip4)" 
>
<g fill="#fff8f6" fill-opacity="1" stroke="none" transform="matrix(1,0,0,1,12,12)"
font-family="Montserrat" font-size="9" font-weight="700" font-style="normal" 
>
<rect x="0" y="0" width="977" height="937"/>
</g>
</g>

<clipPath id ="clip5" >
<rect x="0" y="0" height="937" width="977" transform="matrix(1,0,0,1,12,12)" />
</clipPath>
<g  clip-path="url(#clip5)" 
>
<g fill="none" stroke="#666666" stroke-opacity="1" stroke-width="1" stroke-linecap="square" stroke-linejoin="bevel" transform="matrix(1,0,0,1,12,12)"
font-family="Montserrat" font-size="9" font-weight="700" font-style="normal" 
>
</g>
</g>

<clipPath id ="clip6" >
<rect x="0" y="0" height="937" width="977" transform="matrix(1,0,0,1,12,12)" />
</clipPath>
<g  clip-path="url(#clip6)" 
>
<g fill="none" stroke="#666666" stroke-opacity="1" stroke-width="1" stroke-linecap="square" stroke-linejoin="bevel" transform="matrix(1,0,0,1,12,12)"
font-family="Montserrat" font-size="9" font-weight="700" font-style="normal" 
>
</g>
</g>

<clipPath id ="clip7" >
<rect x="0" y="0" height="937" width="977" transform="matrix(1,0,0,1,12,12)" />
</clipPath>
<g  clip-path="url(#clip7)" 
>
<g fill="none" stroke="#666666" stroke-opacity="1" stroke-width="1" stroke-linecap="square" stroke-linejoin="bevel" transform="matrix(1,0,0,1,12,12)"
font-family="Montserrat" font-size="9" font-weight="700" font-style="normal" 
>
</g>
</g>

<clipPath id ="clip8" >
<rect x="0" y="0" height="937" width="977" transform="matrix(1,0,0,1,12,12)" />
</clipPath>
<g  clip-path="url(#clip8)" 
>
<g fill="none" stroke="#666666" stroke-opacity="1" stroke-width="1" stroke-linecap="square" stroke-linejoin="bevel" transform="matrix(1,0,0,1,12,12)"
font-family="Montserrat" font-size="9" font-weight="700" font-style="normal" 
>
</g>
</g>

<g  clip-path="url(#clip8)" 
>
<g fill="#fff8f6" fill-opacity="1" stroke="none" transform="matrix(1,0,0,1,12,12)"
font-family="Montserrat" font-size="9" font-weight="700" font-style="normal" 
>
<rect x="0" y="0" width="977" height="937"/>
</g>
</g>

<clipPath id ="clip9" >
<rect x="0" y="0" height="937" width="977" transform="matrix(1,0,0,1,12,12)" />
</clipPath>
<g  clip-path="url(#clip9)" 
>
<g fill="none" stroke="#666666" stroke-opacity="1" stroke-width="1" stroke-linecap="square" stroke-linejoin="bevel" transform="matrix(1,0,0,1,12,12)"
font-family="Montserrat" font-size="9" font-weight="700" font-style="normal" 
>
</g>
</g>

<clipPath id ="clip10" >
<rect x="0" y="0" height="936" width="976" transform="matrix(1,0,0,1,12,12)" />
</clipPath>
<g  clip-path="url(#clip10)" 
>
<g fill="none" stroke="#666666" stroke-opacity="1" stroke-width="1" stroke-linecap="square" stroke-linejoin="bevel" transform="matrix(1,0,0,1,12,12)"
font-family="Montserrat" font-size="9" font-weight="700" font-style="normal" 
>
</g>
</g>

<clipPath id ="clip11" >
<rect x="0" y="0" height="937" width="977" transform="matrix(1,0,0,1,12,12)" />
</clipPath>
<g  clip-path="url(#clip11)" 
>
<g fill="none" stroke="#666666" stroke-opacity="1" stroke-width="1" stroke-linecap="square" stroke-linejoin="bevel" transform="matrix(1,0,0,1,12,12)"
font-family="Montserrat" font-size="9" font-weight="700" font-style="normal" 
>
</g>
</g>

<clipPath id ="clip12" >
<rect x="0" y="0" height="936" width="976" transform="matrix(1,0,0,1,12,12)" />
</clipPath>
<g  clip-path="url(#clip12)" 
>
<g fill="none" stroke="#666666" stroke-opacity="1" stroke-width="1" stroke-linecap="square" stroke-linejoin="bevel" transform="matrix(1,0,0,1,12,12)"
font-family="Montserrat" font-size="9" font-weight="700" font-style="normal" 
>
</g>
</g>

<g  clip-path="url(#clip12)" 
>
<g fill="none" stroke="#cbcbcb" stroke-opacity="1" stroke-dasharray="1,2" stroke-dashoffset="0" stroke-width="1" stroke-linecap="square" stroke-linejoin="bevel" transform="matrix(1,0,0,1,12,12)"
font-family="Montserrat" font-size="9" font-weight="700" font-style="normal" 
>
<polyline fill="none" vector-effect="none" points="0,936 976,936 " />
</g>
</g>

<clipPath id ="clip13" >
<rect x="0" y="0" height="937" width="977" transform="matrix(1,0,0,1,12,12)" />
</clipPath>
<g  clip-path="url(#clip13)" 
>
<g fill="none" stroke="#cbcbcb" stroke-opacity="1" stroke-dasharray="1,2" stroke-dashoffset="0" stroke-width="1" stroke-linecap="square" stroke-linejoin="bevel" transform="matrix(1,0,0,1,12,12)"
font-family="Montserrat" font-size="9" font-weight="700" font-style="normal" 
>
</g>
</g>

<clipPath id ="clip14" >
<rect x="0" y="0" height="936" width="976" transform="matrix(1,0,0,1,12,12)" />
</clipPath>
<g  clip-path="url(#clip14)" 
>
<g fill="none" stroke="#cbcbcb" stroke-opacity="1" stroke-dasharray="1,2" stroke-dashoffset="0" stroke-width="1" stroke-linecap="square" stroke-linejoin="bevel" transform="matrix(1,0,0,1,12,12)"
font-family="Montserrat" font-size="9" font-weight="700" font-style="normal" 
>
</g>
</g>

<clipPath id ="clip15" >
<rect x="0" y="0" height="937" width="977" transform="matrix(1,0,0,1,12,12)" />
</clipPath>
<g  clip-path="url(#clip15)" 
>
<g fill="none" stroke="#cbcbcb" stroke-opacity="1" stroke-dasharray="1,2" stroke-dashoffset="0" stroke-width="1" stroke-linecap="square" stroke-linejoin="bevel" transform="matrix(1,0,0,1,12,12)"
font-family="Montserrat" font-size="9" font-weight="700" font-style="normal" 
>
</g>
</g>

<clipPath id ="clip16" >
<rect x="0" y="0" height="936" width="976" transform="matrix(1,0,0,1,12,12)" />
</clipPath>
<g  clip-path="url(#clip16)" 
>
<g fill="none" stroke="#cbcbcb" stroke-opacity="1" stroke-dasharray="1,2" stroke-dashoffset="0" stroke-width="1" stroke-linecap="square" stroke-linejoin="bevel" transform="matrix(1,0,0,1,12,12)"
font-family="Montserrat" font-size="9" font-weight="700" font-style="normal" 
>
</g>
</g>

<clipPath id ="clip17" >
<rect x="0" y="0" height="937" width="977" transform="matrix(1,0,0,1,12,12)" />
</clipPath>
<g  clip-path="url(#clip17)" 
>
<g fill="none" stroke="#cbcbcb" stroke-opacity="1" stroke-dasharray="1,2" stroke-dashoffset="0" stroke-width="1" stroke-linecap="square" stroke-linejoin="bevel" transform="matrix(1,0,0,1,12,12)"
font-family="Montserrat" font-size="9" font-weight="700" font-style="normal" 
>
</g>
</g>

<clipPath id ="clip18" >
<rect x="0" y="0" height="937" width="977" transform="matrix(1,0,0,1,12,12)" />
</clipPath>
<g  clip-path="url(#clip18)" 
>
<g fill="none" stroke="#cbcbcb" stroke-opacity="1" stroke-dasharray="1,2" stroke-dashoffset="0" stroke-width="1" stroke-linecap="square" stroke-linejoin="bevel" transform="matrix(1,0,0,1,12,12)"
font-family="Montserrat" font-size="9" font-weight="700" font-style="normal" 
>
</g>
</g>

<clipPath id ="clip19" >
<rect x="0" y="0" height="936" width="976" transform="matrix(1,0,0,1,12,12)" />
</clipPath>
<g  clip-path="url(#clip19)" 
>
<g fill="none" stroke="#cbcbcb" stroke-opacity="1" stroke-dasharray="1,2" stroke-dashoffset="0" stroke-width="1" stroke-linecap="square" stroke-linejoin="bevel" transform="matrix(1,0,0,1,12,12)"
font-family="Montserrat" font-size="9" font-weight="700" font-style="normal" 
>
</g>
</g>

<clipPath id ="clip20" >
<rect x="0" y="0" height="937" width="977" transform="matrix(1,0,0,1,12,12)" />
</clipPath>
<g  clip-path="url(#clip20)" 
>
<g fill="none" stroke="#cbcbcb" stroke-opacity="1" stroke-dasharray="1,2" stroke-dashoffset="0" stroke-width="1" stroke-linecap="square" stroke-linejoin="bevel" transform="matrix(1,0,0,1,12,12)"
font-family="Montserrat" font-size="9" font-weight="700" font-style="normal" 
>
</g>
</g>

<clipPath id ="clip21" >
<rect x="0" y="0" height="936" width="976" transform="matrix(1,0,0,1,12,12)" />
</clipPath>
<g  clip-path="url(#clip21)" 
>
<g fill="none" stroke="#cbcbcb" stroke-opacity="1" stroke-dasharray="1,2" stroke-dashoffset="0" stroke-width="1" stroke-linecap="square" stroke-linejoin="bevel" transform="matrix(1,0,0,1,12,12)"
font-family="Montserrat" font-size="9" font-weight="700" font-style="normal" 
>
</g>
</g>

<clipPath id ="clip22" >
<rect x="0" y="0" height="937" width="977" transform="matrix(1,0,0,1,12,12)" />
</clipPath>
<g  clip-path="url(#clip22)" 
>
<g fill="none" stroke="#cbcbcb" stroke-opacity="1" stroke-dasharray="1,2" stroke-dashoffset="0" stroke-width="1" stroke-linecap="square" stroke-linejoin="bevel" transform="matrix(1,0,0,1,12,12)"
font-family="Montserrat" font-size="9" font-weight="700" font-style="normal" 
>
</g>
</g>

<clipPath id ="clip23" >
<rect x="0" y="0" height="936" width="976" transform="matrix(1,0,0,1,12,12)" />
</clipPath>
<g  clip-path="url(#clip23)" 
>
<g fill="none" stroke="#cbcbcb" stroke-opacity="1" stroke-dasharray="1,2" stroke-dashoffset="0" stroke-width="1" stroke-linecap="square" stroke-linejoin="bevel" transform="matrix(1,0,0,1,12,12)"
font-family="Montserrat" font-size="9" font-weight="700" font-style="normal" 
>
</g>
</g>

<g  clip-path="url(#clip23)" 
>
<g fill="#3366cc" fill-opacity="1" stroke="none" transform="matrix(1,0,0,1,12,12)"
font-family="Montserrat" font-size="9" font-weight="700" font-style="normal" 
>
<rect x="231" y="903" width="81" height="33"/>
</g>
</g>

<g  clip-path="url(#clip23)" 
>
<g fill="#ff33cc" fill-opacity="1" stroke="none" transform="matrix(1,0,0,1,12,12)"
font-family="Montserrat" font-size="9" font-weight="700" font-style="normal" 
>
<rect x="664" y="816" width="81" height="120"/>
</g>
</g>

<g  clip-path="url(#clip23)" 
>
<g fill="#ff33cc" fill-opacity="1" stroke="none" transform="matrix(1,0,0,1,12,12)"
font-family="Montserrat" font-size="9" font-weight="700" font-style="normal" 
>
<rect x="339" y="750" width="81" height="186"/>
</g>
</g>

<g  clip-path="url(#clip23)" 
>
<g fill="#ff33cc" fill-opacity="1" stroke="none" transform="matrix(1,0,0,1,12,12)"
font-family="Montserrat" font-size="9" font-weight="700" font-style="normal" 
>
<rect x="231" y="731" width="81" height="172"/>
</g>
</g>

<g  clip-path="url(#clip23)" 
>
<g fill="#003366" fill-opacity="1" stroke="none" transform="matrix(1,0,0,1,12,12)"
font-family="Montserrat" font-size="9" font-weight="700" font-style="normal" 
>
<rect x="556" y="790" width="81" height="146"/>
</g>
</g>

<g  clip-path="url(#clip23)" 
>
<g fill="#003366" fill-opacity="1" stroke="none" transform="matrix(1,0,0,1,12,12)"
font-family="Montserrat" font-size="9" font-weight="700" font-style="normal" 
>
<rect x="448" y="775" width="81" height="161"/>
</g>
</g>

<g  clip-path="url(#clip23)" 
>
<g fill="#003366" fill-opacity="1" stroke="none" transform="matrix(1,0,0,1,12,12)"
font-family="Montserrat" font-size="9" font-weight="700" font-style="normal" 
>
<rect x="14" y="46" width="81" height="890"/>
</g>
</g>

<g  clip-path="url(#clip23)" 
>
<g fill="#9900ff" fill-opacity="1" stroke="none" transform="matrix(1,0,0,1,12,12)"
font-family="Montserrat" font-size="9" font-weight="700" font-style="normal" 
>
<rect x="881" y="826" width="81" height="110"/>
</g>
</g>

<g  clip-path="url(#clip23)" 
>
<g fill="#9900ff" fill-opacity="1" stroke="none" transform="matrix(1,0,0,1,12,12)"
font-family="Montserrat" font-size="9" font-weight="700" font-style="normal" 
>
<rect x="773" y="820" width="81" height="116"/>
</g>
</g>

<g  clip-path="url(#clip23)" 
>
<g fill="#9900ff" fill-opacity="1" stroke="none" transform="matrix(1,0,0,1,12,12)"
font-family="Montserrat" font-size="9" font-weight="700" font-style="normal" 
>
<rect x="122" y="624" width="81" height="312"/>
</g>
</g>

<clipPath id ="clip24" >
<rect x="0" y="0" height="937" width="977" transform="matrix(1,0,0,1,12,12)" />
</clipPath>
<g  clip-path="url(#clip24)" 
>
<g fill="#9900ff" fill-opacity="1" stroke="none" transform="matrix(1,0,0,1,12,12)"
font-family="Montserrat" font-size="9" font-weight="700" font-style="normal" 
>
</g>
</g>

<clipPath id ="clip25" >
<rect x="0" y="0" height="936" width="976" transform="matrix(1,0,0,1,12,12)" />
</clipPath>
<g  clip-path="url(#clip25)" 
>
<g fill="#9900ff" fill-opacity="1" stroke="none" transform="matrix(1,0,0,1,12,12)"
font-family="Montserrat" font-size="9" font-weight="700" font-style="normal" 
>
</g>
</g>

<g  clip-path="url(#clip25)" 
>
<g fill="none" stroke="#000000" stroke-opacity="1" stroke-width="1" stroke-linecap="square" stroke-linejoin="bevel" transform="matrix(1,0,0,1,12,12)"
font-family="Montserrat" font-size="12" font-weight="700" font-style="normal" 
>
<text fill="#000000" fill-opacity="1" stroke="none" xml:space="preserve" x="369" y="744" font-family="Montserrat" font-size="12" font-weight="700" font-style="normal" 
 >130</text>
</g>
</g>

<g  clip-path="url(#clip25)" 
>
<g fill="none" stroke="#ffffff" stroke-opacity="1" stroke-width="1" stroke-linecap="square" stroke-linejoin="bevel" transform="matrix(1,0,0,1,12,12)"
font-family="Montserrat" font-size="12" font-weight="700" font-style="normal" 
>
<text fill="#ffffff" fill-opacity="1" stroke="none" xml:space="preserve" x="261" y="820" font-family="Montserrat" font-size="12" font-weight="700" font-style="normal" 
 >120</text>
</g>
</g>

<g  clip-path="url(#clip25)" 
>
<g fill="none" stroke="#000000" stroke-opacity="1" stroke-width="1" stroke-linecap="square" stroke-linejoin="bevel" transform="matrix(1,0,0,1,12,12)"
font-family="Montserrat" font-size="12" font-weight="700" font-style="normal" 
>
<text fill="#000000" fill-opacity="1" stroke="none" xml:space="preserve" x="586" y="784" font-family="Montserrat" font-size="12" font-weight="700" font-style="normal" 
 >102</text>
</g>
</g>

<g  clip-path="url(#clip25)" 
>
<g fill="none" stroke="#000000" stroke-opacity="1" stroke-width="1" stroke-linecap="square" stroke-linejoin="bevel" transform="matrix(1,0,0,1,12,12)"
font-family="Montserrat" font-size="12" font-weight="700" font-style="normal" 
>
<text fill="#000000" fill-opacity="1" stroke="none" xml:space="preserve" x="152" y="618" font-family="Montserrat" font-size="12" font-weight="700" font-style="normal" 
 >218</text>
</g>
</g>

<g  clip-path="url(#clip25)" 
>
<g fill="none" stroke="#000000" stroke-opacity="1" stroke-width="1" stroke-linecap="square" stroke-linejoin="bevel" transform="matrix(1,0,0,1,12,12)"
font-family="Montserrat" font-size="12" font-weight="700" font-style="normal" 
>
<text fill="#000000" fill-opacity="1" stroke="none" xml:space="preserve" x="44" y="40" font-family="Montserrat" font-size="12" font-weight="700" font-style="normal" 
 >621</text>
</g>
</g>

<g  clip-path="url(#clip25)" 
>
<g fill="none" stroke="#000000" stroke-opacity="1" stroke-width="1" stroke-linecap="square" stroke-linejoin="bevel" transform="matrix(1,0,0,1,12,12)"
font-family="Montserrat" font-size="12" font-weight="700" font-style="normal" 
>
<text fill="#000000" fill-opacity="1" stroke="none" xml:space="preserve" x="480" y="769" font-family="Montserrat" font-size="12" font-weight="700" font-style="normal" 
 >112</text>
</g>
</g>

<g  clip-path="url(#clip25)" 
>
<g fill="none" stroke="#000000" stroke-opacity="1" stroke-width="1" stroke-linecap="square" stroke-linejoin="bevel" transform="matrix(1,0,0,1,12,12)"
font-family="Montserrat" font-size="12" font-weight="700" font-style="normal" 
>
<text fill="#000000" fill-opacity="1" stroke="none" xml:space="preserve" x="696" y="810" font-family="Montserrat" font-size="12" font-weight="700" font-style="normal" 
 >84</text>
</g>
</g>

<g  clip-path="url(#clip25)" 
>
<g fill="none" stroke="#000000" stroke-opacity="1" stroke-width="1" stroke-linecap="square" stroke-linejoin="bevel" transform="matrix(1,0,0,1,12,12)"
font-family="Montserrat" font-size="12" font-weight="700" font-style="normal" 
>
<text fill="#000000" fill-opacity="1" stroke="none" xml:space="preserve" x="914" y="820" font-family="Montserrat" font-size="12" font-weight="700" font-style="normal" 
 >77</text>
</g>
</g>

<g  clip-path="url(#clip25)" 
>
<g fill="none" stroke="#ffffff" stroke-opacity="1" stroke-width="1" stroke-linecap="square" stroke-linejoin="bevel" transform="matrix(1,0,0,1,12,12)"
font-family="Montserrat" font-size="12" font-weight="700" font-style="normal" 
>
<text fill="#ffffff" fill-opacity="1" stroke="none" xml:space="preserve" x="264" y="923" font-family="Montserrat" font-size="12" font-weight="700" font-style="normal" 
 >23</text>
</g>
</g>

<g  clip-path="url(#clip25)" 
>
<g fill="none" stroke="#000000" stroke-opacity="1" stroke-width="1" stroke-linecap="square" stroke-linejoin="bevel" transform="matrix(1,0,0,1,12,12)"
font-family="Montserrat" font-size="12" font-weight="700" font-style="normal" 
>
<text fill="#000000" fill-opacity="1" stroke="none" xml:space="preserve" x="807" y="814" font-family="Montserrat" font-size="12" font-weight="700" font-style="normal" 
 >81</text>
</g>
</g>

<clipPath id ="clip26" >
<rect x="0" y="0" height="937" width="977" transform="matrix(1,0,0,1,12,12)" />
</clipPath>
<g  clip-path="url(#clip26)" 
>
<g fill="none" stroke="#000000" stroke-opacity="1" stroke-width="1" stroke-linecap="square" stroke-linejoin="bevel" transform="matrix(1,0,0,1,12,12)"
font-family="Montserrat" font-size="12" font-weight="700" font-style="normal" 
>
</g>
</g>

<clipPath id ="clip27" >
<rect x="0" y="0" height="937" width="977" transform="matrix(1,0,0,1,12,12)" />
</clipPath>
<g  clip-path="url(#clip27)" 
>
<g fill="none" stroke="#000000" stroke-opacity="1" stroke-width="1" stroke-linecap="square" stroke-linejoin="bevel" transform="matrix(1,0,0,1,12,12)"
font-family="Montserrat" font-size="12" font-weight="700" font-style="normal" 
>
</g>
</g>

<clipPath id ="clip28" >
<rect x="0" y="0" height="936" width="976" transform="matrix(1,0,0,1,12,12)" />
</clipPath>
<g  clip-path="url(#clip28)" 
>
<g fill="none" stroke="#000000" stroke-opacity="1" stroke-width="1" stroke-linecap="square" stroke-linejoin="bevel" transform="matrix(1,0,0,1,12,12)"
font-family="Montserrat" font-size="12" font-weight="700" font-style="normal" 
>
</g>
</g>

<clipPath id ="clip29" >
<rect x="0" y="0" height="937" width="977" transform="matrix(1,0,0,1,12,12)" />
</clipPath>
<g  clip-path="url(#clip29)" 
>
<g fill="none" stroke="#000000" stroke-opacity="1" stroke-width="1" stroke-linecap="square" stroke-linejoin="bevel" transform="matrix(1,0,0,1,12,12)"
font-family="Montserrat" font-size="12" font-weight="700" font-style="normal" 
>
</g>
</g>

<clipPath id ="clip30" >
<rect x="0" y="0" height="936" width="976" transform="matrix(1,0,0,1,12,12)" />
</clipPath>
<g  clip-path="url(#clip30)" 
>
<g fill="none" stroke="#000000" stroke-opacity="1" stroke-width="1" stroke-linecap="square" stroke-linejoin="bevel" transform="matrix(1,0,0,1,12,12)"
font-family="Montserrat" font-size="12" font-weight="700" font-style="normal" 
>
</g>
</g>

<clipPath id ="clip31" >
<rect x="0" y="0" height="937" width="977" transform="matrix(1,0,0,1,12,12)" />
</clipPath>
<g  clip-path="url(#clip31)" 
>
<g fill="none" stroke="#000000" stroke-opacity="1" stroke-width="1" stroke-linecap="square" stroke-linejoin="bevel" transform="matrix(1,0,0,1,12,12)"
font-family="Montserrat" font-size="12" font-weight="700" font-style="normal" 
>
</g>
</g>

<clipPath id ="clip32" >
<rect x="0" y="0" height="936" width="976" transform="matrix(1,0,0,1,12,12)" />
</clipPath>
<g  clip-path="url(#clip32)" 
>
<g fill="none" stroke="#000000" stroke-opacity="1" stroke-width="1" stroke-linecap="square" stroke-linejoin="bevel" transform="matrix(1,0,0,1,12,12)"
font-family="Montserrat" font-size="12" font-weight="700" font-style="normal" 
>
</g>
</g>

<clipPath id ="clip33" >
<rect x="0" y="0" height="937" width="977" transform="matrix(1,0,0,1,12,12)" />
</clipPath>
<g  clip-path="url(#clip33)" 
>
<g fill="none" stroke="#000000" stroke-opacity="1" stroke-width="1" stroke-linecap="square" stroke-linejoin="bevel" transform="matrix(1,0,0,1,12,12)"
font-family="Montserrat" font-size="12" font-weight="700" font-style="normal" 
>
</g>
</g>

<clipPath id ="clip34" >
<rect x="0" y="0" height="936" width="976" transform="matrix(1,0,0,1,12,12)" />
</clipPath>
<g  clip-path="url(#clip34)" 
>
<g fill="none" stroke="#000000" stroke-opacity="1" stroke-width="1" stroke-linecap="square" stroke-linejoin="bevel" transform="matrix(1,0,0,1,12,12)"
font-family="Montserrat" font-size="12" font-weight="700" font-style="normal" 
>
</g>
</g>

<clipPath id ="clip35" >
<rect x="0" y="0" height="937" width="977" transform="matrix(1,0,0,1,12,12)" />
</clipPath>
<g  clip-path="url(#clip35)" 
>
<g fill="none" stroke="#000000" stroke-opacity="1" stroke-width="1" stroke-linecap="square" stroke-linejoin="bevel" transform="matrix(1,0,0,1,12,12)"
font-family="Montserrat" font-size="12" font-weight="700" font-style="normal" 
>
</g>
</g>

<clipPath id ="clip36" >
<rect x="0" y="0" height="937" width="977" transform="matrix(1,0,0,1,12,12)" />
</clipPath>
<g  clip-path="url(#clip36)" 
>
<g fill="none" stroke="#000000" stroke-opacity="1" stroke-width="1" stroke-linecap="square" stroke-linejoin="bevel" transform="matrix(1,0,0,1,12,12)"
font-family="Montserrat" font-size="12" font-weight="700" font-style="normal" 
>
</g>
</g>

<clipPath id ="clip37" >
<rect x="0" y="0" height="936" width="976" transform="matrix(1,0,0,1,12,12)" />
</clipPath>
<g  clip-path="url(#clip37)" 
>
<g fill="none" stroke="#000000" stroke-opacity="1" stroke-width="1" stroke-linecap="square" stroke-linejoin="bevel" transform="matrix(1,0,0,1,12,12)"
font-family="Montserrat" font-size="12" font-weight="700" font-style="normal" 
>
</g>
</g>

<clipPath id ="clip38" >
<rect x="0" y="0" height="937" width="977" transform="matrix(1,0,0,1,12,12)" />
</clipPath>
<g  clip-path="url(#clip38)" 
>
<g fill="none" stroke="#000000" stroke-opacity="1" stroke-width="1" stroke-linecap="square" stroke-linejoin="bevel" transform="matrix(1,0,0,1,12,12)"
font-family="Montserrat" font-size="12" font-weight="700" font-style="normal" 
>
</g>
</g>

<clipPath id ="clip39" >
<rect x="0" y="0" height="936" width="976" transform="matrix(1,0,0,1,12,12)" />
</clipPath>
<g  clip-path="url(#clip39)" 
>
<g fill="none" stroke="#000000" stroke-opacity="1" stroke-width="1" stroke-linecap="square" stroke-linejoin="bevel" transform="matrix(1,0,0,1,12,12)"
font-family="Montserrat" font-size="12" font-weight="700" font-style="normal" 
>
</g>
</g>

<clipPath id ="clip40" >
<rect x="0" y="0" height="937" width="977" transform="matrix(1,0,0,1,12,12)" />
</clipPath>
<g  clip-path="url(#clip40)" 
>
<g fill="none" stroke="#000000" stroke-opacity="1" stroke-width="1" stroke-linecap="square" stroke-linejoin="bevel" transform="matrix(1,0,0,1,12,12)"
font-family="Montserrat" font-size="12" font-weight="700" font-style="normal" 
>
</g>
</g>

<clipPath id ="clip41" >
<rect x="0" y="0" height="936" width="976" transform="matrix(1,0,0,1,12,12)" />
</clipPath>
<g  clip-path="url(#clip41)" 
>
<g fill="none" stroke="#000000" stroke-opacity="1" stroke-width="1" stroke-linecap="square" stroke-linejoin="bevel" transform="matrix(1,0,0,1,12,12)"
font-family="Montserrat" font-size="12" font-weight="700" font-style="normal" 
>
</g>
</g>

<clipPath id ="clip42" >
<rect x="0" y="0" height="937" width="977" transform="matrix(1,0,0,1,12,12)" />
</clipPath>
<g  clip-path="url(#clip42)" 
>
<g fill="none" stroke="#000000" stroke-opacity="1" stroke-width="1" stroke-linecap="square" stroke-linejoin="bevel" transform="matrix(1,0,0,1,12,12)"
font-family="Montserrat" font-size="12" font-weight="700" font-style="normal" 
>
</g>
</g>

<clipPath id ="clip43" >
<rect x="0" y="0" height="936" width="976" transform="matrix(1,0,0,1,12,12)" />
</clipPath>
<g  clip-path="url(#clip43)" 
>
<g fill="none" stroke="#000000" stroke-opacity="1" stroke-width="1" stroke-linecap="square" stroke-linejoin="bevel" transform="matrix(1,0,0,1,12,12)"
font-family="Montserrat" font-size="12" font-weight="700" font-style="normal" 
>
</g>
</g>

<clipPath id ="clip44" >
<rect x="0" y="0" height="937" width="977" transform="matrix(1,0,0,1,12,12)" />
</clipPath>
<g  clip-path="url(#clip44)" 
>
<g fill="none" stroke="#000000" stroke-opacity="1" stroke-width="1" stroke-linecap="square" stroke-linejoin="bevel" transform="matrix(1,0,0,1,12,12)"
font-family="Montserrat" font-size="12" font-weight="700" font-style="normal" 
>
</g>
</g>

<clipPath id ="clip45" >
<rect x="0" y="0" height="937" width="977" transform="matrix(1,0,0,1,12,12)" />
</clipPath>
<g  clip-path="url(#clip45)" 
>
<g fill="none" stroke="#000000" stroke-opacity="1" stroke-width="1" stroke-linecap="square" stroke-linejoin="bevel" transform="matrix(1,0,0,1,12,12)"
font-family="Montserrat" font-size="12" font-weight="700" font-style="normal" 
>
</g>
</g>

<clipPath id ="clip46" >
<rect x="0" y="0" height="936" width="976" transform="matrix(1,0,0,1,12,12)" />
</clipPath>
<g  clip-path="url(#clip46)" 
>
<g fill="none" stroke="#000000" stroke-opacity="1" stroke-width="1" stroke-linecap="square" stroke-linejoin="bevel" transform="matrix(1,0,0,1,12,12)"
font-family="Montserrat" font-size="12" font-weight="700" font-style="normal" 
>
</g>
</g>

<clipPath id ="clip47" >
<rect x="0" y="0" height="937" width="977" transform="matrix(1,0,0,1,12,12)" />
</clipPath>
<g  clip-path="url(#clip47)" 
>
<g fill="none" stroke="#000000" stroke-opacity="1" stroke-width="1" stroke-linecap="square" stroke-linejoin="bevel" transform="matrix(1,0,0,1,12,12)"
font-family="Montserrat" font-size="12" font-weight="700" font-style="normal" 
>
</g>
</g>

<clipPath id ="clip48" >
<rect x="0" y="0" height="936" width="976" transform="matrix(1,0,0,1,12,12)" />
</clipPath>
<g  clip-path="url(#clip48)" 
>
<g fill="none" stroke="#000000" stroke-opacity="1" stroke-width="1" stroke-linecap="square" stroke-linejoin="bevel" transform="matrix(1,0,0,1,12,12)"
font-family="Montserrat" font-size="12" font-weight="700" font-style="normal" 
>
</g>
</g>

<clipPath id ="clip49" >
<rect x="0" y="0" height="937" width="977" transform="matrix(1,0,0,1,12,12)" />
</clipPath>
<g  clip-path="url(#clip49)" 
>
<g fill="none" stroke="#000000" stroke-opacity="1" stroke-width="1" stroke-linecap="square" stroke-linejoin="bevel" transform="matrix(1,0,0,1,12,12)"
font-family="Montserrat" font-size="12" font-weight="700" font-style="normal" 
>
</g>
</g>

<clipPath id ="clip50" >
<rect x="0" y="0" height="936" width="976" transform="matrix(1,0,0,1,12,12)" />
</clipPath>
<g  clip-path="url(#clip50)" 
>
<g fill="none" stroke="#000000" stroke-opacity="1" stroke-width="1" stroke-linecap="square" stroke-linejoin="bevel" transform="matrix(1,0,0,1,12,12)"
font-family="Montserrat" font-size="12" font-weight="700" font-style="normal" 
>
</g>
</g>

<clipPath id ="clip51" >
<rect x="0" y="0" height="937" width="977" transform="matrix(1,0,0,1,12,12)" />
</clipPath>
<g  clip-path="url(#clip51)" 
>
<g fill="none" stroke="#000000" stroke-opacity="1" stroke-width="1" stroke-linecap="square" stroke-linejoin="bevel" transform="matrix(1,0,0,1,12,12)"
font-family="Montserrat" font-size="12" font-weight="700" font-style="normal" 
>
</g>
</g>

<clipPath id ="clip52" >
<rect x="0" y="0" height="936" width="976" transform="matrix(1,0,0,1,12,12)" />
</clipPath>
<g  clip-path="url(#clip52)" 
>
<g fill="none" stroke="#000000" stroke-opacity="1" stroke-width="1" stroke-linecap="square" stroke-linejoin="bevel" transform="matrix(1,0,0,1,12,12)"
font-family="Montserrat" font-size="12" font-weight="700" font-style="normal" 
>
</g>
</g>

<clipPath id ="clip53" >
<rect x="0" y="0" height="937" width="977" transform="matrix(1,0,0,1,12,12)" />
</clipPath>
<g  clip-path="url(#clip53)" 
>
<g fill="none" stroke="#000000" stroke-opacity="1" stroke-width="1" stroke-linecap="square" stroke-linejoin="bevel" transform="matrix(1,0,0,1,12,12)"
font-family="Montserrat" font-size="12" font-weight="700" font-style="normal" 
>
</g>
</g>

<clipPath id ="clip54" >
<rect x="0" y="0" height="937" width="977" transform="matrix(1,0,0,1,12,12)" />
</clipPath>
<g  clip-path="url(#clip54)" 
>
<g fill="none" stroke="#000000" stroke-opacity="1" stroke-width="1" stroke-linecap="square" stroke-linejoin="bevel" transform="matrix(1,0,0,1,12,12)"
font-family="Montserrat" font-size="12" font-weight="700" font-style="normal" 
>
</g>
</g>

<clipPath id ="clip55" >
<rect x="0" y="0" height="936" width="976" transform="matrix(1,0,0,1,12,12)" />
</clipPath>
<g  clip-path="url(#clip55)" 
>
<g fill="none" stroke="#000000" stroke-opacity="1" stroke-width="1" stroke-linecap="square" stroke-linejoin="bevel" transform="matrix(1,0,0,1,12,12)"
font-family="Montserrat" font-size="12" font-weight="700" font-style="normal" 
>
</g>
</g>

<clipPath id ="clip56" >
<rect x="0" y="0" height="937" width="977" transform="matrix(1,0,0,1,12,12)" />
</clipPath>
<g  clip-path="url(#clip56)" 
>
<g fill="none" stroke="#000000" stroke-opacity="1" stroke-width="1" stroke-linecap="square" stroke-linejoin="bevel" transform="matrix(1,0,0,1,12,12)"
font-family="Montserrat" font-size="12" font-weight="700" font-style="normal" 
>
</g>
</g>

<clipPath id ="clip57" >
<rect x="0" y="0" height="936" width="976" transform="matrix(1,0,0,1,12,12)" />
</clipPath>
<g  clip-path="url(#clip57)" 
>
<g fill="none" stroke="#000000" stroke-opacity="1" stroke-width="1" stroke-linecap="square" stroke-linejoin="bevel" transform="matrix(1,0,0,1,12,12)"
font-family="Montserrat" font-size="12" font-weight="700" font-style="normal" 
>
</g>
</g>

<clipPath id ="clip58" >
<rect x="0" y="0" height="937" width="977" transform="matrix(1,0,0,1,12,12)" />
</clipPath>
<g  clip-path="url(#clip58)" 
>
<g fill="none" stroke="#000000" stroke-opacity="1" stroke-width="1" stroke-linecap="square" stroke-linejoin="bevel" transform="matrix(1,0,0,1,12,12)"
font-family="Montserrat" font-size="12" font-weight="700" font-style="normal" 
>
</g>
</g>

<clipPath id ="clip59" >
<rect x="0" y="0" height="936" width="976" transform="matrix(1,0,0,1,12,12)" />
</clipPath>
<g  clip-path="url(#clip59)" 
>
<g fill="none" stroke="#000000" stroke-opacity="1" stroke-width="1" stroke-linecap="square" stroke-linejoin="bevel" transform="matrix(1,0,0,1,12,12)"
font-family="Montserrat" font-size="12" font-weight="700" font-style="normal" 
>
</g>
</g>

<clipPath id ="clip60" >
<rect x="0" y="0" height="937" width="977" transform="matrix(1,0,0,1,12,12)" />
</clipPath>
<g  clip-path="url(#clip60)" 
>
<g fill="none" stroke="#000000" stroke-opacity="1" stroke-width="1" stroke-linecap="square" stroke-linejoin="bevel" transform="matrix(1,0,0,1,12,12)"
font-family="Montserrat" font-size="12" font-weight="700" font-style="normal" 
>
</g>
</g>

<clipPath id ="clip61" >
<rect x="0" y="0" height="936" width="976" transform="matrix(1,0,0,1,12,12)" />
</clipPath>
<g  clip-path="url(#clip61)" 
>
<g fill="none" stroke="#000000" stroke-opacity="1" stroke-width="1" stroke-linecap="square" stroke-linejoin="bevel" transform="matrix(1,0,0,1,12,12)"
font-family="Montserrat" font-size="12" font-weight="700" font-style="normal" 
>
</g>
</g>

<clipPath id ="clip62" >
<rect x="0" y="0" height="937" width="977" transform="matrix(1,0,0,1,12,12)" />
</clipPath>
<g  clip-path="url(#clip62)" 
>
<g fill="none" stroke="#000000" stroke-opacity="1" stroke-width="1" stroke-linecap="square" stroke-linejoin="bevel" transform="matrix(1,0,0,1,12,12)"
font-family="Montserrat" font-size="12" font-weight="700" font-style="normal" 
>
</g>
</g>

<clipPath id ="clip63" >
<rect x="0" y="0" height="937" width="977" transform="matrix(1,0,0,1,12,12)" />
</clipPath>
<g  clip-path="url(#clip63)" 
>
<g fill="none" stroke="#000000" stroke-opacity="1" stroke-width="1" stroke-linecap="square" stroke-linejoin="bevel" transform="matrix(1,0,0,1,12,12)"
font-family="Montserrat" font-size="12" font-weight="700" font-style="normal" 
>
</g>
</g>

<clipPath id ="clip64" >
<rect x="0" y="0" height="937" width="977" transform="matrix(1,0,0,1,12,12)" />
</clipPath>
<g  clip-path="url(#clip64)" 
>
<g fill="none" stroke="#000000" stroke-opacity="1" stroke-width="1" stroke-linecap="square" stroke-linejoin="bevel" transform="matrix(1,0,0,1,12,12)"
font-family="Montserrat" font-size="12" font-weight="700" font-style="normal" 
>
</g>
</g>

<g  clip-path="url(#clip64)" 
>
<g fill="none" stroke="#f5f5f5" stroke-opacity="1" stroke-width="1" stroke-linecap="square" stroke-linejoin="bevel" transform="matrix(1,0,0,1,12,12)"
font-family="Montserrat" font-size="12" font-weight="700" font-style="normal" 
>
<polyline fill="none" vector-effect="none" points="0,936 976,936 " />
<polyline fill="none" vector-effect="none" points="0,0 0,936 " />
</g>
</g>

<clipPath id ="clip65" >
<rect x="0" y="0" height="937" width="977" transform="matrix(1,0,0,1,12,12)" />
</clipPath>
<g  clip-path="url(#clip65)" 
>
<g fill="none" stroke="#f5f5f5" stroke-opacity="1" stroke-width="1" stroke-linecap="square" stroke-linejoin="bevel" transform="matrix(1,0,0,1,12,12)"
font-family="Montserrat" font-size="12" font-weight="700" font-style="normal" 
>
</g>
</g>

<g >
<g fill="none" stroke="#f5f5f5" stroke-opacity="1" stroke-width="1" stroke-linecap="square" stroke-linejoin="bevel" transform="matrix(1,0,0,1,12,12)"
font-family="Montserrat" font-size="12" font-weight="700" font-style="normal" 
>
</g>
</g>
</g>
</svg>
