<?xml version="1.0" encoding="UTF-8" standalone="no"?>
<svg width="264.848mm" height="264.848mm"
 xmlns="http://www.w3.org/2000/svg" xmlns:xlink="http://www.w3.org/1999/xlink"  version="1.2" baseProfile="tiny">
<title>Tableau de bord 1</title>
<desc>Rendered by Tableau</desc>
<defs>
</defs>
<g fill="none" stroke="black" stroke-width="1" fill-rule="evenodd" stroke-linecap="square" stroke-linejoin="bevel" >

<g >
<g fill="#ffffff" fill-opacity="1" stroke="none" transform="matrix(1,0,0,1,0,0)"
font-family="Benton Sans Book" font-size="16" font-weight="400" font-style="normal" 
>
<rect x="0" y="0" width="1001" height="1001"/>
</g>
</g>

<g >
<g fill="#fff8f6" fill-opacity="1" stroke="none" transform="matrix(1,0,0,1,12,12)"
font-family="Benton Sans Book" font-size="16" font-weight="400" font-style="normal" 
>
<rect x="0" y="0" width="976" height="976"/>
</g>
</g>

<clipPath id ="clip1" >
<rect x="-1" y="-1" height="22" width="919" transform="matrix(1,0,0,1,71,968)" />
</clipPath>
<g  clip-path="url(#clip1)" 
>
<g fill="none" stroke="#000000" stroke-opacity="1" stroke-width="1" stroke-linecap="square" stroke-linejoin="bevel" transform="matrix(1,0,0,1,71,968)"
font-family="Benton Sans Book" font-size="16" font-weight="400" font-style="normal" 
>
</g>
</g>

<g  clip-path="url(#clip1)" 
>
<g fill="none" stroke="#000000" stroke-opacity="0" stroke-width="1" stroke-linecap="butt" stroke-linejoin="bevel" transform="matrix(1,0,0,1,71,968)"
font-family="Benton Sans Book" font-size="16" font-weight="400" font-style="normal" 
>
<polyline fill="none" vector-effect="none" points="0,0 0,5 " />
<polyline fill="none" vector-effect="none" points="57,0 57,5 " />
<polyline fill="none" vector-effect="none" points="114,0 114,5 " />
<polyline fill="none" vector-effect="none" points="171,0 171,5 " />
<polyline fill="none" vector-effect="none" points="229,0 229,5 " />
<polyline fill="none" vector-effect="none" points="286,0 286,5 " />
<polyline fill="none" vector-effect="none" points="343,0 343,5 " />
<polyline fill="none" vector-effect="none" points="401,0 401,5 " />
<polyline fill="none" vector-effect="none" points="458,0 458,5 " />
<polyline fill="none" vector-effect="none" points="515,0 515,5 " />
<polyline fill="none" vector-effect="none" points="573,0 573,5 " />
<polyline fill="none" vector-effect="none" points="630,0 630,5 " />
<polyline fill="none" vector-effect="none" points="687,0 687,5 " />
<polyline fill="none" vector-effect="none" points="745,0 745,5 " />
<polyline fill="none" vector-effect="none" points="802,0 802,5 " />
<polyline fill="none" vector-effect="none" points="859,0 859,5 " />
<polyline fill="none" vector-effect="none" points="917,0 917,5 " />
</g>
</g>

<g  clip-path="url(#clip1)" 
>
<g fill="none" stroke="#000000" stroke-opacity="0" stroke-width="1" stroke-linecap="butt" stroke-linejoin="bevel" transform="matrix(1,0,0,1,71,968)"
font-family="Benton Sans Book" font-size="16" font-weight="400" font-style="normal" 
>
</g>
</g>

<g  clip-path="url(#clip1)" 
>
<g fill="none" stroke="#555555" stroke-opacity="1" stroke-width="1" stroke-linecap="square" stroke-linejoin="bevel" transform="matrix(1,0,0,1,71,968)"
font-family="Montserrat" font-size="12" font-weight="700" font-style="normal" 
>
<text fill="#555555" fill-opacity="1" stroke="none" xml:space="preserve" x="12.8594" y="16" font-family="Montserrat" font-size="12" font-weight="700" font-style="normal" 
 >2008</text>
</g>
</g>

<g  clip-path="url(#clip1)" 
>
<g fill="none" stroke="#555555" stroke-opacity="1" stroke-width="1" stroke-linecap="square" stroke-linejoin="bevel" transform="matrix(1,0,0,1,71,968)"
font-family="Montserrat" font-size="12" font-weight="700" font-style="normal" 
>
<text fill="#555555" fill-opacity="1" stroke="none" xml:space="preserve" x="70.5" y="16" font-family="Montserrat" font-size="12" font-weight="700" font-style="normal" 
 >2009</text>
</g>
</g>

<g  clip-path="url(#clip1)" 
>
<g fill="none" stroke="#555555" stroke-opacity="1" stroke-width="1" stroke-linecap="square" stroke-linejoin="bevel" transform="matrix(1,0,0,1,71,968)"
font-family="Montserrat" font-size="12" font-weight="700" font-style="normal" 
>
<text fill="#555555" fill-opacity="1" stroke="none" xml:space="preserve" x="128.969" y="16" font-family="Montserrat" font-size="12" font-weight="700" font-style="normal" 
 >2010</text>
</g>
</g>

<g  clip-path="url(#clip1)" 
>
<g fill="none" stroke="#555555" stroke-opacity="1" stroke-width="1" stroke-linecap="square" stroke-linejoin="bevel" transform="matrix(1,0,0,1,71,968)"
font-family="Montserrat" font-size="12" font-weight="700" font-style="normal" 
>
<text fill="#555555" fill-opacity="1" stroke="none" xml:space="preserve" x="188.188" y="16" font-family="Montserrat" font-size="12" font-weight="700" font-style="normal" 
 >2011</text>
</g>
</g>

<g  clip-path="url(#clip1)" 
>
<g fill="none" stroke="#555555" stroke-opacity="1" stroke-width="1" stroke-linecap="square" stroke-linejoin="bevel" transform="matrix(1,0,0,1,71,968)"
font-family="Montserrat" font-size="12" font-weight="700" font-style="normal" 
>
<text fill="#555555" fill-opacity="1" stroke="none" xml:space="preserve" x="244.5" y="16" font-family="Montserrat" font-size="12" font-weight="700" font-style="normal" 
 >2012</text>
</g>
</g>

<g  clip-path="url(#clip1)" 
>
<g fill="none" stroke="#555555" stroke-opacity="1" stroke-width="1" stroke-linecap="square" stroke-linejoin="bevel" transform="matrix(1,0,0,1,71,968)"
font-family="Montserrat" font-size="12" font-weight="700" font-style="normal" 
>
<text fill="#555555" fill-opacity="1" stroke="none" xml:space="preserve" x="301.984" y="16" font-family="Montserrat" font-size="12" font-weight="700" font-style="normal" 
 >2013</text>
</g>
</g>

<g  clip-path="url(#clip1)" 
>
<g fill="none" stroke="#555555" stroke-opacity="1" stroke-width="1" stroke-linecap="square" stroke-linejoin="bevel" transform="matrix(1,0,0,1,71,968)"
font-family="Montserrat" font-size="12" font-weight="700" font-style="normal" 
>
<text fill="#555555" fill-opacity="1" stroke="none" xml:space="preserve" x="358.406" y="16" font-family="Montserrat" font-size="12" font-weight="700" font-style="normal" 
 >2014</text>
</g>
</g>

<g  clip-path="url(#clip1)" 
>
<g fill="none" stroke="#555555" stroke-opacity="1" stroke-width="1" stroke-linecap="square" stroke-linejoin="bevel" transform="matrix(1,0,0,1,71,968)"
font-family="Montserrat" font-size="12" font-weight="700" font-style="normal" 
>
<text fill="#555555" fill-opacity="1" stroke="none" xml:space="preserve" x="415.969" y="16" font-family="Montserrat" font-size="12" font-weight="700" font-style="normal" 
 >2015</text>
</g>
</g>

<g  clip-path="url(#clip1)" 
>
<g fill="none" stroke="#555555" stroke-opacity="1" stroke-width="1" stroke-linecap="square" stroke-linejoin="bevel" transform="matrix(1,0,0,1,71,968)"
font-family="Montserrat" font-size="12" font-weight="700" font-style="normal" 
>
<text fill="#555555" fill-opacity="1" stroke="none" xml:space="preserve" x="473.719" y="16" font-family="Montserrat" font-size="12" font-weight="700" font-style="normal" 
 >2016</text>
</g>
</g>

<g  clip-path="url(#clip1)" 
>
<g fill="none" stroke="#555555" stroke-opacity="1" stroke-width="1" stroke-linecap="square" stroke-linejoin="bevel" transform="matrix(1,0,0,1,71,968)"
font-family="Montserrat" font-size="12" font-weight="700" font-style="normal" 
>
<text fill="#555555" fill-opacity="1" stroke="none" xml:space="preserve" x="530.813" y="16" font-family="Montserrat" font-size="12" font-weight="700" font-style="normal" 
 >2017</text>
</g>
</g>

<g  clip-path="url(#clip1)" 
>
<g fill="none" stroke="#555555" stroke-opacity="1" stroke-width="1" stroke-linecap="square" stroke-linejoin="bevel" transform="matrix(1,0,0,1,71,968)"
font-family="Montserrat" font-size="12" font-weight="700" font-style="normal" 
>
<text fill="#555555" fill-opacity="1" stroke="none" xml:space="preserve" x="588.078" y="16" font-family="Montserrat" font-size="12" font-weight="700" font-style="normal" 
 >2018</text>
</g>
</g>

<g  clip-path="url(#clip1)" 
>
<g fill="none" stroke="#555555" stroke-opacity="1" stroke-width="1" stroke-linecap="square" stroke-linejoin="bevel" transform="matrix(1,0,0,1,71,968)"
font-family="Montserrat" font-size="12" font-weight="700" font-style="normal" 
>
<text fill="#555555" fill-opacity="1" stroke="none" xml:space="preserve" x="645.219" y="16" font-family="Montserrat" font-size="12" font-weight="700" font-style="normal" 
 >2019</text>
</g>
</g>

<g  clip-path="url(#clip1)" 
>
<g fill="none" stroke="#555555" stroke-opacity="1" stroke-width="1" stroke-linecap="square" stroke-linejoin="bevel" transform="matrix(1,0,0,1,71,968)"
font-family="Montserrat" font-size="12" font-weight="700" font-style="normal" 
>
<text fill="#555555" fill-opacity="1" stroke="none" xml:space="preserve" x="700.781" y="16" font-family="Montserrat" font-size="12" font-weight="700" font-style="normal" 
 >2020</text>
</g>
</g>

<g  clip-path="url(#clip1)" 
>
<g fill="none" stroke="#555555" stroke-opacity="1" stroke-width="1" stroke-linecap="square" stroke-linejoin="bevel" transform="matrix(1,0,0,1,71,968)"
font-family="Montserrat" font-size="12" font-weight="700" font-style="normal" 
>
<text fill="#555555" fill-opacity="1" stroke="none" xml:space="preserve" x="760" y="16" font-family="Montserrat" font-size="12" font-weight="700" font-style="normal" 
 >2021</text>
</g>
</g>

<g  clip-path="url(#clip1)" 
>
<g fill="none" stroke="#555555" stroke-opacity="1" stroke-width="1" stroke-linecap="square" stroke-linejoin="bevel" transform="matrix(1,0,0,1,71,968)"
font-family="Montserrat" font-size="12" font-weight="700" font-style="normal" 
>
<text fill="#555555" fill-opacity="1" stroke="none" xml:space="preserve" x="816.313" y="16" font-family="Montserrat" font-size="12" font-weight="700" font-style="normal" 
 >2022</text>
</g>
</g>

<g  clip-path="url(#clip1)" 
>
<g fill="none" stroke="#555555" stroke-opacity="1" stroke-width="1" stroke-linecap="square" stroke-linejoin="bevel" transform="matrix(1,0,0,1,71,968)"
font-family="Montserrat" font-size="12" font-weight="700" font-style="normal" 
>
<text fill="#555555" fill-opacity="1" stroke="none" xml:space="preserve" x="873.797" y="16" font-family="Montserrat" font-size="12" font-weight="700" font-style="normal" 
 >2023</text>
</g>
</g>

<g >
<g fill="none" stroke="#555555" stroke-opacity="1" stroke-width="1" stroke-linecap="square" stroke-linejoin="bevel" transform="matrix(1,0,0,1,71,968)"
font-family="Montserrat" font-size="12" font-weight="700" font-style="normal" 
>
</g>
</g>

<clipPath id ="clip2" >
<rect x="-1" y="-1" height="958" width="61" transform="matrix(1,0,0,1,12,12)" />
</clipPath>
<g  clip-path="url(#clip2)" 
>
<g fill="none" stroke="#555555" stroke-opacity="1" stroke-width="1" stroke-linecap="square" stroke-linejoin="bevel" transform="matrix(1,0,0,1,12,12)"
font-family="Montserrat" font-size="12" font-weight="700" font-style="normal" 
>
</g>
</g>

<g  clip-path="url(#clip2)" 
>
<g fill="none" stroke="#000000" stroke-opacity="0" stroke-width="1" stroke-linecap="butt" stroke-linejoin="bevel" transform="matrix(1,0,0,1,12,12)"
font-family="Montserrat" font-size="12" font-weight="700" font-style="normal" 
>
<polyline fill="none" vector-effect="none" points="54,956 59,956 " />
<polyline fill="none" vector-effect="none" points="54,885 59,885 " />
<polyline fill="none" vector-effect="none" points="54,813 59,813 " />
<polyline fill="none" vector-effect="none" points="54,742 59,742 " />
<polyline fill="none" vector-effect="none" points="54,671 59,671 " />
<polyline fill="none" vector-effect="none" points="54,599 59,599 " />
<polyline fill="none" vector-effect="none" points="54,528 59,528 " />
<polyline fill="none" vector-effect="none" points="54,457 59,457 " />
<polyline fill="none" vector-effect="none" points="54,385 59,385 " />
<polyline fill="none" vector-effect="none" points="54,314 59,314 " />
<polyline fill="none" vector-effect="none" points="54,243 59,243 " />
<polyline fill="none" vector-effect="none" points="54,171 59,171 " />
<polyline fill="none" vector-effect="none" points="54,100 59,100 " />
<polyline fill="none" vector-effect="none" points="54,29 59,29 " />
</g>
</g>

<g  clip-path="url(#clip2)" 
>
<g fill="none" stroke="#555555" stroke-opacity="1" stroke-width="1" stroke-linecap="square" stroke-linejoin="bevel" transform="matrix(1,0,0,1,12,12)"
font-family="Montserrat" font-size="12" font-weight="700" font-style="normal" 
>
<text fill="#555555" fill-opacity="1" stroke="none" xml:space="preserve" x="43.8594" y="952" font-family="Montserrat" font-size="12" font-weight="700" font-style="normal" 
 >0</text>
</g>
</g>

<g  clip-path="url(#clip2)" 
>
<g fill="none" stroke="#555555" stroke-opacity="1" stroke-width="1" stroke-linecap="square" stroke-linejoin="bevel" transform="matrix(1,0,0,1,12,12)"
font-family="Montserrat" font-size="12" font-weight="700" font-style="normal" 
>
<text fill="#555555" fill-opacity="1" stroke="none" xml:space="preserve" x="36.7813" y="889" font-family="Montserrat" font-size="12" font-weight="700" font-style="normal" 
 >20</text>
</g>
</g>

<g  clip-path="url(#clip2)" 
>
<g fill="none" stroke="#555555" stroke-opacity="1" stroke-width="1" stroke-linecap="square" stroke-linejoin="bevel" transform="matrix(1,0,0,1,12,12)"
font-family="Montserrat" font-size="12" font-weight="700" font-style="normal" 
>
<text fill="#555555" fill-opacity="1" stroke="none" xml:space="preserve" x="35.5938" y="817" font-family="Montserrat" font-size="12" font-weight="700" font-style="normal" 
 >40</text>
</g>
</g>

<g  clip-path="url(#clip2)" 
>
<g fill="none" stroke="#555555" stroke-opacity="1" stroke-width="1" stroke-linecap="square" stroke-linejoin="bevel" transform="matrix(1,0,0,1,12,12)"
font-family="Montserrat" font-size="12" font-weight="700" font-style="normal" 
>
<text fill="#555555" fill-opacity="1" stroke="none" xml:space="preserve" x="36.2188" y="746" font-family="Montserrat" font-size="12" font-weight="700" font-style="normal" 
 >60</text>
</g>
</g>

<g  clip-path="url(#clip2)" 
>
<g fill="none" stroke="#555555" stroke-opacity="1" stroke-width="1" stroke-linecap="square" stroke-linejoin="bevel" transform="matrix(1,0,0,1,12,12)"
font-family="Montserrat" font-size="12" font-weight="700" font-style="normal" 
>
<text fill="#555555" fill-opacity="1" stroke="none" xml:space="preserve" x="35.9531" y="675" font-family="Montserrat" font-size="12" font-weight="700" font-style="normal" 
 >80</text>
</g>
</g>

<g  clip-path="url(#clip2)" 
>
<g fill="none" stroke="#555555" stroke-opacity="1" stroke-width="1" stroke-linecap="square" stroke-linejoin="bevel" transform="matrix(1,0,0,1,12,12)"
font-family="Montserrat" font-size="12" font-weight="700" font-style="normal" 
>
<text fill="#555555" fill-opacity="1" stroke="none" xml:space="preserve" x="31.0156" y="603" font-family="Montserrat" font-size="12" font-weight="700" font-style="normal" 
 >100</text>
</g>
</g>

<g  clip-path="url(#clip2)" 
>
<g fill="none" stroke="#555555" stroke-opacity="1" stroke-width="1" stroke-linecap="square" stroke-linejoin="bevel" transform="matrix(1,0,0,1,12,12)"
font-family="Montserrat" font-size="12" font-weight="700" font-style="normal" 
>
<text fill="#555555" fill-opacity="1" stroke="none" xml:space="preserve" x="32.0781" y="532" font-family="Montserrat" font-size="12" font-weight="700" font-style="normal" 
 >120</text>
</g>
</g>

<g  clip-path="url(#clip2)" 
>
<g fill="none" stroke="#555555" stroke-opacity="1" stroke-width="1" stroke-linecap="square" stroke-linejoin="bevel" transform="matrix(1,0,0,1,12,12)"
font-family="Montserrat" font-size="12" font-weight="700" font-style="normal" 
>
<text fill="#555555" fill-opacity="1" stroke="none" xml:space="preserve" x="30.8906" y="461" font-family="Montserrat" font-size="12" font-weight="700" font-style="normal" 
 >140</text>
</g>
</g>

<g  clip-path="url(#clip2)" 
>
<g fill="none" stroke="#555555" stroke-opacity="1" stroke-width="1" stroke-linecap="square" stroke-linejoin="bevel" transform="matrix(1,0,0,1,12,12)"
font-family="Montserrat" font-size="12" font-weight="700" font-style="normal" 
>
<text fill="#555555" fill-opacity="1" stroke="none" xml:space="preserve" x="31.5156" y="389" font-family="Montserrat" font-size="12" font-weight="700" font-style="normal" 
 >160</text>
</g>
</g>

<g  clip-path="url(#clip2)" 
>
<g fill="none" stroke="#555555" stroke-opacity="1" stroke-width="1" stroke-linecap="square" stroke-linejoin="bevel" transform="matrix(1,0,0,1,12,12)"
font-family="Montserrat" font-size="12" font-weight="700" font-style="normal" 
>
<text fill="#555555" fill-opacity="1" stroke="none" xml:space="preserve" x="31.25" y="318" font-family="Montserrat" font-size="12" font-weight="700" font-style="normal" 
 >180</text>
</g>
</g>

<g  clip-path="url(#clip2)" 
>
<g fill="none" stroke="#555555" stroke-opacity="1" stroke-width="1" stroke-linecap="square" stroke-linejoin="bevel" transform="matrix(1,0,0,1,12,12)"
font-family="Montserrat" font-size="12" font-weight="700" font-style="normal" 
>
<text fill="#555555" fill-opacity="1" stroke="none" xml:space="preserve" x="28.6406" y="247" font-family="Montserrat" font-size="12" font-weight="700" font-style="normal" 
 >200</text>
</g>
</g>

<g  clip-path="url(#clip2)" 
>
<g fill="none" stroke="#555555" stroke-opacity="1" stroke-width="1" stroke-linecap="square" stroke-linejoin="bevel" transform="matrix(1,0,0,1,12,12)"
font-family="Montserrat" font-size="12" font-weight="700" font-style="normal" 
>
<text fill="#555555" fill-opacity="1" stroke="none" xml:space="preserve" x="29.7031" y="175" font-family="Montserrat" font-size="12" font-weight="700" font-style="normal" 
 >220</text>
</g>
</g>

<g  clip-path="url(#clip2)" 
>
<g fill="none" stroke="#555555" stroke-opacity="1" stroke-width="1" stroke-linecap="square" stroke-linejoin="bevel" transform="matrix(1,0,0,1,12,12)"
font-family="Montserrat" font-size="12" font-weight="700" font-style="normal" 
>
<text fill="#555555" fill-opacity="1" stroke="none" xml:space="preserve" x="28.5156" y="104" font-family="Montserrat" font-size="12" font-weight="700" font-style="normal" 
 >240</text>
</g>
</g>

<g  clip-path="url(#clip2)" 
>
<g fill="none" stroke="#555555" stroke-opacity="1" stroke-width="1" stroke-linecap="square" stroke-linejoin="bevel" transform="matrix(1,0,0,1,12,12)"
font-family="Montserrat" font-size="12" font-weight="700" font-style="normal" 
>
<text fill="#555555" fill-opacity="1" stroke="none" xml:space="preserve" x="29.1406" y="33" font-family="Montserrat" font-size="12" font-weight="700" font-style="normal" 
 >260</text>
</g>
</g>

<g  clip-path="url(#clip2)" 
>
<g fill="none" stroke="#555555" stroke-opacity="1" stroke-width="1" stroke-linecap="square" stroke-linejoin="bevel" transform="matrix(1,0,0,1,12,12)"
font-family="Montserrat" font-size="12" font-weight="700" font-style="normal" 
>
</g>
</g>

<g  clip-path="url(#clip2)" 
>
<g fill="none" stroke="#555555" stroke-opacity="1" stroke-width="1" stroke-linecap="square" stroke-linejoin="bevel" transform="matrix(0,-1,1,0,30.6094,545.688)"
font-family="Montserrat" font-size="12" font-weight="700" font-style="normal" 
>
<text fill="#555555" fill-opacity="1" stroke="none" xml:space="preserve" x="0" y="0" font-family="Montserrat" font-size="12" font-weight="700" font-style="normal" 
 >Nombre de notice</text>
</g>
</g>

<g  clip-path="url(#clip2)" 
>
<g fill="none" stroke="#555555" stroke-opacity="1" stroke-width="1" stroke-linecap="square" stroke-linejoin="bevel" transform="matrix(1,0,0,1,12,12)"
font-family="Montserrat" font-size="12" font-weight="700" font-style="normal" 
>
</g>
</g>

<g >
<g fill="none" stroke="#555555" stroke-opacity="1" stroke-width="1" stroke-linecap="square" stroke-linejoin="bevel" transform="matrix(1,0,0,1,12,12)"
font-family="Montserrat" font-size="12" font-weight="700" font-style="normal" 
>
</g>
</g>

<g  clip-path="url(#clip2)" 
>
<g fill="none" stroke="#555555" stroke-opacity="1" stroke-width="1" stroke-linecap="square" stroke-linejoin="bevel" transform="matrix(1,0,0,1,71,12)"
font-family="Montserrat" font-size="12" font-weight="700" font-style="normal" 
>
</g>
</g>

<clipPath id ="clip3" >
<rect x="0" y="0" height="957" width="918" transform="matrix(1,0,0,1,71,12)" />
</clipPath>
<g  clip-path="url(#clip3)" 
>
<g fill="none" stroke="#555555" stroke-opacity="1" stroke-width="1" stroke-linecap="square" stroke-linejoin="bevel" transform="matrix(1,0,0,1,71,12)"
font-family="Montserrat" font-size="12" font-weight="700" font-style="normal" 
>
</g>
</g>

<clipPath id ="clip4" >
<rect x="0" y="0" height="957" width="918" transform="matrix(1,0,0,1,71,12)" />
</clipPath>
<g  clip-path="url(#clip4)" 
>
<g fill="none" stroke="#555555" stroke-opacity="1" stroke-width="1" stroke-linecap="square" stroke-linejoin="bevel" transform="matrix(1,0,0,1,71,12)"
font-family="Montserrat" font-size="12" font-weight="700" font-style="normal" 
>
</g>
</g>

<g  clip-path="url(#clip4)" 
>
<g fill="#fff8f6" fill-opacity="1" stroke="none" transform="matrix(1,0,0,1,71,12)"
font-family="Montserrat" font-size="12" font-weight="700" font-style="normal" 
>
<rect x="0" y="0" width="918" height="957"/>
</g>
</g>

<g  clip-path="url(#clip4)" 
>
<g fill="#fff8f6" fill-opacity="1" stroke="none" transform="matrix(1,0,0,1,71,12)"
font-family="Montserrat" font-size="12" font-weight="700" font-style="normal" 
>
<rect x="0" y="0" width="918" height="957"/>
</g>
</g>

<clipPath id ="clip5" >
<rect x="0" y="0" height="957" width="918" transform="matrix(1,0,0,1,71,12)" />
</clipPath>
<g  clip-path="url(#clip5)" 
>
<g fill="none" stroke="#555555" stroke-opacity="1" stroke-width="1" stroke-linecap="square" stroke-linejoin="bevel" transform="matrix(1,0,0,1,71,12)"
font-family="Montserrat" font-size="12" font-weight="700" font-style="normal" 
>
</g>
</g>

<g  clip-path="url(#clip5)" 
>
<g fill="#fff8f6" fill-opacity="1" stroke="none" transform="matrix(1,0,0,1,71,12)"
font-family="Montserrat" font-size="12" font-weight="700" font-style="normal" 
>
<rect x="0" y="0" width="918" height="957"/>
</g>
</g>

<clipPath id ="clip6" >
<rect x="0" y="0" height="957" width="918" transform="matrix(1,0,0,1,71,12)" />
</clipPath>
<g  clip-path="url(#clip6)" 
>
<g fill="none" stroke="#555555" stroke-opacity="1" stroke-width="1" stroke-linecap="square" stroke-linejoin="bevel" transform="matrix(1,0,0,1,71,12)"
font-family="Montserrat" font-size="12" font-weight="700" font-style="normal" 
>
</g>
</g>

<clipPath id ="clip7" >
<rect x="0" y="0" height="957" width="918" transform="matrix(1,0,0,1,71,12)" />
</clipPath>
<g  clip-path="url(#clip7)" 
>
<g fill="none" stroke="#555555" stroke-opacity="1" stroke-width="1" stroke-linecap="square" stroke-linejoin="bevel" transform="matrix(1,0,0,1,71,12)"
font-family="Montserrat" font-size="12" font-weight="700" font-style="normal" 
>
</g>
</g>

<clipPath id ="clip8" >
<rect x="0" y="0" height="957" width="918" transform="matrix(1,0,0,1,71,12)" />
</clipPath>
<g  clip-path="url(#clip8)" 
>
<g fill="none" stroke="#555555" stroke-opacity="1" stroke-width="1" stroke-linecap="square" stroke-linejoin="bevel" transform="matrix(1,0,0,1,71,12)"
font-family="Montserrat" font-size="12" font-weight="700" font-style="normal" 
>
</g>
</g>

<clipPath id ="clip9" >
<rect x="0" y="0" height="957" width="918" transform="matrix(1,0,0,1,71,12)" />
</clipPath>
<g  clip-path="url(#clip9)" 
>
<g fill="none" stroke="#555555" stroke-opacity="1" stroke-width="1" stroke-linecap="square" stroke-linejoin="bevel" transform="matrix(1,0,0,1,71,12)"
font-family="Montserrat" font-size="12" font-weight="700" font-style="normal" 
>
</g>
</g>

<g  clip-path="url(#clip9)" 
>
<g fill="#fff8f6" fill-opacity="1" stroke="none" transform="matrix(1,0,0,1,71,12)"
font-family="Montserrat" font-size="12" font-weight="700" font-style="normal" 
>
<rect x="0" y="0" width="918" height="957"/>
</g>
</g>

<clipPath id ="clip10" >
<rect x="0" y="0" height="957" width="918" transform="matrix(1,0,0,1,71,12)" />
</clipPath>
<g  clip-path="url(#clip10)" 
>
<g fill="none" stroke="#555555" stroke-opacity="1" stroke-width="1" stroke-linecap="square" stroke-linejoin="bevel" transform="matrix(1,0,0,1,71,12)"
font-family="Montserrat" font-size="12" font-weight="700" font-style="normal" 
>
</g>
</g>

<clipPath id ="clip11" >
<rect x="0" y="0" height="956" width="917" transform="matrix(1,0,0,1,71,12)" />
</clipPath>
<g  clip-path="url(#clip11)" 
>
<g fill="none" stroke="#555555" stroke-opacity="1" stroke-width="1" stroke-linecap="square" stroke-linejoin="bevel" transform="matrix(1,0,0,1,71,12)"
font-family="Montserrat" font-size="12" font-weight="700" font-style="normal" 
>
</g>
</g>

<clipPath id ="clip12" >
<rect x="0" y="0" height="957" width="918" transform="matrix(1,0,0,1,71,12)" />
</clipPath>
<g  clip-path="url(#clip12)" 
>
<g fill="none" stroke="#555555" stroke-opacity="1" stroke-width="1" stroke-linecap="square" stroke-linejoin="bevel" transform="matrix(1,0,0,1,71,12)"
font-family="Montserrat" font-size="12" font-weight="700" font-style="normal" 
>
</g>
</g>

<clipPath id ="clip13" >
<rect x="0" y="0" height="957" width="918" transform="matrix(1,0,0,1,71,12)" />
</clipPath>
<g  clip-path="url(#clip13)" 
>
<g fill="none" stroke="#555555" stroke-opacity="1" stroke-width="1" stroke-linecap="square" stroke-linejoin="bevel" transform="matrix(1,0,0,1,71,12)"
font-family="Montserrat" font-size="12" font-weight="700" font-style="normal" 
>
</g>
</g>

<clipPath id ="clip14" >
<rect x="0" y="0" height="956" width="917" transform="matrix(1,0,0,1,71,12)" />
</clipPath>
<g  clip-path="url(#clip14)" 
>
<g fill="none" stroke="#555555" stroke-opacity="1" stroke-width="1" stroke-linecap="square" stroke-linejoin="bevel" transform="matrix(1,0,0,1,71,12)"
font-family="Montserrat" font-size="12" font-weight="700" font-style="normal" 
>
</g>
</g>

<g  clip-path="url(#clip14)" 
>
<g fill="none" stroke="#00ff00" stroke-opacity="1" stroke-width="3" stroke-linecap="round" stroke-linejoin="round" transform="matrix(1,0,0,1,71,12)"
font-family="Montserrat" font-size="12" font-weight="700" font-style="normal" 
>
<polyline fill="none" vector-effect="none" points="29.1563,585.515 86.4688,203.828 143.781,389.321 201.094,389.321 258.406,285.873 315.719,307.276 373.031,417.858 430.344,424.993 487.656,403.59 544.969,339.381 602.281,410.724 659.594,303.709 716.906,253.769 774.219,50.4403 831.531,207.396 888.844,257.336 " />
</g>
</g>

<g  clip-path="url(#clip14)" 
>
<g fill="none" stroke="#555555" stroke-opacity="1" stroke-width="1" stroke-linecap="square" stroke-linejoin="bevel" transform="matrix(1,0,0,1,71,12)"
font-family="Montserrat" font-size="12" font-weight="700" font-style="normal" 
>
<path vector-effect="none" fill-rule="nonzero" d="M0,0"/>
</g>
</g>

<g  clip-path="url(#clip14)" 
>
<g fill="#00ff00" fill-opacity="1" stroke="none" transform="matrix(1,0,0,1,71,12)"
font-family="Montserrat" font-size="12" font-weight="700" font-style="normal" 
>
<circle cx="29.1563" cy="585.515" r="3" />
</g>
</g>

<g  clip-path="url(#clip14)" 
>
<g fill="#00ff00" fill-opacity="1" stroke="none" transform="matrix(1,0,0,1,71,12)"
font-family="Montserrat" font-size="12" font-weight="700" font-style="normal" 
>
<circle cx="86.4688" cy="203.828" r="3" />
</g>
</g>

<g  clip-path="url(#clip14)" 
>
<g fill="#00ff00" fill-opacity="1" stroke="none" transform="matrix(1,0,0,1,71,12)"
font-family="Montserrat" font-size="12" font-weight="700" font-style="normal" 
>
<circle cx="143.781" cy="389.321" r="3" />
</g>
</g>

<g  clip-path="url(#clip14)" 
>
<g fill="#00ff00" fill-opacity="1" stroke="none" transform="matrix(1,0,0,1,71,12)"
font-family="Montserrat" font-size="12" font-weight="700" font-style="normal" 
>
<circle cx="201.094" cy="389.321" r="3" />
</g>
</g>

<g  clip-path="url(#clip14)" 
>
<g fill="#00ff00" fill-opacity="1" stroke="none" transform="matrix(1,0,0,1,71,12)"
font-family="Montserrat" font-size="12" font-weight="700" font-style="normal" 
>
<circle cx="258.406" cy="285.873" r="3" />
</g>
</g>

<g  clip-path="url(#clip14)" 
>
<g fill="#00ff00" fill-opacity="1" stroke="none" transform="matrix(1,0,0,1,71,12)"
font-family="Montserrat" font-size="12" font-weight="700" font-style="normal" 
>
<circle cx="315.719" cy="307.276" r="3" />
</g>
</g>

<g  clip-path="url(#clip14)" 
>
<g fill="#00ff00" fill-opacity="1" stroke="none" transform="matrix(1,0,0,1,71,12)"
font-family="Montserrat" font-size="12" font-weight="700" font-style="normal" 
>
<circle cx="373.031" cy="417.858" r="3" />
</g>
</g>

<g  clip-path="url(#clip14)" 
>
<g fill="#00ff00" fill-opacity="1" stroke="none" transform="matrix(1,0,0,1,71,12)"
font-family="Montserrat" font-size="12" font-weight="700" font-style="normal" 
>
<circle cx="430.344" cy="424.993" r="3" />
</g>
</g>

<g  clip-path="url(#clip14)" 
>
<g fill="#00ff00" fill-opacity="1" stroke="none" transform="matrix(1,0,0,1,71,12)"
font-family="Montserrat" font-size="12" font-weight="700" font-style="normal" 
>
<circle cx="487.656" cy="403.59" r="3" />
</g>
</g>

<g  clip-path="url(#clip14)" 
>
<g fill="#00ff00" fill-opacity="1" stroke="none" transform="matrix(1,0,0,1,71,12)"
font-family="Montserrat" font-size="12" font-weight="700" font-style="normal" 
>
<circle cx="544.969" cy="339.381" r="3" />
</g>
</g>

<g  clip-path="url(#clip14)" 
>
<g fill="#00ff00" fill-opacity="1" stroke="none" transform="matrix(1,0,0,1,71,12)"
font-family="Montserrat" font-size="12" font-weight="700" font-style="normal" 
>
<circle cx="602.281" cy="410.724" r="3" />
</g>
</g>

<g  clip-path="url(#clip14)" 
>
<g fill="#00ff00" fill-opacity="1" stroke="none" transform="matrix(1,0,0,1,71,12)"
font-family="Montserrat" font-size="12" font-weight="700" font-style="normal" 
>
<circle cx="659.594" cy="303.709" r="3" />
</g>
</g>

<g  clip-path="url(#clip14)" 
>
<g fill="#00ff00" fill-opacity="1" stroke="none" transform="matrix(1,0,0,1,71,12)"
font-family="Montserrat" font-size="12" font-weight="700" font-style="normal" 
>
<circle cx="716.906" cy="253.769" r="3" />
</g>
</g>

<g  clip-path="url(#clip14)" 
>
<g fill="#00ff00" fill-opacity="1" stroke="none" transform="matrix(1,0,0,1,71,12)"
font-family="Montserrat" font-size="12" font-weight="700" font-style="normal" 
>
<circle cx="774.219" cy="50.4403" r="3" />
</g>
</g>

<g  clip-path="url(#clip14)" 
>
<g fill="#00ff00" fill-opacity="1" stroke="none" transform="matrix(1,0,0,1,71,12)"
font-family="Montserrat" font-size="12" font-weight="700" font-style="normal" 
>
<circle cx="831.531" cy="207.396" r="3" />
</g>
</g>

<g  clip-path="url(#clip14)" 
>
<g fill="#00ff00" fill-opacity="1" stroke="none" transform="matrix(1,0,0,1,71,12)"
font-family="Montserrat" font-size="12" font-weight="700" font-style="normal" 
>
<circle cx="888.844" cy="257.336" r="3" />
</g>
</g>

<clipPath id ="clip15" >
<rect x="0" y="0" height="957" width="918" transform="matrix(1,0,0,1,71,12)" />
</clipPath>
<g  clip-path="url(#clip15)" 
>
<g fill="#00ff00" fill-opacity="1" stroke="none" transform="matrix(1,0,0,1,71,12)"
font-family="Montserrat" font-size="12" font-weight="700" font-style="normal" 
>
</g>
</g>

<clipPath id ="clip16" >
<rect x="0" y="0" height="957" width="918" transform="matrix(1,0,0,1,71,12)" />
</clipPath>
<g  clip-path="url(#clip16)" 
>
<g fill="#00ff00" fill-opacity="1" stroke="none" transform="matrix(1,0,0,1,71,12)"
font-family="Montserrat" font-size="12" font-weight="700" font-style="normal" 
>
</g>
</g>

<clipPath id ="clip17" >
<rect x="0" y="0" height="956" width="917" transform="matrix(1,0,0,1,71,12)" />
</clipPath>
<g  clip-path="url(#clip17)" 
>
<g fill="#00ff00" fill-opacity="1" stroke="none" transform="matrix(1,0,0,1,71,12)"
font-family="Montserrat" font-size="12" font-weight="700" font-style="normal" 
>
</g>
</g>

<clipPath id ="clip18" >
<rect x="0" y="0" height="957" width="918" transform="matrix(1,0,0,1,71,12)" />
</clipPath>
<g  clip-path="url(#clip18)" 
>
<g fill="#00ff00" fill-opacity="1" stroke="none" transform="matrix(1,0,0,1,71,12)"
font-family="Montserrat" font-size="12" font-weight="700" font-style="normal" 
>
</g>
</g>

<clipPath id ="clip19" >
<rect x="0" y="0" height="957" width="918" transform="matrix(1,0,0,1,71,12)" />
</clipPath>
<g  clip-path="url(#clip19)" 
>
<g fill="#00ff00" fill-opacity="1" stroke="none" transform="matrix(1,0,0,1,71,12)"
font-family="Montserrat" font-size="12" font-weight="700" font-style="normal" 
>
</g>
</g>

<clipPath id ="clip20" >
<rect x="0" y="0" height="956" width="917" transform="matrix(1,0,0,1,71,12)" />
</clipPath>
<g  clip-path="url(#clip20)" 
>
<g fill="#00ff00" fill-opacity="1" stroke="none" transform="matrix(1,0,0,1,71,12)"
font-family="Montserrat" font-size="12" font-weight="700" font-style="normal" 
>
</g>
</g>

<clipPath id ="clip21" >
<rect x="0" y="0" height="957" width="918" transform="matrix(1,0,0,1,71,12)" />
</clipPath>
<g  clip-path="url(#clip21)" 
>
<g fill="#00ff00" fill-opacity="1" stroke="none" transform="matrix(1,0,0,1,71,12)"
font-family="Montserrat" font-size="12" font-weight="700" font-style="normal" 
>
</g>
</g>

<clipPath id ="clip22" >
<rect x="0" y="0" height="957" width="918" transform="matrix(1,0,0,1,71,12)" />
</clipPath>
<g  clip-path="url(#clip22)" 
>
<g fill="#00ff00" fill-opacity="1" stroke="none" transform="matrix(1,0,0,1,71,12)"
font-family="Montserrat" font-size="12" font-weight="700" font-style="normal" 
>
</g>
</g>

<clipPath id ="clip23" >
<rect x="0" y="0" height="956" width="917" transform="matrix(1,0,0,1,71,12)" />
</clipPath>
<g  clip-path="url(#clip23)" 
>
<g fill="#00ff00" fill-opacity="1" stroke="none" transform="matrix(1,0,0,1,71,12)"
font-family="Montserrat" font-size="12" font-weight="700" font-style="normal" 
>
</g>
</g>

<clipPath id ="clip24" >
<rect x="0" y="0" height="957" width="918" transform="matrix(1,0,0,1,71,12)" />
</clipPath>
<g  clip-path="url(#clip24)" 
>
<g fill="#00ff00" fill-opacity="1" stroke="none" transform="matrix(1,0,0,1,71,12)"
font-family="Montserrat" font-size="12" font-weight="700" font-style="normal" 
>
</g>
</g>

<clipPath id ="clip25" >
<rect x="0" y="0" height="957" width="918" transform="matrix(1,0,0,1,71,12)" />
</clipPath>
<g  clip-path="url(#clip25)" 
>
<g fill="#00ff00" fill-opacity="1" stroke="none" transform="matrix(1,0,0,1,71,12)"
font-family="Montserrat" font-size="12" font-weight="700" font-style="normal" 
>
</g>
</g>

<clipPath id ="clip26" >
<rect x="0" y="0" height="956" width="917" transform="matrix(1,0,0,1,71,12)" />
</clipPath>
<g  clip-path="url(#clip26)" 
>
<g fill="#00ff00" fill-opacity="1" stroke="none" transform="matrix(1,0,0,1,71,12)"
font-family="Montserrat" font-size="12" font-weight="700" font-style="normal" 
>
</g>
</g>

<clipPath id ="clip27" >
<rect x="0" y="0" height="957" width="918" transform="matrix(1,0,0,1,71,12)" />
</clipPath>
<g  clip-path="url(#clip27)" 
>
<g fill="#00ff00" fill-opacity="1" stroke="none" transform="matrix(1,0,0,1,71,12)"
font-family="Montserrat" font-size="12" font-weight="700" font-style="normal" 
>
</g>
</g>

<g >
<g fill="#00ff00" fill-opacity="1" stroke="none" transform="matrix(1,0,0,1,71,12)"
font-family="Montserrat" font-size="12" font-weight="700" font-style="normal" 
>
</g>
</g>
</g>
</svg>
