<?xml version="1.0" encoding="UTF-8" standalone="no"?>
<svg width="264.848mm" height="264.848mm"
 xmlns="http://www.w3.org/2000/svg" xmlns:xlink="http://www.w3.org/1999/xlink"  version="1.2" baseProfile="tiny">
<title>Tableau de bord 1</title>
<desc>Rendered by Tableau</desc>
<defs>
</defs>
<g fill="none" stroke="black" stroke-width="1" fill-rule="evenodd" stroke-linecap="square" stroke-linejoin="bevel" >

<g >
<g fill="#ffffff" fill-opacity="1" stroke="none" transform="matrix(1,0,0,1,0,0)"
font-family="Benton Sans Book" font-size="16" font-weight="400" font-style="normal" 
>
<rect x="0" y="0" width="1001" height="1001"/>
</g>
</g>

<g >
<g fill="#fff8f6" fill-opacity="1" stroke="none" transform="matrix(1,0,0,1,12,12)"
font-family="Benton Sans Book" font-size="16" font-weight="400" font-style="normal" 
>
<rect x="0" y="0" width="976" height="976"/>
</g>
</g>

<clipPath id ="clip1" >
<rect x="-1" y="-1" height="22" width="918" transform="matrix(1,0,0,1,72,968)" />
</clipPath>
<g  clip-path="url(#clip1)" 
>
<g fill="none" stroke="#000000" stroke-opacity="1" stroke-width="1" stroke-linecap="square" stroke-linejoin="bevel" transform="matrix(1,0,0,1,72,968)"
font-family="Benton Sans Book" font-size="16" font-weight="400" font-style="normal" 
>
</g>
</g>

<g  clip-path="url(#clip1)" 
>
<g fill="none" stroke="#f5f5f5" stroke-opacity="1" stroke-width="1" stroke-linecap="butt" stroke-linejoin="bevel" transform="matrix(1,0,0,1,72,968)"
font-family="Benton Sans Book" font-size="16" font-weight="400" font-style="normal" 
>
<polyline fill="none" vector-effect="none" points="0,0 0,5 " />
<polyline fill="none" vector-effect="none" points="57,0 57,5 " />
<polyline fill="none" vector-effect="none" points="114,0 114,5 " />
<polyline fill="none" vector-effect="none" points="171,0 171,5 " />
<polyline fill="none" vector-effect="none" points="229,0 229,5 " />
<polyline fill="none" vector-effect="none" points="286,0 286,5 " />
<polyline fill="none" vector-effect="none" points="343,0 343,5 " />
<polyline fill="none" vector-effect="none" points="400,0 400,5 " />
<polyline fill="none" vector-effect="none" points="458,0 458,5 " />
<polyline fill="none" vector-effect="none" points="515,0 515,5 " />
<polyline fill="none" vector-effect="none" points="572,0 572,5 " />
<polyline fill="none" vector-effect="none" points="629,0 629,5 " />
<polyline fill="none" vector-effect="none" points="687,0 687,5 " />
<polyline fill="none" vector-effect="none" points="744,0 744,5 " />
<polyline fill="none" vector-effect="none" points="801,0 801,5 " />
<polyline fill="none" vector-effect="none" points="858,0 858,5 " />
<polyline fill="none" vector-effect="none" points="916,0 916,5 " />
</g>
</g>

<g  clip-path="url(#clip1)" 
>
<g fill="none" stroke="#f5f5f5" stroke-opacity="1" stroke-width="1" stroke-linecap="butt" stroke-linejoin="bevel" transform="matrix(1,0,0,1,72,968)"
font-family="Benton Sans Book" font-size="16" font-weight="400" font-style="normal" 
>
</g>
</g>

<g  clip-path="url(#clip1)" 
>
<g fill="none" stroke="#666666" stroke-opacity="1" stroke-width="1" stroke-linecap="square" stroke-linejoin="bevel" transform="matrix(1,0,0,1,72,968)"
font-family="Montserrat" font-size="12" font-weight="700" font-style="normal" 
>
<text fill="#666666" fill-opacity="1" stroke="none" xml:space="preserve" x="12.8594" y="16" font-family="Montserrat" font-size="12" font-weight="700" font-style="normal" 
 >2008</text>
</g>
</g>

<g  clip-path="url(#clip1)" 
>
<g fill="none" stroke="#666666" stroke-opacity="1" stroke-width="1" stroke-linecap="square" stroke-linejoin="bevel" transform="matrix(1,0,0,1,72,968)"
font-family="Montserrat" font-size="12" font-weight="700" font-style="normal" 
>
<text fill="#666666" fill-opacity="1" stroke="none" xml:space="preserve" x="70.5" y="16" font-family="Montserrat" font-size="12" font-weight="700" font-style="normal" 
 >2009</text>
</g>
</g>

<g  clip-path="url(#clip1)" 
>
<g fill="none" stroke="#666666" stroke-opacity="1" stroke-width="1" stroke-linecap="square" stroke-linejoin="bevel" transform="matrix(1,0,0,1,72,968)"
font-family="Montserrat" font-size="12" font-weight="700" font-style="normal" 
>
<text fill="#666666" fill-opacity="1" stroke="none" xml:space="preserve" x="128.969" y="16" font-family="Montserrat" font-size="12" font-weight="700" font-style="normal" 
 >2010</text>
</g>
</g>

<g  clip-path="url(#clip1)" 
>
<g fill="none" stroke="#666666" stroke-opacity="1" stroke-width="1" stroke-linecap="square" stroke-linejoin="bevel" transform="matrix(1,0,0,1,72,968)"
font-family="Montserrat" font-size="12" font-weight="700" font-style="normal" 
>
<text fill="#666666" fill-opacity="1" stroke="none" xml:space="preserve" x="188.188" y="16" font-family="Montserrat" font-size="12" font-weight="700" font-style="normal" 
 >2011</text>
</g>
</g>

<g  clip-path="url(#clip1)" 
>
<g fill="none" stroke="#666666" stroke-opacity="1" stroke-width="1" stroke-linecap="square" stroke-linejoin="bevel" transform="matrix(1,0,0,1,72,968)"
font-family="Montserrat" font-size="12" font-weight="700" font-style="normal" 
>
<text fill="#666666" fill-opacity="1" stroke="none" xml:space="preserve" x="244" y="16" font-family="Montserrat" font-size="12" font-weight="700" font-style="normal" 
 >2012</text>
</g>
</g>

<g  clip-path="url(#clip1)" 
>
<g fill="none" stroke="#666666" stroke-opacity="1" stroke-width="1" stroke-linecap="square" stroke-linejoin="bevel" transform="matrix(1,0,0,1,72,968)"
font-family="Montserrat" font-size="12" font-weight="700" font-style="normal" 
>
<text fill="#666666" fill-opacity="1" stroke="none" xml:space="preserve" x="301.484" y="16" font-family="Montserrat" font-size="12" font-weight="700" font-style="normal" 
 >2013</text>
</g>
</g>

<g  clip-path="url(#clip1)" 
>
<g fill="none" stroke="#666666" stroke-opacity="1" stroke-width="1" stroke-linecap="square" stroke-linejoin="bevel" transform="matrix(1,0,0,1,72,968)"
font-family="Montserrat" font-size="12" font-weight="700" font-style="normal" 
>
<text fill="#666666" fill-opacity="1" stroke="none" xml:space="preserve" x="357.906" y="16" font-family="Montserrat" font-size="12" font-weight="700" font-style="normal" 
 >2014</text>
</g>
</g>

<g  clip-path="url(#clip1)" 
>
<g fill="none" stroke="#666666" stroke-opacity="1" stroke-width="1" stroke-linecap="square" stroke-linejoin="bevel" transform="matrix(1,0,0,1,72,968)"
font-family="Montserrat" font-size="12" font-weight="700" font-style="normal" 
>
<text fill="#666666" fill-opacity="1" stroke="none" xml:space="preserve" x="415.969" y="16" font-family="Montserrat" font-size="12" font-weight="700" font-style="normal" 
 >2015</text>
</g>
</g>

<g  clip-path="url(#clip1)" 
>
<g fill="none" stroke="#666666" stroke-opacity="1" stroke-width="1" stroke-linecap="square" stroke-linejoin="bevel" transform="matrix(1,0,0,1,72,968)"
font-family="Montserrat" font-size="12" font-weight="700" font-style="normal" 
>
<text fill="#666666" fill-opacity="1" stroke="none" xml:space="preserve" x="472.719" y="16" font-family="Montserrat" font-size="12" font-weight="700" font-style="normal" 
 >2016</text>
</g>
</g>

<g  clip-path="url(#clip1)" 
>
<g fill="none" stroke="#666666" stroke-opacity="1" stroke-width="1" stroke-linecap="square" stroke-linejoin="bevel" transform="matrix(1,0,0,1,72,968)"
font-family="Montserrat" font-size="12" font-weight="700" font-style="normal" 
>
<text fill="#666666" fill-opacity="1" stroke="none" xml:space="preserve" x="529.813" y="16" font-family="Montserrat" font-size="12" font-weight="700" font-style="normal" 
 >2017</text>
</g>
</g>

<g  clip-path="url(#clip1)" 
>
<g fill="none" stroke="#666666" stroke-opacity="1" stroke-width="1" stroke-linecap="square" stroke-linejoin="bevel" transform="matrix(1,0,0,1,72,968)"
font-family="Montserrat" font-size="12" font-weight="700" font-style="normal" 
>
<text fill="#666666" fill-opacity="1" stroke="none" xml:space="preserve" x="587.078" y="16" font-family="Montserrat" font-size="12" font-weight="700" font-style="normal" 
 >2018</text>
</g>
</g>

<g  clip-path="url(#clip1)" 
>
<g fill="none" stroke="#666666" stroke-opacity="1" stroke-width="1" stroke-linecap="square" stroke-linejoin="bevel" transform="matrix(1,0,0,1,72,968)"
font-family="Montserrat" font-size="12" font-weight="700" font-style="normal" 
>
<text fill="#666666" fill-opacity="1" stroke="none" xml:space="preserve" x="644.719" y="16" font-family="Montserrat" font-size="12" font-weight="700" font-style="normal" 
 >2019</text>
</g>
</g>

<g  clip-path="url(#clip1)" 
>
<g fill="none" stroke="#666666" stroke-opacity="1" stroke-width="1" stroke-linecap="square" stroke-linejoin="bevel" transform="matrix(1,0,0,1,72,968)"
font-family="Montserrat" font-size="12" font-weight="700" font-style="normal" 
>
<text fill="#666666" fill-opacity="1" stroke="none" xml:space="preserve" x="700.781" y="16" font-family="Montserrat" font-size="12" font-weight="700" font-style="normal" 
 >2020</text>
</g>
</g>

<g  clip-path="url(#clip1)" 
>
<g fill="none" stroke="#666666" stroke-opacity="1" stroke-width="1" stroke-linecap="square" stroke-linejoin="bevel" transform="matrix(1,0,0,1,72,968)"
font-family="Montserrat" font-size="12" font-weight="700" font-style="normal" 
>
<text fill="#666666" fill-opacity="1" stroke="none" xml:space="preserve" x="759.5" y="16" font-family="Montserrat" font-size="12" font-weight="700" font-style="normal" 
 >2021</text>
</g>
</g>

<g  clip-path="url(#clip1)" 
>
<g fill="none" stroke="#666666" stroke-opacity="1" stroke-width="1" stroke-linecap="square" stroke-linejoin="bevel" transform="matrix(1,0,0,1,72,968)"
font-family="Montserrat" font-size="12" font-weight="700" font-style="normal" 
>
<text fill="#666666" fill-opacity="1" stroke="none" xml:space="preserve" x="815.813" y="16" font-family="Montserrat" font-size="12" font-weight="700" font-style="normal" 
 >2022</text>
</g>
</g>

<g  clip-path="url(#clip1)" 
>
<g fill="none" stroke="#666666" stroke-opacity="1" stroke-width="1" stroke-linecap="square" stroke-linejoin="bevel" transform="matrix(1,0,0,1,72,968)"
font-family="Montserrat" font-size="12" font-weight="700" font-style="normal" 
>
<text fill="#666666" fill-opacity="1" stroke="none" xml:space="preserve" x="872.797" y="16" font-family="Montserrat" font-size="12" font-weight="700" font-style="normal" 
 >2023</text>
</g>
</g>

<g >
<g fill="none" stroke="#666666" stroke-opacity="1" stroke-width="1" stroke-linecap="square" stroke-linejoin="bevel" transform="matrix(1,0,0,1,72,968)"
font-family="Montserrat" font-size="12" font-weight="700" font-style="normal" 
>
</g>
</g>

<clipPath id ="clip2" >
<rect x="-1" y="-1" height="958" width="62" transform="matrix(1,0,0,1,12,12)" />
</clipPath>
<g  clip-path="url(#clip2)" 
>
<g fill="none" stroke="#666666" stroke-opacity="1" stroke-width="1" stroke-linecap="square" stroke-linejoin="bevel" transform="matrix(1,0,0,1,12,12)"
font-family="Montserrat" font-size="12" font-weight="700" font-style="normal" 
>
</g>
</g>

<g  clip-path="url(#clip2)" 
>
<g fill="none" stroke="#f5f5f5" stroke-opacity="1" stroke-width="1" stroke-linecap="butt" stroke-linejoin="bevel" transform="matrix(1,0,0,1,12,12)"
font-family="Montserrat" font-size="12" font-weight="700" font-style="normal" 
>
<polyline fill="none" vector-effect="none" points="55,956 60,956 " />
<polyline fill="none" vector-effect="none" points="55,912 60,912 " />
<polyline fill="none" vector-effect="none" points="55,868 60,868 " />
<polyline fill="none" vector-effect="none" points="55,824 60,824 " />
<polyline fill="none" vector-effect="none" points="55,780 60,780 " />
<polyline fill="none" vector-effect="none" points="55,736 60,736 " />
<polyline fill="none" vector-effect="none" points="55,692 60,692 " />
<polyline fill="none" vector-effect="none" points="55,648 60,648 " />
<polyline fill="none" vector-effect="none" points="55,604 60,604 " />
<polyline fill="none" vector-effect="none" points="55,560 60,560 " />
<polyline fill="none" vector-effect="none" points="55,516 60,516 " />
<polyline fill="none" vector-effect="none" points="55,473 60,473 " />
<polyline fill="none" vector-effect="none" points="55,429 60,429 " />
<polyline fill="none" vector-effect="none" points="55,385 60,385 " />
<polyline fill="none" vector-effect="none" points="55,341 60,341 " />
<polyline fill="none" vector-effect="none" points="55,297 60,297 " />
<polyline fill="none" vector-effect="none" points="55,253 60,253 " />
<polyline fill="none" vector-effect="none" points="55,209 60,209 " />
<polyline fill="none" vector-effect="none" points="55,165 60,165 " />
<polyline fill="none" vector-effect="none" points="55,121 60,121 " />
<polyline fill="none" vector-effect="none" points="55,77 60,77 " />
<polyline fill="none" vector-effect="none" points="55,33 60,33 " />
</g>
</g>

<g  clip-path="url(#clip2)" 
>
<g fill="none" stroke="#666666" stroke-opacity="1" stroke-width="1" stroke-linecap="square" stroke-linejoin="bevel" transform="matrix(1,0,0,1,12,12)"
font-family="Montserrat" font-size="12" font-weight="700" font-style="normal" 
>
<text fill="#666666" fill-opacity="1" stroke="none" xml:space="preserve" x="44.8594" y="952" font-family="Montserrat" font-size="12" font-weight="700" font-style="normal" 
 >0</text>
</g>
</g>

<g  clip-path="url(#clip2)" 
>
<g fill="none" stroke="#666666" stroke-opacity="1" stroke-width="1" stroke-linecap="square" stroke-linejoin="bevel" transform="matrix(1,0,0,1,12,12)"
font-family="Montserrat" font-size="12" font-weight="700" font-style="normal" 
>
<text fill="#666666" fill-opacity="1" stroke="none" xml:space="preserve" x="37.7813" y="916" font-family="Montserrat" font-size="12" font-weight="700" font-style="normal" 
 >20</text>
</g>
</g>

<g  clip-path="url(#clip2)" 
>
<g fill="none" stroke="#666666" stroke-opacity="1" stroke-width="1" stroke-linecap="square" stroke-linejoin="bevel" transform="matrix(1,0,0,1,12,12)"
font-family="Montserrat" font-size="12" font-weight="700" font-style="normal" 
>
<text fill="#666666" fill-opacity="1" stroke="none" xml:space="preserve" x="36.5938" y="872" font-family="Montserrat" font-size="12" font-weight="700" font-style="normal" 
 >40</text>
</g>
</g>

<g  clip-path="url(#clip2)" 
>
<g fill="none" stroke="#666666" stroke-opacity="1" stroke-width="1" stroke-linecap="square" stroke-linejoin="bevel" transform="matrix(1,0,0,1,12,12)"
font-family="Montserrat" font-size="12" font-weight="700" font-style="normal" 
>
<text fill="#666666" fill-opacity="1" stroke="none" xml:space="preserve" x="37.2188" y="828" font-family="Montserrat" font-size="12" font-weight="700" font-style="normal" 
 >60</text>
</g>
</g>

<g  clip-path="url(#clip2)" 
>
<g fill="none" stroke="#666666" stroke-opacity="1" stroke-width="1" stroke-linecap="square" stroke-linejoin="bevel" transform="matrix(1,0,0,1,12,12)"
font-family="Montserrat" font-size="12" font-weight="700" font-style="normal" 
>
<text fill="#666666" fill-opacity="1" stroke="none" xml:space="preserve" x="36.9531" y="784" font-family="Montserrat" font-size="12" font-weight="700" font-style="normal" 
 >80</text>
</g>
</g>

<g  clip-path="url(#clip2)" 
>
<g fill="none" stroke="#666666" stroke-opacity="1" stroke-width="1" stroke-linecap="square" stroke-linejoin="bevel" transform="matrix(1,0,0,1,12,12)"
font-family="Montserrat" font-size="12" font-weight="700" font-style="normal" 
>
<text fill="#666666" fill-opacity="1" stroke="none" xml:space="preserve" x="32.0156" y="740" font-family="Montserrat" font-size="12" font-weight="700" font-style="normal" 
 >100</text>
</g>
</g>

<g  clip-path="url(#clip2)" 
>
<g fill="none" stroke="#666666" stroke-opacity="1" stroke-width="1" stroke-linecap="square" stroke-linejoin="bevel" transform="matrix(1,0,0,1,12,12)"
font-family="Montserrat" font-size="12" font-weight="700" font-style="normal" 
>
<text fill="#666666" fill-opacity="1" stroke="none" xml:space="preserve" x="33.0781" y="696" font-family="Montserrat" font-size="12" font-weight="700" font-style="normal" 
 >120</text>
</g>
</g>

<g  clip-path="url(#clip2)" 
>
<g fill="none" stroke="#666666" stroke-opacity="1" stroke-width="1" stroke-linecap="square" stroke-linejoin="bevel" transform="matrix(1,0,0,1,12,12)"
font-family="Montserrat" font-size="12" font-weight="700" font-style="normal" 
>
<text fill="#666666" fill-opacity="1" stroke="none" xml:space="preserve" x="31.8906" y="652" font-family="Montserrat" font-size="12" font-weight="700" font-style="normal" 
 >140</text>
</g>
</g>

<g  clip-path="url(#clip2)" 
>
<g fill="none" stroke="#666666" stroke-opacity="1" stroke-width="1" stroke-linecap="square" stroke-linejoin="bevel" transform="matrix(1,0,0,1,12,12)"
font-family="Montserrat" font-size="12" font-weight="700" font-style="normal" 
>
<text fill="#666666" fill-opacity="1" stroke="none" xml:space="preserve" x="32.5156" y="608" font-family="Montserrat" font-size="12" font-weight="700" font-style="normal" 
 >160</text>
</g>
</g>

<g  clip-path="url(#clip2)" 
>
<g fill="none" stroke="#666666" stroke-opacity="1" stroke-width="1" stroke-linecap="square" stroke-linejoin="bevel" transform="matrix(1,0,0,1,12,12)"
font-family="Montserrat" font-size="12" font-weight="700" font-style="normal" 
>
<text fill="#666666" fill-opacity="1" stroke="none" xml:space="preserve" x="32.25" y="564" font-family="Montserrat" font-size="12" font-weight="700" font-style="normal" 
 >180</text>
</g>
</g>

<g  clip-path="url(#clip2)" 
>
<g fill="none" stroke="#666666" stroke-opacity="1" stroke-width="1" stroke-linecap="square" stroke-linejoin="bevel" transform="matrix(1,0,0,1,12,12)"
font-family="Montserrat" font-size="12" font-weight="700" font-style="normal" 
>
<text fill="#666666" fill-opacity="1" stroke="none" xml:space="preserve" x="29.6406" y="520" font-family="Montserrat" font-size="12" font-weight="700" font-style="normal" 
 >200</text>
</g>
</g>

<g  clip-path="url(#clip2)" 
>
<g fill="none" stroke="#666666" stroke-opacity="1" stroke-width="1" stroke-linecap="square" stroke-linejoin="bevel" transform="matrix(1,0,0,1,12,12)"
font-family="Montserrat" font-size="12" font-weight="700" font-style="normal" 
>
<text fill="#666666" fill-opacity="1" stroke="none" xml:space="preserve" x="30.7031" y="477" font-family="Montserrat" font-size="12" font-weight="700" font-style="normal" 
 >220</text>
</g>
</g>

<g  clip-path="url(#clip2)" 
>
<g fill="none" stroke="#666666" stroke-opacity="1" stroke-width="1" stroke-linecap="square" stroke-linejoin="bevel" transform="matrix(1,0,0,1,12,12)"
font-family="Montserrat" font-size="12" font-weight="700" font-style="normal" 
>
<text fill="#666666" fill-opacity="1" stroke="none" xml:space="preserve" x="29.5156" y="433" font-family="Montserrat" font-size="12" font-weight="700" font-style="normal" 
 >240</text>
</g>
</g>

<g  clip-path="url(#clip2)" 
>
<g fill="none" stroke="#666666" stroke-opacity="1" stroke-width="1" stroke-linecap="square" stroke-linejoin="bevel" transform="matrix(1,0,0,1,12,12)"
font-family="Montserrat" font-size="12" font-weight="700" font-style="normal" 
>
<text fill="#666666" fill-opacity="1" stroke="none" xml:space="preserve" x="30.1406" y="389" font-family="Montserrat" font-size="12" font-weight="700" font-style="normal" 
 >260</text>
</g>
</g>

<g  clip-path="url(#clip2)" 
>
<g fill="none" stroke="#666666" stroke-opacity="1" stroke-width="1" stroke-linecap="square" stroke-linejoin="bevel" transform="matrix(1,0,0,1,12,12)"
font-family="Montserrat" font-size="12" font-weight="700" font-style="normal" 
>
<text fill="#666666" fill-opacity="1" stroke="none" xml:space="preserve" x="29.875" y="345" font-family="Montserrat" font-size="12" font-weight="700" font-style="normal" 
 >280</text>
</g>
</g>

<g  clip-path="url(#clip2)" 
>
<g fill="none" stroke="#666666" stroke-opacity="1" stroke-width="1" stroke-linecap="square" stroke-linejoin="bevel" transform="matrix(1,0,0,1,12,12)"
font-family="Montserrat" font-size="12" font-weight="700" font-style="normal" 
>
<text fill="#666666" fill-opacity="1" stroke="none" xml:space="preserve" x="29.625" y="301" font-family="Montserrat" font-size="12" font-weight="700" font-style="normal" 
 >300</text>
</g>
</g>

<g  clip-path="url(#clip2)" 
>
<g fill="none" stroke="#666666" stroke-opacity="1" stroke-width="1" stroke-linecap="square" stroke-linejoin="bevel" transform="matrix(1,0,0,1,12,12)"
font-family="Montserrat" font-size="12" font-weight="700" font-style="normal" 
>
<text fill="#666666" fill-opacity="1" stroke="none" xml:space="preserve" x="30.6875" y="257" font-family="Montserrat" font-size="12" font-weight="700" font-style="normal" 
 >320</text>
</g>
</g>

<g  clip-path="url(#clip2)" 
>
<g fill="none" stroke="#666666" stroke-opacity="1" stroke-width="1" stroke-linecap="square" stroke-linejoin="bevel" transform="matrix(1,0,0,1,12,12)"
font-family="Montserrat" font-size="12" font-weight="700" font-style="normal" 
>
<text fill="#666666" fill-opacity="1" stroke="none" xml:space="preserve" x="29.5" y="213" font-family="Montserrat" font-size="12" font-weight="700" font-style="normal" 
 >340</text>
</g>
</g>

<g  clip-path="url(#clip2)" 
>
<g fill="none" stroke="#666666" stroke-opacity="1" stroke-width="1" stroke-linecap="square" stroke-linejoin="bevel" transform="matrix(1,0,0,1,12,12)"
font-family="Montserrat" font-size="12" font-weight="700" font-style="normal" 
>
<text fill="#666666" fill-opacity="1" stroke="none" xml:space="preserve" x="30.125" y="169" font-family="Montserrat" font-size="12" font-weight="700" font-style="normal" 
 >360</text>
</g>
</g>

<g  clip-path="url(#clip2)" 
>
<g fill="none" stroke="#666666" stroke-opacity="1" stroke-width="1" stroke-linecap="square" stroke-linejoin="bevel" transform="matrix(1,0,0,1,12,12)"
font-family="Montserrat" font-size="12" font-weight="700" font-style="normal" 
>
<text fill="#666666" fill-opacity="1" stroke="none" xml:space="preserve" x="29.8594" y="125" font-family="Montserrat" font-size="12" font-weight="700" font-style="normal" 
 >380</text>
</g>
</g>

<g  clip-path="url(#clip2)" 
>
<g fill="none" stroke="#666666" stroke-opacity="1" stroke-width="1" stroke-linecap="square" stroke-linejoin="bevel" transform="matrix(1,0,0,1,12,12)"
font-family="Montserrat" font-size="12" font-weight="700" font-style="normal" 
>
<text fill="#666666" fill-opacity="1" stroke="none" xml:space="preserve" x="28.4531" y="81" font-family="Montserrat" font-size="12" font-weight="700" font-style="normal" 
 >400</text>
</g>
</g>

<g  clip-path="url(#clip2)" 
>
<g fill="none" stroke="#666666" stroke-opacity="1" stroke-width="1" stroke-linecap="square" stroke-linejoin="bevel" transform="matrix(1,0,0,1,12,12)"
font-family="Montserrat" font-size="12" font-weight="700" font-style="normal" 
>
<text fill="#666666" fill-opacity="1" stroke="none" xml:space="preserve" x="29.5156" y="37" font-family="Montserrat" font-size="12" font-weight="700" font-style="normal" 
 >420</text>
</g>
</g>

<g  clip-path="url(#clip2)" 
>
<g fill="none" stroke="#666666" stroke-opacity="1" stroke-width="1" stroke-linecap="square" stroke-linejoin="bevel" transform="matrix(1,0,0,1,12,12)"
font-family="Montserrat" font-size="12" font-weight="700" font-style="normal" 
>
</g>
</g>

<g  clip-path="url(#clip2)" 
>
<g fill="none" stroke="#333333" stroke-opacity="1" stroke-width="1" stroke-linecap="square" stroke-linejoin="bevel" transform="matrix(0,-1,1,0,30.6094,545.688)"
font-family="Montserrat" font-size="12" font-weight="700" font-style="normal" 
>
<text fill="#333333" fill-opacity="1" stroke="none" xml:space="preserve" x="0" y="0" font-family="Montserrat" font-size="12" font-weight="700" font-style="normal" 
 >Nombre de notice</text>
</g>
</g>

<g  clip-path="url(#clip2)" 
>
<g fill="none" stroke="#666666" stroke-opacity="1" stroke-width="1" stroke-linecap="square" stroke-linejoin="bevel" transform="matrix(1,0,0,1,12,12)"
font-family="Montserrat" font-size="12" font-weight="700" font-style="normal" 
>
</g>
</g>

<g >
<g fill="none" stroke="#666666" stroke-opacity="1" stroke-width="1" stroke-linecap="square" stroke-linejoin="bevel" transform="matrix(1,0,0,1,12,12)"
font-family="Montserrat" font-size="12" font-weight="700" font-style="normal" 
>
</g>
</g>

<g  clip-path="url(#clip2)" 
>
<g fill="none" stroke="#666666" stroke-opacity="1" stroke-width="1" stroke-linecap="square" stroke-linejoin="bevel" transform="matrix(1,0,0,1,72,12)"
font-family="Montserrat" font-size="12" font-weight="700" font-style="normal" 
>
</g>
</g>

<clipPath id ="clip3" >
<rect x="0" y="0" height="957" width="917" transform="matrix(1,0,0,1,72,12)" />
</clipPath>
<g  clip-path="url(#clip3)" 
>
<g fill="none" stroke="#666666" stroke-opacity="1" stroke-width="1" stroke-linecap="square" stroke-linejoin="bevel" transform="matrix(1,0,0,1,72,12)"
font-family="Montserrat" font-size="12" font-weight="700" font-style="normal" 
>
</g>
</g>

<clipPath id ="clip4" >
<rect x="0" y="0" height="957" width="917" transform="matrix(1,0,0,1,72,12)" />
</clipPath>
<g  clip-path="url(#clip4)" 
>
<g fill="none" stroke="#666666" stroke-opacity="1" stroke-width="1" stroke-linecap="square" stroke-linejoin="bevel" transform="matrix(1,0,0,1,72,12)"
font-family="Montserrat" font-size="12" font-weight="700" font-style="normal" 
>
</g>
</g>

<g  clip-path="url(#clip4)" 
>
<g fill="#fff8f6" fill-opacity="1" stroke="none" transform="matrix(1,0,0,1,72,12)"
font-family="Montserrat" font-size="12" font-weight="700" font-style="normal" 
>
<rect x="0" y="0" width="917" height="957"/>
</g>
</g>

<g  clip-path="url(#clip4)" 
>
<g fill="#fff8f6" fill-opacity="1" stroke="none" transform="matrix(1,0,0,1,72,12)"
font-family="Montserrat" font-size="12" font-weight="700" font-style="normal" 
>
<rect x="0" y="0" width="917" height="957"/>
</g>
</g>

<clipPath id ="clip5" >
<rect x="0" y="0" height="957" width="917" transform="matrix(1,0,0,1,72,12)" />
</clipPath>
<g  clip-path="url(#clip5)" 
>
<g fill="none" stroke="#666666" stroke-opacity="1" stroke-width="1" stroke-linecap="square" stroke-linejoin="bevel" transform="matrix(1,0,0,1,72,12)"
font-family="Montserrat" font-size="12" font-weight="700" font-style="normal" 
>
</g>
</g>

<g  clip-path="url(#clip5)" 
>
<g fill="#fff8f6" fill-opacity="1" stroke="none" transform="matrix(1,0,0,1,72,12)"
font-family="Montserrat" font-size="12" font-weight="700" font-style="normal" 
>
<rect x="0" y="0" width="917" height="957"/>
</g>
</g>

<clipPath id ="clip6" >
<rect x="0" y="0" height="957" width="917" transform="matrix(1,0,0,1,72,12)" />
</clipPath>
<g  clip-path="url(#clip6)" 
>
<g fill="none" stroke="#666666" stroke-opacity="1" stroke-width="1" stroke-linecap="square" stroke-linejoin="bevel" transform="matrix(1,0,0,1,72,12)"
font-family="Montserrat" font-size="12" font-weight="700" font-style="normal" 
>
</g>
</g>

<clipPath id ="clip7" >
<rect x="0" y="0" height="957" width="917" transform="matrix(1,0,0,1,72,12)" />
</clipPath>
<g  clip-path="url(#clip7)" 
>
<g fill="none" stroke="#666666" stroke-opacity="1" stroke-width="1" stroke-linecap="square" stroke-linejoin="bevel" transform="matrix(1,0,0,1,72,12)"
font-family="Montserrat" font-size="12" font-weight="700" font-style="normal" 
>
</g>
</g>

<clipPath id ="clip8" >
<rect x="0" y="0" height="957" width="917" transform="matrix(1,0,0,1,72,12)" />
</clipPath>
<g  clip-path="url(#clip8)" 
>
<g fill="none" stroke="#666666" stroke-opacity="1" stroke-width="1" stroke-linecap="square" stroke-linejoin="bevel" transform="matrix(1,0,0,1,72,12)"
font-family="Montserrat" font-size="12" font-weight="700" font-style="normal" 
>
</g>
</g>

<clipPath id ="clip9" >
<rect x="0" y="0" height="957" width="917" transform="matrix(1,0,0,1,72,12)" />
</clipPath>
<g  clip-path="url(#clip9)" 
>
<g fill="none" stroke="#666666" stroke-opacity="1" stroke-width="1" stroke-linecap="square" stroke-linejoin="bevel" transform="matrix(1,0,0,1,72,12)"
font-family="Montserrat" font-size="12" font-weight="700" font-style="normal" 
>
</g>
</g>

<g  clip-path="url(#clip9)" 
>
<g fill="#fff8f6" fill-opacity="1" stroke="none" transform="matrix(1,0,0,1,72,12)"
font-family="Montserrat" font-size="12" font-weight="700" font-style="normal" 
>
<rect x="0" y="0" width="917" height="957"/>
</g>
</g>

<clipPath id ="clip10" >
<rect x="0" y="0" height="957" width="917" transform="matrix(1,0,0,1,72,12)" />
</clipPath>
<g  clip-path="url(#clip10)" 
>
<g fill="none" stroke="#666666" stroke-opacity="1" stroke-width="1" stroke-linecap="square" stroke-linejoin="bevel" transform="matrix(1,0,0,1,72,12)"
font-family="Montserrat" font-size="12" font-weight="700" font-style="normal" 
>
</g>
</g>

<clipPath id ="clip11" >
<rect x="0" y="0" height="956" width="916" transform="matrix(1,0,0,1,72,12)" />
</clipPath>
<g  clip-path="url(#clip11)" 
>
<g fill="none" stroke="#666666" stroke-opacity="1" stroke-width="1" stroke-linecap="square" stroke-linejoin="bevel" transform="matrix(1,0,0,1,72,12)"
font-family="Montserrat" font-size="12" font-weight="700" font-style="normal" 
>
</g>
</g>

<clipPath id ="clip12" >
<rect x="0" y="0" height="957" width="917" transform="matrix(1,0,0,1,72,12)" />
</clipPath>
<g  clip-path="url(#clip12)" 
>
<g fill="none" stroke="#666666" stroke-opacity="1" stroke-width="1" stroke-linecap="square" stroke-linejoin="bevel" transform="matrix(1,0,0,1,72,12)"
font-family="Montserrat" font-size="12" font-weight="700" font-style="normal" 
>
</g>
</g>

<clipPath id ="clip13" >
<rect x="0" y="0" height="957" width="917" transform="matrix(1,0,0,1,72,12)" />
</clipPath>
<g  clip-path="url(#clip13)" 
>
<g fill="none" stroke="#666666" stroke-opacity="1" stroke-width="1" stroke-linecap="square" stroke-linejoin="bevel" transform="matrix(1,0,0,1,72,12)"
font-family="Montserrat" font-size="12" font-weight="700" font-style="normal" 
>
</g>
</g>

<clipPath id ="clip14" >
<rect x="0" y="0" height="956" width="916" transform="matrix(1,0,0,1,72,12)" />
</clipPath>
<g  clip-path="url(#clip14)" 
>
<g fill="none" stroke="#666666" stroke-opacity="1" stroke-width="1" stroke-linecap="square" stroke-linejoin="bevel" transform="matrix(1,0,0,1,72,12)"
font-family="Montserrat" font-size="12" font-weight="700" font-style="normal" 
>
</g>
</g>

<g  clip-path="url(#clip14)" 
>
<g fill="none" stroke="#9900ff" stroke-opacity="1" stroke-width="3" stroke-linecap="round" stroke-linejoin="round" transform="matrix(1,0,0,1,72,12)"
font-family="Montserrat" font-size="12" font-weight="700" font-style="normal" 
>
<polyline fill="none" vector-effect="none" points="29.125,787.277 86.375,48.8494 143.625,312.574 200.875,598.275 258.125,651.02 315.375,686.183 372.625,626.845 429.875,358.725 487.125,369.714 544.375,618.054 601.625,587.286 658.875,604.868 716.125,765.3 773.375,692.776 830.625,683.985 887.875,734.532 " />
</g>
</g>

<g  clip-path="url(#clip14)" 
>
<g fill="none" stroke="#666666" stroke-opacity="1" stroke-width="1" stroke-linecap="square" stroke-linejoin="bevel" transform="matrix(1,0,0,1,72,12)"
font-family="Montserrat" font-size="12" font-weight="700" font-style="normal" 
>
<path vector-effect="none" fill-rule="nonzero" d="M0,0"/>
</g>
</g>

<g  clip-path="url(#clip14)" 
>
<g fill="#9900ff" fill-opacity="1" stroke="none" transform="matrix(1,0,0,1,72,12)"
font-family="Montserrat" font-size="12" font-weight="700" font-style="normal" 
>
<circle cx="29.125" cy="787.277" r="3" />
</g>
</g>

<g  clip-path="url(#clip14)" 
>
<g fill="#9900ff" fill-opacity="1" stroke="none" transform="matrix(1,0,0,1,72,12)"
font-family="Montserrat" font-size="12" font-weight="700" font-style="normal" 
>
<circle cx="86.375" cy="48.8494" r="3" />
</g>
</g>

<g  clip-path="url(#clip14)" 
>
<g fill="#9900ff" fill-opacity="1" stroke="none" transform="matrix(1,0,0,1,72,12)"
font-family="Montserrat" font-size="12" font-weight="700" font-style="normal" 
>
<circle cx="143.625" cy="312.574" r="3" />
</g>
</g>

<g  clip-path="url(#clip14)" 
>
<g fill="#9900ff" fill-opacity="1" stroke="none" transform="matrix(1,0,0,1,72,12)"
font-family="Montserrat" font-size="12" font-weight="700" font-style="normal" 
>
<circle cx="200.875" cy="598.275" r="3" />
</g>
</g>

<g  clip-path="url(#clip14)" 
>
<g fill="#9900ff" fill-opacity="1" stroke="none" transform="matrix(1,0,0,1,72,12)"
font-family="Montserrat" font-size="12" font-weight="700" font-style="normal" 
>
<circle cx="258.125" cy="651.02" r="3" />
</g>
</g>

<g  clip-path="url(#clip14)" 
>
<g fill="#9900ff" fill-opacity="1" stroke="none" transform="matrix(1,0,0,1,72,12)"
font-family="Montserrat" font-size="12" font-weight="700" font-style="normal" 
>
<circle cx="315.375" cy="686.183" r="3" />
</g>
</g>

<g  clip-path="url(#clip14)" 
>
<g fill="#9900ff" fill-opacity="1" stroke="none" transform="matrix(1,0,0,1,72,12)"
font-family="Montserrat" font-size="12" font-weight="700" font-style="normal" 
>
<circle cx="372.625" cy="626.845" r="3" />
</g>
</g>

<g  clip-path="url(#clip14)" 
>
<g fill="#9900ff" fill-opacity="1" stroke="none" transform="matrix(1,0,0,1,72,12)"
font-family="Montserrat" font-size="12" font-weight="700" font-style="normal" 
>
<circle cx="429.875" cy="358.725" r="3" />
</g>
</g>

<g  clip-path="url(#clip14)" 
>
<g fill="#9900ff" fill-opacity="1" stroke="none" transform="matrix(1,0,0,1,72,12)"
font-family="Montserrat" font-size="12" font-weight="700" font-style="normal" 
>
<circle cx="487.125" cy="369.714" r="3" />
</g>
</g>

<g  clip-path="url(#clip14)" 
>
<g fill="#9900ff" fill-opacity="1" stroke="none" transform="matrix(1,0,0,1,72,12)"
font-family="Montserrat" font-size="12" font-weight="700" font-style="normal" 
>
<circle cx="544.375" cy="618.054" r="3" />
</g>
</g>

<g  clip-path="url(#clip14)" 
>
<g fill="#9900ff" fill-opacity="1" stroke="none" transform="matrix(1,0,0,1,72,12)"
font-family="Montserrat" font-size="12" font-weight="700" font-style="normal" 
>
<circle cx="601.625" cy="587.286" r="3" />
</g>
</g>

<g  clip-path="url(#clip14)" 
>
<g fill="#9900ff" fill-opacity="1" stroke="none" transform="matrix(1,0,0,1,72,12)"
font-family="Montserrat" font-size="12" font-weight="700" font-style="normal" 
>
<circle cx="658.875" cy="604.868" r="3" />
</g>
</g>

<g  clip-path="url(#clip14)" 
>
<g fill="#9900ff" fill-opacity="1" stroke="none" transform="matrix(1,0,0,1,72,12)"
font-family="Montserrat" font-size="12" font-weight="700" font-style="normal" 
>
<circle cx="716.125" cy="765.3" r="3" />
</g>
</g>

<g  clip-path="url(#clip14)" 
>
<g fill="#9900ff" fill-opacity="1" stroke="none" transform="matrix(1,0,0,1,72,12)"
font-family="Montserrat" font-size="12" font-weight="700" font-style="normal" 
>
<circle cx="773.375" cy="692.776" r="3" />
</g>
</g>

<g  clip-path="url(#clip14)" 
>
<g fill="#9900ff" fill-opacity="1" stroke="none" transform="matrix(1,0,0,1,72,12)"
font-family="Montserrat" font-size="12" font-weight="700" font-style="normal" 
>
<circle cx="830.625" cy="683.985" r="3" />
</g>
</g>

<g  clip-path="url(#clip14)" 
>
<g fill="#9900ff" fill-opacity="1" stroke="none" transform="matrix(1,0,0,1,72,12)"
font-family="Montserrat" font-size="12" font-weight="700" font-style="normal" 
>
<circle cx="887.875" cy="734.532" r="3" />
</g>
</g>

<clipPath id ="clip15" >
<rect x="0" y="0" height="957" width="917" transform="matrix(1,0,0,1,72,12)" />
</clipPath>
<g  clip-path="url(#clip15)" 
>
<g fill="#9900ff" fill-opacity="1" stroke="none" transform="matrix(1,0,0,1,72,12)"
font-family="Montserrat" font-size="12" font-weight="700" font-style="normal" 
>
</g>
</g>

<clipPath id ="clip16" >
<rect x="0" y="0" height="957" width="917" transform="matrix(1,0,0,1,72,12)" />
</clipPath>
<g  clip-path="url(#clip16)" 
>
<g fill="#9900ff" fill-opacity="1" stroke="none" transform="matrix(1,0,0,1,72,12)"
font-family="Montserrat" font-size="12" font-weight="700" font-style="normal" 
>
</g>
</g>

<clipPath id ="clip17" >
<rect x="0" y="0" height="956" width="916" transform="matrix(1,0,0,1,72,12)" />
</clipPath>
<g  clip-path="url(#clip17)" 
>
<g fill="#9900ff" fill-opacity="1" stroke="none" transform="matrix(1,0,0,1,72,12)"
font-family="Montserrat" font-size="12" font-weight="700" font-style="normal" 
>
</g>
</g>

<clipPath id ="clip18" >
<rect x="0" y="0" height="957" width="917" transform="matrix(1,0,0,1,72,12)" />
</clipPath>
<g  clip-path="url(#clip18)" 
>
<g fill="#9900ff" fill-opacity="1" stroke="none" transform="matrix(1,0,0,1,72,12)"
font-family="Montserrat" font-size="12" font-weight="700" font-style="normal" 
>
</g>
</g>

<clipPath id ="clip19" >
<rect x="0" y="0" height="957" width="917" transform="matrix(1,0,0,1,72,12)" />
</clipPath>
<g  clip-path="url(#clip19)" 
>
<g fill="#9900ff" fill-opacity="1" stroke="none" transform="matrix(1,0,0,1,72,12)"
font-family="Montserrat" font-size="12" font-weight="700" font-style="normal" 
>
</g>
</g>

<clipPath id ="clip20" >
<rect x="0" y="0" height="956" width="916" transform="matrix(1,0,0,1,72,12)" />
</clipPath>
<g  clip-path="url(#clip20)" 
>
<g fill="#9900ff" fill-opacity="1" stroke="none" transform="matrix(1,0,0,1,72,12)"
font-family="Montserrat" font-size="12" font-weight="700" font-style="normal" 
>
</g>
</g>

<clipPath id ="clip21" >
<rect x="0" y="0" height="957" width="917" transform="matrix(1,0,0,1,72,12)" />
</clipPath>
<g  clip-path="url(#clip21)" 
>
<g fill="#9900ff" fill-opacity="1" stroke="none" transform="matrix(1,0,0,1,72,12)"
font-family="Montserrat" font-size="12" font-weight="700" font-style="normal" 
>
</g>
</g>

<clipPath id ="clip22" >
<rect x="0" y="0" height="957" width="917" transform="matrix(1,0,0,1,72,12)" />
</clipPath>
<g  clip-path="url(#clip22)" 
>
<g fill="#9900ff" fill-opacity="1" stroke="none" transform="matrix(1,0,0,1,72,12)"
font-family="Montserrat" font-size="12" font-weight="700" font-style="normal" 
>
</g>
</g>

<clipPath id ="clip23" >
<rect x="0" y="0" height="956" width="916" transform="matrix(1,0,0,1,72,12)" />
</clipPath>
<g  clip-path="url(#clip23)" 
>
<g fill="#9900ff" fill-opacity="1" stroke="none" transform="matrix(1,0,0,1,72,12)"
font-family="Montserrat" font-size="12" font-weight="700" font-style="normal" 
>
</g>
</g>

<clipPath id ="clip24" >
<rect x="0" y="0" height="957" width="917" transform="matrix(1,0,0,1,72,12)" />
</clipPath>
<g  clip-path="url(#clip24)" 
>
<g fill="#9900ff" fill-opacity="1" stroke="none" transform="matrix(1,0,0,1,72,12)"
font-family="Montserrat" font-size="12" font-weight="700" font-style="normal" 
>
</g>
</g>

<clipPath id ="clip25" >
<rect x="0" y="0" height="957" width="917" transform="matrix(1,0,0,1,72,12)" />
</clipPath>
<g  clip-path="url(#clip25)" 
>
<g fill="#9900ff" fill-opacity="1" stroke="none" transform="matrix(1,0,0,1,72,12)"
font-family="Montserrat" font-size="12" font-weight="700" font-style="normal" 
>
</g>
</g>

<clipPath id ="clip26" >
<rect x="0" y="0" height="956" width="916" transform="matrix(1,0,0,1,72,12)" />
</clipPath>
<g  clip-path="url(#clip26)" 
>
<g fill="#9900ff" fill-opacity="1" stroke="none" transform="matrix(1,0,0,1,72,12)"
font-family="Montserrat" font-size="12" font-weight="700" font-style="normal" 
>
</g>
</g>

<clipPath id ="clip27" >
<rect x="0" y="0" height="957" width="917" transform="matrix(1,0,0,1,72,12)" />
</clipPath>
<g  clip-path="url(#clip27)" 
>
<g fill="#9900ff" fill-opacity="1" stroke="none" transform="matrix(1,0,0,1,72,12)"
font-family="Montserrat" font-size="12" font-weight="700" font-style="normal" 
>
</g>
</g>

<clipPath id ="clip28" >
<rect x="0" y="0" height="957" width="917" transform="matrix(1,0,0,1,72,12)" />
</clipPath>
<g  clip-path="url(#clip28)" 
>
<g fill="#9900ff" fill-opacity="1" stroke="none" transform="matrix(1,0,0,1,72,12)"
font-family="Montserrat" font-size="12" font-weight="700" font-style="normal" 
>
</g>
</g>

<clipPath id ="clip29" >
<rect x="0" y="0" height="957" width="917" transform="matrix(1,0,0,1,72,12)" />
</clipPath>
<g  clip-path="url(#clip29)" 
>
<g fill="#9900ff" fill-opacity="1" stroke="none" transform="matrix(1,0,0,1,72,12)"
font-family="Montserrat" font-size="12" font-weight="700" font-style="normal" 
>
</g>
</g>

<g  clip-path="url(#clip29)" 
>
<g fill="none" stroke="#f5f5f5" stroke-opacity="1" stroke-width="1" stroke-linecap="square" stroke-linejoin="bevel" transform="matrix(1,0,0,1,72,12)"
font-family="Montserrat" font-size="12" font-weight="700" font-style="normal" 
>
<polyline fill="none" vector-effect="none" points="0,956 916,956 " />
<polyline fill="none" vector-effect="none" points="0,0 0,956 " />
</g>
</g>

<clipPath id ="clip30" >
<rect x="0" y="0" height="957" width="917" transform="matrix(1,0,0,1,72,12)" />
</clipPath>
<g  clip-path="url(#clip30)" 
>
<g fill="none" stroke="#f5f5f5" stroke-opacity="1" stroke-width="1" stroke-linecap="square" stroke-linejoin="bevel" transform="matrix(1,0,0,1,72,12)"
font-family="Montserrat" font-size="12" font-weight="700" font-style="normal" 
>
</g>
</g>

<g >
<g fill="none" stroke="#f5f5f5" stroke-opacity="1" stroke-width="1" stroke-linecap="square" stroke-linejoin="bevel" transform="matrix(1,0,0,1,72,12)"
font-family="Montserrat" font-size="12" font-weight="700" font-style="normal" 
>
</g>
</g>
</g>
</svg>
