<?xml version="1.0" encoding="UTF-8" standalone="no"?>
<svg width="264.848mm" height="264.848mm"
 xmlns="http://www.w3.org/2000/svg" xmlns:xlink="http://www.w3.org/1999/xlink"  version="1.2" baseProfile="tiny">
<title>notices_barplot</title>
<desc>Rendered by Tableau</desc>
<defs>
</defs>
<g fill="none" stroke="black" stroke-width="1" fill-rule="evenodd" stroke-linecap="square" stroke-linejoin="bevel" >

<g >
<g fill="#ffffff" fill-opacity="1" stroke="none" transform="matrix(1,0,0,1,0,0)"
font-family="Benton Sans Book" font-size="16" font-weight="400" font-style="normal" 
>
<rect x="0" y="0" width="1001" height="1001"/>
</g>
</g>

<g >
<g fill="#fff8f6" fill-opacity="1" stroke="none" transform="matrix(1,0,0,1,12,12)"
font-family="Benton Sans Book" font-size="16" font-weight="400" font-style="normal" 
>
<rect x="0" y="0" width="976" height="976"/>
</g>
</g>

<clipPath id ="clip1" >
<rect x="-1" y="-1" height="42" width="978" transform="matrix(1,0,0,1,12,948)" />
</clipPath>
<g  clip-path="url(#clip1)" 
>
<g fill="none" stroke="#000000" stroke-opacity="1" stroke-width="1" stroke-linecap="square" stroke-linejoin="bevel" transform="matrix(1,0,0,1,12,948)"
font-family="Benton Sans Book" font-size="16" font-weight="400" font-style="normal" 
>
</g>
</g>

<g  clip-path="url(#clip1)" 
>
<g fill="none" stroke="#000000" stroke-opacity="0" stroke-width="1" stroke-linecap="butt" stroke-linejoin="bevel" transform="matrix(1,0,0,1,12,948)"
font-family="Benton Sans Book" font-size="16" font-weight="400" font-style="normal" 
>
<polyline fill="none" vector-effect="none" points="0,0 0,5 " />
<polyline fill="none" vector-effect="none" points="65,0 65,5 " />
<polyline fill="none" vector-effect="none" points="130,0 130,5 " />
<polyline fill="none" vector-effect="none" points="195,0 195,5 " />
<polyline fill="none" vector-effect="none" points="260,0 260,5 " />
<polyline fill="none" vector-effect="none" points="325,0 325,5 " />
<polyline fill="none" vector-effect="none" points="390,0 390,5 " />
<polyline fill="none" vector-effect="none" points="455,0 455,5 " />
<polyline fill="none" vector-effect="none" points="520,0 520,5 " />
<polyline fill="none" vector-effect="none" points="585,0 585,5 " />
<polyline fill="none" vector-effect="none" points="650,0 650,5 " />
<polyline fill="none" vector-effect="none" points="715,0 715,5 " />
<polyline fill="none" vector-effect="none" points="780,0 780,5 " />
<polyline fill="none" vector-effect="none" points="845,0 845,5 " />
<polyline fill="none" vector-effect="none" points="910,0 910,5 " />
<polyline fill="none" vector-effect="none" points="976,0 976,5 " />
</g>
</g>

<g  clip-path="url(#clip1)" 
>
<g fill="none" stroke="#000000" stroke-opacity="0" stroke-width="1" stroke-linecap="butt" stroke-linejoin="bevel" transform="matrix(1,0,0,1,12,948)"
font-family="Benton Sans Book" font-size="16" font-weight="400" font-style="normal" 
>
</g>
</g>

<g  clip-path="url(#clip1)" 
>
<g fill="none" stroke="#666666" stroke-opacity="1" stroke-width="1" stroke-linecap="square" stroke-linejoin="bevel" transform="matrix(1,0,0,1,12,948)"
font-family="Montserrat" font-size="9" font-weight="700" font-style="normal" 
>
<text fill="#666666" fill-opacity="1" stroke="none" xml:space="preserve" x="25.0938" y="13" font-family="Montserrat" font-size="9" font-weight="700" font-style="normal" 
 >TF1</text>
</g>
</g>

<g  clip-path="url(#clip1)" 
>
<g fill="none" stroke="#666666" stroke-opacity="1" stroke-width="1" stroke-linecap="square" stroke-linejoin="bevel" transform="matrix(1,0,0,1,12,948)"
font-family="Montserrat" font-size="9" font-weight="700" font-style="normal" 
>
<text fill="#666666" fill-opacity="1" stroke="none" xml:space="preserve" x="77.8906" y="13" font-family="Montserrat" font-size="9" font-weight="700" font-style="normal" 
 >France 2</text>
</g>
</g>

<g  clip-path="url(#clip1)" 
>
<g fill="none" stroke="#666666" stroke-opacity="1" stroke-width="1" stroke-linecap="square" stroke-linejoin="bevel" transform="matrix(1,0,0,1,12,948)"
font-family="Montserrat" font-size="9" font-weight="700" font-style="normal" 
>
<text fill="#666666" fill-opacity="1" stroke="none" xml:space="preserve" x="142.875" y="13" font-family="Montserrat" font-size="9" font-weight="700" font-style="normal" 
 >France 3</text>
</g>
</g>

<g  clip-path="url(#clip1)" 
>
<g fill="none" stroke="#666666" stroke-opacity="1" stroke-width="1" stroke-linecap="square" stroke-linejoin="bevel" transform="matrix(1,0,0,1,12,948)"
font-family="Montserrat" font-size="9" font-weight="700" font-style="normal" 
>
<text fill="#666666" fill-opacity="1" stroke="none" xml:space="preserve" x="220.844" y="13" font-family="Montserrat" font-size="9" font-weight="700" font-style="normal" 
 >M6</text>
</g>
</g>

<g  clip-path="url(#clip1)" 
>
<g fill="none" stroke="#666666" stroke-opacity="1" stroke-width="1" stroke-linecap="square" stroke-linejoin="bevel" transform="matrix(1,0,0,1,12,948)"
font-family="Montserrat" font-size="9" font-weight="700" font-style="normal" 
>
<text fill="#666666" fill-opacity="1" stroke="none" xml:space="preserve" x="272.859" y="13" font-family="Montserrat" font-size="9" font-weight="700" font-style="normal" 
 >France 5</text>
</g>
</g>

<g  clip-path="url(#clip1)" 
>
<g fill="none" stroke="#666666" stroke-opacity="1" stroke-width="1" stroke-linecap="square" stroke-linejoin="bevel" transform="matrix(1,0,0,1,12,948)"
font-family="Montserrat" font-size="9" font-weight="700" font-style="normal" 
>
<text fill="#666666" fill-opacity="1" stroke="none" xml:space="preserve" x="349.906" y="13" font-family="Montserrat" font-size="9" font-weight="700" font-style="normal" 
 >W9</text>
</g>
</g>

<g  clip-path="url(#clip1)" 
>
<g fill="none" stroke="#666666" stroke-opacity="1" stroke-width="1" stroke-linecap="square" stroke-linejoin="bevel" transform="matrix(1,0,0,1,12,948)"
font-family="Montserrat" font-size="9" font-weight="700" font-style="normal" 
>
<text fill="#666666" fill-opacity="1" stroke="none" xml:space="preserve" x="394.281" y="13" font-family="Montserrat" font-size="9" font-weight="700" font-style="normal" 
 >Monte Carlo</text>
</g>
</g>

<g  clip-path="url(#clip1)" 
>
<g fill="none" stroke="#666666" stroke-opacity="1" stroke-width="1" stroke-linecap="square" stroke-linejoin="bevel" transform="matrix(1,0,0,1,12,948)"
font-family="Montserrat" font-size="9" font-weight="700" font-style="normal" 
>
<text fill="#666666" fill-opacity="1" stroke="none" xml:space="preserve" x="412.625" y="24" font-family="Montserrat" font-size="9" font-weight="700" font-style="normal" 
 >TMC</text>
</g>
</g>

<g  clip-path="url(#clip1)" 
>
<g fill="none" stroke="#666666" stroke-opacity="1" stroke-width="1" stroke-linecap="square" stroke-linejoin="bevel" transform="matrix(1,0,0,1,12,948)"
font-family="Montserrat" font-size="9" font-weight="700" font-style="normal" 
>
<text fill="#666666" fill-opacity="1" stroke="none" xml:space="preserve" x="482.516" y="13" font-family="Montserrat" font-size="9" font-weight="700" font-style="normal" 
 >La</text>
</g>
</g>

<g  clip-path="url(#clip1)" 
>
<g fill="none" stroke="#666666" stroke-opacity="1" stroke-width="1" stroke-linecap="square" stroke-linejoin="bevel" transform="matrix(1,0,0,1,12,948)"
font-family="Montserrat" font-size="9" font-weight="700" font-style="normal" 
>
<text fill="#666666" fill-opacity="1" stroke="none" xml:space="preserve" x="462.313" y="24" font-family="Montserrat" font-size="9" font-weight="700" font-style="normal" 
 >Cinquième</text>
</g>
</g>

<g  clip-path="url(#clip1)" 
>
<g fill="none" stroke="#666666" stroke-opacity="1" stroke-width="1" stroke-linecap="square" stroke-linejoin="bevel" transform="matrix(1,0,0,1,12,948)"
font-family="Montserrat" font-size="9" font-weight="700" font-style="normal" 
>
<text fill="#666666" fill-opacity="1" stroke="none" xml:space="preserve" x="540.453" y="13" font-family="Montserrat" font-size="9" font-weight="700" font-style="normal" 
 >ARTE</text>
</g>
</g>

<g  clip-path="url(#clip1)" 
>
<g fill="none" stroke="#666666" stroke-opacity="1" stroke-width="1" stroke-linecap="square" stroke-linejoin="bevel" transform="matrix(1,0,0,1,12,948)"
font-family="Montserrat" font-size="9" font-weight="700" font-style="normal" 
>
<text fill="#666666" fill-opacity="1" stroke="none" xml:space="preserve" x="611.734" y="13" font-family="Montserrat" font-size="9" font-weight="700" font-style="normal" 
 >C8</text>
</g>
</g>

<g  clip-path="url(#clip1)" 
>
<g fill="none" stroke="#666666" stroke-opacity="1" stroke-width="1" stroke-linecap="square" stroke-linejoin="bevel" transform="matrix(1,0,0,1,12,948)"
font-family="Montserrat" font-size="9" font-weight="700" font-style="normal" 
>
<text fill="#666666" fill-opacity="1" stroke="none" xml:space="preserve" x="660.109" y="13" font-family="Montserrat" font-size="9" font-weight="700" font-style="normal" 
 >TF1 Séries</text>
</g>
</g>

<g  clip-path="url(#clip1)" 
>
<g fill="none" stroke="#666666" stroke-opacity="1" stroke-width="1" stroke-linecap="square" stroke-linejoin="bevel" transform="matrix(1,0,0,1,12,948)"
font-family="Montserrat" font-size="9" font-weight="700" font-style="normal" 
>
<text fill="#666666" fill-opacity="1" stroke="none" xml:space="preserve" x="670.313" y="24" font-family="Montserrat" font-size="9" font-weight="700" font-style="normal" 
 >Films</text>
</g>
</g>

<g  clip-path="url(#clip1)" 
>
<g fill="none" stroke="#666666" stroke-opacity="1" stroke-width="1" stroke-linecap="square" stroke-linejoin="bevel" transform="matrix(1,0,0,1,12,948)"
font-family="Montserrat" font-size="9" font-weight="700" font-style="normal" 
>
<text fill="#666666" fill-opacity="1" stroke="none" xml:space="preserve" x="732.953" y="13" font-family="Montserrat" font-size="9" font-weight="700" font-style="normal" 
 >NRJ 12</text>
</g>
</g>

<g  clip-path="url(#clip1)" 
>
<g fill="none" stroke="#666666" stroke-opacity="1" stroke-width="1" stroke-linecap="square" stroke-linejoin="bevel" transform="matrix(1,0,0,1,12,948)"
font-family="Montserrat" font-size="9" font-weight="700" font-style="normal" 
>
<text fill="#666666" fill-opacity="1" stroke="none" xml:space="preserve" x="802.891" y="13" font-family="Montserrat" font-size="9" font-weight="700" font-style="normal" 
 >Gulli</text>
</g>
</g>

<g  clip-path="url(#clip1)" 
>
<g fill="none" stroke="#666666" stroke-opacity="1" stroke-width="1" stroke-linecap="square" stroke-linejoin="bevel" transform="matrix(1,0,0,1,12,948)"
font-family="Montserrat" font-size="9" font-weight="700" font-style="normal" 
>
<text fill="#666666" fill-opacity="1" stroke="none" xml:space="preserve" x="861.219" y="13" font-family="Montserrat" font-size="9" font-weight="700" font-style="normal" 
 >Canal +</text>
</g>
</g>

<g  clip-path="url(#clip1)" 
>
<g fill="none" stroke="#666666" stroke-opacity="1" stroke-width="1" stroke-linecap="square" stroke-linejoin="bevel" transform="matrix(1,0,0,1,12,948)"
font-family="Montserrat" font-size="9" font-weight="700" font-style="normal" 
>
<text fill="#666666" fill-opacity="1" stroke="none" xml:space="preserve" x="932.594" y="13" font-family="Montserrat" font-size="9" font-weight="700" font-style="normal" 
 >RMC</text>
</g>
</g>

<g  clip-path="url(#clip1)" 
>
<g fill="none" stroke="#666666" stroke-opacity="1" stroke-width="1" stroke-linecap="square" stroke-linejoin="bevel" transform="matrix(1,0,0,1,12,948)"
font-family="Montserrat" font-size="9" font-weight="700" font-style="normal" 
>
<text fill="#666666" fill-opacity="1" stroke="none" xml:space="preserve" x="916.016" y="24" font-family="Montserrat" font-size="9" font-weight="700" font-style="normal" 
 >Découverte</text>
</g>
</g>

<g  clip-path="url(#clip1)" 
>
<g fill="none" stroke="#666666" stroke-opacity="1" stroke-width="1" stroke-linecap="square" stroke-linejoin="bevel" transform="matrix(1,0,0,1,12,948)"
font-family="Montserrat" font-size="9" font-weight="700" font-style="normal" 
>
<text fill="#666666" fill-opacity="1" stroke="none" xml:space="preserve" x="929.141" y="35" font-family="Montserrat" font-size="9" font-weight="700" font-style="normal" 
 >HD 24</text>
</g>
</g>

<g >
<g fill="none" stroke="#666666" stroke-opacity="1" stroke-width="1" stroke-linecap="square" stroke-linejoin="bevel" transform="matrix(1,0,0,1,12,948)"
font-family="Montserrat" font-size="9" font-weight="700" font-style="normal" 
>
</g>
</g>

<g  clip-path="url(#clip1)" 
>
<g fill="none" stroke="#666666" stroke-opacity="1" stroke-width="1" stroke-linecap="square" stroke-linejoin="bevel" transform="matrix(1,0,0,1,12,12)"
font-family="Montserrat" font-size="9" font-weight="700" font-style="normal" 
>
</g>
</g>

<clipPath id ="clip2" >
<rect x="0" y="0" height="937" width="977" transform="matrix(1,0,0,1,12,12)" />
</clipPath>
<g  clip-path="url(#clip2)" 
>
<g fill="none" stroke="#666666" stroke-opacity="1" stroke-width="1" stroke-linecap="square" stroke-linejoin="bevel" transform="matrix(1,0,0,1,12,12)"
font-family="Montserrat" font-size="9" font-weight="700" font-style="normal" 
>
</g>
</g>

<clipPath id ="clip3" >
<rect x="0" y="0" height="937" width="977" transform="matrix(1,0,0,1,12,12)" />
</clipPath>
<g  clip-path="url(#clip3)" 
>
<g fill="none" stroke="#666666" stroke-opacity="1" stroke-width="1" stroke-linecap="square" stroke-linejoin="bevel" transform="matrix(1,0,0,1,12,12)"
font-family="Montserrat" font-size="9" font-weight="700" font-style="normal" 
>
</g>
</g>

<g  clip-path="url(#clip3)" 
>
<g fill="#fff8f6" fill-opacity="1" stroke="none" transform="matrix(1,0,0,1,12,12)"
font-family="Montserrat" font-size="9" font-weight="700" font-style="normal" 
>
<rect x="0" y="0" width="977" height="937"/>
</g>
</g>

<g  clip-path="url(#clip3)" 
>
<g fill="#fff8f6" fill-opacity="1" stroke="none" transform="matrix(1,0,0,1,12,12)"
font-family="Montserrat" font-size="9" font-weight="700" font-style="normal" 
>
<rect x="0" y="0" width="977" height="937"/>
</g>
</g>

<clipPath id ="clip4" >
<rect x="0" y="0" height="937" width="976" transform="matrix(1,0,0,1,12,12)" />
</clipPath>
<g  clip-path="url(#clip4)" 
>
<g fill="none" stroke="#666666" stroke-opacity="1" stroke-width="1" stroke-linecap="square" stroke-linejoin="bevel" transform="matrix(1,0,0,1,12,12)"
font-family="Montserrat" font-size="9" font-weight="700" font-style="normal" 
>
</g>
</g>

<g  clip-path="url(#clip4)" 
>
<g fill="#fff8f6" fill-opacity="1" stroke="none" transform="matrix(1,0,0,1,12,12)"
font-family="Montserrat" font-size="9" font-weight="700" font-style="normal" 
>
<rect x="0" y="0" width="977" height="937"/>
</g>
</g>

<clipPath id ="clip5" >
<rect x="0" y="0" height="937" width="977" transform="matrix(1,0,0,1,12,12)" />
</clipPath>
<g  clip-path="url(#clip5)" 
>
<g fill="none" stroke="#666666" stroke-opacity="1" stroke-width="1" stroke-linecap="square" stroke-linejoin="bevel" transform="matrix(1,0,0,1,12,12)"
font-family="Montserrat" font-size="9" font-weight="700" font-style="normal" 
>
</g>
</g>

<clipPath id ="clip6" >
<rect x="0" y="0" height="937" width="977" transform="matrix(1,0,0,1,12,12)" />
</clipPath>
<g  clip-path="url(#clip6)" 
>
<g fill="none" stroke="#666666" stroke-opacity="1" stroke-width="1" stroke-linecap="square" stroke-linejoin="bevel" transform="matrix(1,0,0,1,12,12)"
font-family="Montserrat" font-size="9" font-weight="700" font-style="normal" 
>
</g>
</g>

<clipPath id ="clip7" >
<rect x="0" y="0" height="937" width="977" transform="matrix(1,0,0,1,12,12)" />
</clipPath>
<g  clip-path="url(#clip7)" 
>
<g fill="none" stroke="#666666" stroke-opacity="1" stroke-width="1" stroke-linecap="square" stroke-linejoin="bevel" transform="matrix(1,0,0,1,12,12)"
font-family="Montserrat" font-size="9" font-weight="700" font-style="normal" 
>
</g>
</g>

<clipPath id ="clip8" >
<rect x="0" y="0" height="937" width="977" transform="matrix(1,0,0,1,12,12)" />
</clipPath>
<g  clip-path="url(#clip8)" 
>
<g fill="none" stroke="#666666" stroke-opacity="1" stroke-width="1" stroke-linecap="square" stroke-linejoin="bevel" transform="matrix(1,0,0,1,12,12)"
font-family="Montserrat" font-size="9" font-weight="700" font-style="normal" 
>
</g>
</g>

<g  clip-path="url(#clip8)" 
>
<g fill="#fff8f6" fill-opacity="1" stroke="none" transform="matrix(1,0,0,1,12,12)"
font-family="Montserrat" font-size="9" font-weight="700" font-style="normal" 
>
<rect x="0" y="0" width="977" height="937"/>
</g>
</g>

<clipPath id ="clip9" >
<rect x="0" y="0" height="937" width="977" transform="matrix(1,0,0,1,12,12)" />
</clipPath>
<g  clip-path="url(#clip9)" 
>
<g fill="none" stroke="#666666" stroke-opacity="1" stroke-width="1" stroke-linecap="square" stroke-linejoin="bevel" transform="matrix(1,0,0,1,12,12)"
font-family="Montserrat" font-size="9" font-weight="700" font-style="normal" 
>
</g>
</g>

<clipPath id ="clip10" >
<rect x="0" y="0" height="936" width="976" transform="matrix(1,0,0,1,12,12)" />
</clipPath>
<g  clip-path="url(#clip10)" 
>
<g fill="none" stroke="#666666" stroke-opacity="1" stroke-width="1" stroke-linecap="square" stroke-linejoin="bevel" transform="matrix(1,0,0,1,12,12)"
font-family="Montserrat" font-size="9" font-weight="700" font-style="normal" 
>
</g>
</g>

<clipPath id ="clip11" >
<rect x="0" y="0" height="937" width="977" transform="matrix(1,0,0,1,12,12)" />
</clipPath>
<g  clip-path="url(#clip11)" 
>
<g fill="none" stroke="#666666" stroke-opacity="1" stroke-width="1" stroke-linecap="square" stroke-linejoin="bevel" transform="matrix(1,0,0,1,12,12)"
font-family="Montserrat" font-size="9" font-weight="700" font-style="normal" 
>
</g>
</g>

<clipPath id ="clip12" >
<rect x="0" y="0" height="936" width="976" transform="matrix(1,0,0,1,12,12)" />
</clipPath>
<g  clip-path="url(#clip12)" 
>
<g fill="none" stroke="#666666" stroke-opacity="1" stroke-width="1" stroke-linecap="square" stroke-linejoin="bevel" transform="matrix(1,0,0,1,12,12)"
font-family="Montserrat" font-size="9" font-weight="700" font-style="normal" 
>
</g>
</g>

<clipPath id ="clip13" >
<rect x="0" y="0" height="937" width="977" transform="matrix(1,0,0,1,12,12)" />
</clipPath>
<g  clip-path="url(#clip13)" 
>
<g fill="none" stroke="#666666" stroke-opacity="1" stroke-width="1" stroke-linecap="square" stroke-linejoin="bevel" transform="matrix(1,0,0,1,12,12)"
font-family="Montserrat" font-size="9" font-weight="700" font-style="normal" 
>
</g>
</g>

<clipPath id ="clip14" >
<rect x="0" y="0" height="937" width="977" transform="matrix(1,0,0,1,12,12)" />
</clipPath>
<g  clip-path="url(#clip14)" 
>
<g fill="none" stroke="#666666" stroke-opacity="1" stroke-width="1" stroke-linecap="square" stroke-linejoin="bevel" transform="matrix(1,0,0,1,12,12)"
font-family="Montserrat" font-size="9" font-weight="700" font-style="normal" 
>
</g>
</g>

<clipPath id ="clip15" >
<rect x="0" y="0" height="936" width="976" transform="matrix(1,0,0,1,12,12)" />
</clipPath>
<g  clip-path="url(#clip15)" 
>
<g fill="none" stroke="#666666" stroke-opacity="1" stroke-width="1" stroke-linecap="square" stroke-linejoin="bevel" transform="matrix(1,0,0,1,12,12)"
font-family="Montserrat" font-size="9" font-weight="700" font-style="normal" 
>
</g>
</g>

<g  clip-path="url(#clip15)" 
>
<g fill="#00ff00" fill-opacity="1" stroke="none" transform="matrix(1,0,0,1,12,12)"
font-family="Montserrat" font-size="9" font-weight="700" font-style="normal" 
>
<rect x="789" y="879" width="49" height="57"/>
</g>
</g>

<g  clip-path="url(#clip15)" 
>
<g fill="#9900ff" fill-opacity="1" stroke="none" transform="matrix(1,0,0,1,12,12)"
font-family="Montserrat" font-size="9" font-weight="700" font-style="normal" 
>
<rect x="854" y="879" width="49" height="57"/>
</g>
</g>

<g  clip-path="url(#clip15)" 
>
<g fill="#9900ff" fill-opacity="1" stroke="none" transform="matrix(1,0,0,1,12,12)"
font-family="Montserrat" font-size="9" font-weight="700" font-style="normal" 
>
<rect x="659" y="879" width="49" height="57"/>
</g>
</g>

<g  clip-path="url(#clip15)" 
>
<g fill="#9900ff" fill-opacity="1" stroke="none" transform="matrix(1,0,0,1,12,12)"
font-family="Montserrat" font-size="9" font-weight="700" font-style="normal" 
>
<rect x="333" y="807" width="49" height="129"/>
</g>
</g>

<g  clip-path="url(#clip15)" 
>
<g fill="#9900ff" fill-opacity="1" stroke="none" transform="matrix(1,0,0,1,12,12)"
font-family="Montserrat" font-size="9" font-weight="700" font-style="normal" 
>
<rect x="203" y="630" width="49" height="306"/>
</g>
</g>

<g  clip-path="url(#clip15)" 
>
<g fill="#9900ff" fill-opacity="1" stroke="none" transform="matrix(1,0,0,1,12,12)"
font-family="Montserrat" font-size="9" font-weight="700" font-style="normal" 
>
<rect x="138" y="606" width="49" height="330"/>
</g>
</g>

<g  clip-path="url(#clip15)" 
>
<g fill="#9900ff" fill-opacity="1" stroke="none" transform="matrix(1,0,0,1,12,12)"
font-family="Montserrat" font-size="9" font-weight="700" font-style="normal" 
>
<rect x="73" y="533" width="49" height="403"/>
</g>
</g>

<g  clip-path="url(#clip15)" 
>
<g fill="#9900ff" fill-opacity="1" stroke="none" transform="matrix(1,0,0,1,12,12)"
font-family="Montserrat" font-size="9" font-weight="700" font-style="normal" 
>
<rect x="8" y="59" width="49" height="877"/>
</g>
</g>

<g  clip-path="url(#clip15)" 
>
<g fill="#9900ff" fill-opacity="1" stroke="none" transform="matrix(1,0,0,1,12,12)"
font-family="Montserrat" font-size="9" font-weight="700" font-style="normal" 
>
<rect x="919" y="895" width="49" height="41"/>
</g>
</g>

<g  clip-path="url(#clip15)" 
>
<g fill="#000000" fill-opacity="1" stroke="none" transform="matrix(1,0,0,1,12,12)"
font-family="Montserrat" font-size="9" font-weight="700" font-style="normal" 
>
<rect x="724" y="879" width="49" height="57"/>
</g>
</g>

<g  clip-path="url(#clip15)" 
>
<g fill="#000000" fill-opacity="1" stroke="none" transform="matrix(1,0,0,1,12,12)"
font-family="Montserrat" font-size="9" font-weight="700" font-style="normal" 
>
<rect x="594" y="870" width="49" height="66"/>
</g>
</g>

<g  clip-path="url(#clip15)" 
>
<g fill="#000000" fill-opacity="1" stroke="none" transform="matrix(1,0,0,1,12,12)"
font-family="Montserrat" font-size="9" font-weight="700" font-style="normal" 
>
<rect x="398" y="820" width="49" height="116"/>
</g>
</g>

<g  clip-path="url(#clip15)" 
>
<g fill="#003366" fill-opacity="1" stroke="none" transform="matrix(1,0,0,1,12,12)"
font-family="Montserrat" font-size="9" font-weight="700" font-style="normal" 
>
<rect x="529" y="846" width="49" height="90"/>
</g>
</g>

<g  clip-path="url(#clip15)" 
>
<g fill="#003366" fill-opacity="1" stroke="none" transform="matrix(1,0,0,1,12,12)"
font-family="Montserrat" font-size="9" font-weight="700" font-style="normal" 
>
<rect x="464" y="822" width="49" height="114"/>
</g>
</g>

<g  clip-path="url(#clip15)" 
>
<g fill="#003366" fill-opacity="1" stroke="none" transform="matrix(1,0,0,1,12,12)"
font-family="Montserrat" font-size="9" font-weight="700" font-style="normal" 
>
<rect x="268" y="789" width="49" height="147"/>
</g>
</g>

<clipPath id ="clip16" >
<rect x="0" y="0" height="937" width="977" transform="matrix(1,0,0,1,12,12)" />
</clipPath>
<g  clip-path="url(#clip16)" 
>
<g fill="#003366" fill-opacity="1" stroke="none" transform="matrix(1,0,0,1,12,12)"
font-family="Montserrat" font-size="9" font-weight="700" font-style="normal" 
>
</g>
</g>

<clipPath id ="clip17" >
<rect x="0" y="0" height="936" width="976" transform="matrix(1,0,0,1,12,12)" />
</clipPath>
<g  clip-path="url(#clip17)" 
>
<g fill="#003366" fill-opacity="1" stroke="none" transform="matrix(1,0,0,1,12,12)"
font-family="Montserrat" font-size="9" font-weight="700" font-style="normal" 
>
</g>
</g>

<g  clip-path="url(#clip17)" 
>
<g fill="none" stroke="#555555" stroke-opacity="1" stroke-width="1" stroke-linecap="square" stroke-linejoin="bevel" transform="matrix(1,0,0,1,12,12)"
font-family="Montserrat" font-size="12" font-weight="700" font-style="normal" 
>
<text fill="#555555" fill-opacity="1" stroke="none" xml:space="preserve" x="15" y="53" font-family="Montserrat" font-size="12" font-weight="700" font-style="normal" 
 >29,20</text>
</g>
</g>

<g  clip-path="url(#clip17)" 
>
<g fill="none" stroke="#555555" stroke-opacity="1" stroke-width="1" stroke-linecap="square" stroke-linejoin="bevel" transform="matrix(1,0,0,1,12,12)"
font-family="Montserrat" font-size="12" font-weight="700" font-style="normal" 
>
<text fill="#555555" fill-opacity="1" stroke="none" xml:space="preserve" x="81" y="527" font-family="Montserrat" font-size="12" font-weight="700" font-style="normal" 
 >13,40</text>
</g>
</g>

<g  clip-path="url(#clip17)" 
>
<g fill="none" stroke="#555555" stroke-opacity="1" stroke-width="1" stroke-linecap="square" stroke-linejoin="bevel" transform="matrix(1,0,0,1,12,12)"
font-family="Montserrat" font-size="12" font-weight="700" font-style="normal" 
>
<text fill="#555555" fill-opacity="1" stroke="none" xml:space="preserve" x="211" y="624" font-family="Montserrat" font-size="12" font-weight="700" font-style="normal" 
 >10,20</text>
</g>
</g>

<g  clip-path="url(#clip17)" 
>
<g fill="none" stroke="#555555" stroke-opacity="1" stroke-width="1" stroke-linecap="square" stroke-linejoin="bevel" transform="matrix(1,0,0,1,12,12)"
font-family="Montserrat" font-size="12" font-weight="700" font-style="normal" 
>
<text fill="#555555" fill-opacity="1" stroke="none" xml:space="preserve" x="148" y="600" font-family="Montserrat" font-size="12" font-weight="700" font-style="normal" 
 >11,00</text>
</g>
</g>

<g  clip-path="url(#clip17)" 
>
<g fill="none" stroke="#555555" stroke-opacity="1" stroke-width="1" stroke-linecap="square" stroke-linejoin="bevel" transform="matrix(1,0,0,1,12,12)"
font-family="Montserrat" font-size="12" font-weight="700" font-style="normal" 
>
<text fill="#555555" fill-opacity="1" stroke="none" xml:space="preserve" x="278" y="783" font-family="Montserrat" font-size="12" font-weight="700" font-style="normal" 
 >4,90</text>
</g>
</g>

<g  clip-path="url(#clip17)" 
>
<g fill="none" stroke="#555555" stroke-opacity="1" stroke-width="1" stroke-linecap="square" stroke-linejoin="bevel" transform="matrix(1,0,0,1,12,12)"
font-family="Montserrat" font-size="12" font-weight="700" font-style="normal" 
>
<text fill="#555555" fill-opacity="1" stroke="none" xml:space="preserve" x="344" y="801" font-family="Montserrat" font-size="12" font-weight="700" font-style="normal" 
 >4,30</text>
</g>
</g>

<g  clip-path="url(#clip17)" 
>
<g fill="none" stroke="#555555" stroke-opacity="1" stroke-width="1" stroke-linecap="square" stroke-linejoin="bevel" transform="matrix(1,0,0,1,12,12)"
font-family="Montserrat" font-size="12" font-weight="700" font-style="normal" 
>
<text fill="#555555" fill-opacity="1" stroke="none" xml:space="preserve" x="540" y="840" font-family="Montserrat" font-size="12" font-weight="700" font-style="normal" 
 >3,00</text>
</g>
</g>

<g  clip-path="url(#clip17)" 
>
<g fill="none" stroke="#555555" stroke-opacity="1" stroke-width="1" stroke-linecap="square" stroke-linejoin="bevel" transform="matrix(1,0,0,1,12,12)"
font-family="Montserrat" font-size="12" font-weight="700" font-style="normal" 
>
<text fill="#555555" fill-opacity="1" stroke="none" xml:space="preserve" x="475" y="816" font-family="Montserrat" font-size="12" font-weight="700" font-style="normal" 
 >3,80</text>
</g>
</g>

<g  clip-path="url(#clip17)" 
>
<g fill="none" stroke="#555555" stroke-opacity="1" stroke-width="1" stroke-linecap="square" stroke-linejoin="bevel" transform="matrix(1,0,0,1,12,12)"
font-family="Montserrat" font-size="12" font-weight="700" font-style="normal" 
>
<text fill="#555555" fill-opacity="1" stroke="none" xml:space="preserve" x="605" y="864" font-family="Montserrat" font-size="12" font-weight="700" font-style="normal" 
 >2,20</text>
</g>
</g>

<g  clip-path="url(#clip17)" 
>
<g fill="none" stroke="#555555" stroke-opacity="1" stroke-width="1" stroke-linecap="square" stroke-linejoin="bevel" transform="matrix(1,0,0,1,12,12)"
font-family="Montserrat" font-size="12" font-weight="700" font-style="normal" 
>
<text fill="#555555" fill-opacity="1" stroke="none" xml:space="preserve" x="409" y="814" font-family="Montserrat" font-size="12" font-weight="700" font-style="normal" 
 >3,85</text>
</g>
</g>

<g  clip-path="url(#clip17)" 
>
<g fill="none" stroke="#555555" stroke-opacity="1" stroke-width="1" stroke-linecap="square" stroke-linejoin="bevel" transform="matrix(1,0,0,1,12,12)"
font-family="Montserrat" font-size="12" font-weight="700" font-style="normal" 
>
<text fill="#555555" fill-opacity="1" stroke="none" xml:space="preserve" x="736" y="873" font-family="Montserrat" font-size="12" font-weight="700" font-style="normal" 
 >1,90</text>
</g>
</g>

<g  clip-path="url(#clip17)" 
>
<g fill="none" stroke="#555555" stroke-opacity="1" stroke-width="1" stroke-linecap="square" stroke-linejoin="bevel" transform="matrix(1,0,0,1,12,12)"
font-family="Montserrat" font-size="12" font-weight="700" font-style="normal" 
>
<text fill="#555555" fill-opacity="1" stroke="none" xml:space="preserve" x="801" y="873" font-family="Montserrat" font-size="12" font-weight="700" font-style="normal" 
 >1,90</text>
</g>
</g>

<g  clip-path="url(#clip17)" 
>
<g fill="none" stroke="#555555" stroke-opacity="1" stroke-width="1" stroke-linecap="square" stroke-linejoin="bevel" transform="matrix(1,0,0,1,12,12)"
font-family="Montserrat" font-size="12" font-weight="700" font-style="normal" 
>
<text fill="#555555" fill-opacity="1" stroke="none" xml:space="preserve" x="671" y="873" font-family="Montserrat" font-size="12" font-weight="700" font-style="normal" 
 >1,90</text>
</g>
</g>

<g  clip-path="url(#clip17)" 
>
<g fill="none" stroke="#555555" stroke-opacity="1" stroke-width="1" stroke-linecap="square" stroke-linejoin="bevel" transform="matrix(1,0,0,1,12,12)"
font-family="Montserrat" font-size="12" font-weight="700" font-style="normal" 
>
<text fill="#555555" fill-opacity="1" stroke="none" xml:space="preserve" x="866" y="873" font-family="Montserrat" font-size="12" font-weight="700" font-style="normal" 
 >1,90</text>
</g>
</g>

<g  clip-path="url(#clip17)" 
>
<g fill="none" stroke="#555555" stroke-opacity="1" stroke-width="1" stroke-linecap="square" stroke-linejoin="bevel" transform="matrix(1,0,0,1,12,12)"
font-family="Montserrat" font-size="12" font-weight="700" font-style="normal" 
>
<text fill="#555555" fill-opacity="1" stroke="none" xml:space="preserve" x="932" y="889" font-family="Montserrat" font-size="12" font-weight="700" font-style="normal" 
 >1,35</text>
</g>
</g>

<clipPath id ="clip18" >
<rect x="0" y="0" height="937" width="977" transform="matrix(1,0,0,1,12,12)" />
</clipPath>
<g  clip-path="url(#clip18)" 
>
<g fill="none" stroke="#555555" stroke-opacity="1" stroke-width="1" stroke-linecap="square" stroke-linejoin="bevel" transform="matrix(1,0,0,1,12,12)"
font-family="Montserrat" font-size="12" font-weight="700" font-style="normal" 
>
</g>
</g>

<clipPath id ="clip19" >
<rect x="0" y="0" height="937" width="977" transform="matrix(1,0,0,1,12,12)" />
</clipPath>
<g  clip-path="url(#clip19)" 
>
<g fill="none" stroke="#555555" stroke-opacity="1" stroke-width="1" stroke-linecap="square" stroke-linejoin="bevel" transform="matrix(1,0,0,1,12,12)"
font-family="Montserrat" font-size="12" font-weight="700" font-style="normal" 
>
</g>
</g>

<clipPath id ="clip20" >
<rect x="0" y="0" height="936" width="976" transform="matrix(1,0,0,1,12,12)" />
</clipPath>
<g  clip-path="url(#clip20)" 
>
<g fill="none" stroke="#555555" stroke-opacity="1" stroke-width="1" stroke-linecap="square" stroke-linejoin="bevel" transform="matrix(1,0,0,1,12,12)"
font-family="Montserrat" font-size="12" font-weight="700" font-style="normal" 
>
</g>
</g>

<clipPath id ="clip21" >
<rect x="0" y="0" height="937" width="977" transform="matrix(1,0,0,1,12,12)" />
</clipPath>
<g  clip-path="url(#clip21)" 
>
<g fill="none" stroke="#555555" stroke-opacity="1" stroke-width="1" stroke-linecap="square" stroke-linejoin="bevel" transform="matrix(1,0,0,1,12,12)"
font-family="Montserrat" font-size="12" font-weight="700" font-style="normal" 
>
</g>
</g>

<clipPath id ="clip22" >
<rect x="0" y="0" height="936" width="976" transform="matrix(1,0,0,1,12,12)" />
</clipPath>
<g  clip-path="url(#clip22)" 
>
<g fill="none" stroke="#555555" stroke-opacity="1" stroke-width="1" stroke-linecap="square" stroke-linejoin="bevel" transform="matrix(1,0,0,1,12,12)"
font-family="Montserrat" font-size="12" font-weight="700" font-style="normal" 
>
</g>
</g>

<clipPath id ="clip23" >
<rect x="0" y="0" height="937" width="977" transform="matrix(1,0,0,1,12,12)" />
</clipPath>
<g  clip-path="url(#clip23)" 
>
<g fill="none" stroke="#555555" stroke-opacity="1" stroke-width="1" stroke-linecap="square" stroke-linejoin="bevel" transform="matrix(1,0,0,1,12,12)"
font-family="Montserrat" font-size="12" font-weight="700" font-style="normal" 
>
</g>
</g>

<clipPath id ="clip24" >
<rect x="0" y="0" height="937" width="977" transform="matrix(1,0,0,1,12,12)" />
</clipPath>
<g  clip-path="url(#clip24)" 
>
<g fill="none" stroke="#555555" stroke-opacity="1" stroke-width="1" stroke-linecap="square" stroke-linejoin="bevel" transform="matrix(1,0,0,1,12,12)"
font-family="Montserrat" font-size="12" font-weight="700" font-style="normal" 
>
</g>
</g>

<clipPath id ="clip25" >
<rect x="0" y="0" height="936" width="976" transform="matrix(1,0,0,1,12,12)" />
</clipPath>
<g  clip-path="url(#clip25)" 
>
<g fill="none" stroke="#555555" stroke-opacity="1" stroke-width="1" stroke-linecap="square" stroke-linejoin="bevel" transform="matrix(1,0,0,1,12,12)"
font-family="Montserrat" font-size="12" font-weight="700" font-style="normal" 
>
</g>
</g>

<clipPath id ="clip26" >
<rect x="0" y="0" height="937" width="977" transform="matrix(1,0,0,1,12,12)" />
</clipPath>
<g  clip-path="url(#clip26)" 
>
<g fill="none" stroke="#555555" stroke-opacity="1" stroke-width="1" stroke-linecap="square" stroke-linejoin="bevel" transform="matrix(1,0,0,1,12,12)"
font-family="Montserrat" font-size="12" font-weight="700" font-style="normal" 
>
</g>
</g>

<clipPath id ="clip27" >
<rect x="0" y="0" height="936" width="976" transform="matrix(1,0,0,1,12,12)" />
</clipPath>
<g  clip-path="url(#clip27)" 
>
<g fill="none" stroke="#555555" stroke-opacity="1" stroke-width="1" stroke-linecap="square" stroke-linejoin="bevel" transform="matrix(1,0,0,1,12,12)"
font-family="Montserrat" font-size="12" font-weight="700" font-style="normal" 
>
</g>
</g>

<clipPath id ="clip28" >
<rect x="0" y="0" height="937" width="977" transform="matrix(1,0,0,1,12,12)" />
</clipPath>
<g  clip-path="url(#clip28)" 
>
<g fill="none" stroke="#555555" stroke-opacity="1" stroke-width="1" stroke-linecap="square" stroke-linejoin="bevel" transform="matrix(1,0,0,1,12,12)"
font-family="Montserrat" font-size="12" font-weight="700" font-style="normal" 
>
</g>
</g>

<clipPath id ="clip29" >
<rect x="0" y="0" height="937" width="977" transform="matrix(1,0,0,1,12,12)" />
</clipPath>
<g  clip-path="url(#clip29)" 
>
<g fill="none" stroke="#555555" stroke-opacity="1" stroke-width="1" stroke-linecap="square" stroke-linejoin="bevel" transform="matrix(1,0,0,1,12,12)"
font-family="Montserrat" font-size="12" font-weight="700" font-style="normal" 
>
</g>
</g>

<clipPath id ="clip30" >
<rect x="0" y="0" height="936" width="976" transform="matrix(1,0,0,1,12,12)" />
</clipPath>
<g  clip-path="url(#clip30)" 
>
<g fill="none" stroke="#555555" stroke-opacity="1" stroke-width="1" stroke-linecap="square" stroke-linejoin="bevel" transform="matrix(1,0,0,1,12,12)"
font-family="Montserrat" font-size="12" font-weight="700" font-style="normal" 
>
</g>
</g>

<clipPath id ="clip31" >
<rect x="0" y="0" height="937" width="977" transform="matrix(1,0,0,1,12,12)" />
</clipPath>
<g  clip-path="url(#clip31)" 
>
<g fill="none" stroke="#555555" stroke-opacity="1" stroke-width="1" stroke-linecap="square" stroke-linejoin="bevel" transform="matrix(1,0,0,1,12,12)"
font-family="Montserrat" font-size="12" font-weight="700" font-style="normal" 
>
</g>
</g>

<clipPath id ="clip32" >
<rect x="0" y="0" height="936" width="976" transform="matrix(1,0,0,1,12,12)" />
</clipPath>
<g  clip-path="url(#clip32)" 
>
<g fill="none" stroke="#555555" stroke-opacity="1" stroke-width="1" stroke-linecap="square" stroke-linejoin="bevel" transform="matrix(1,0,0,1,12,12)"
font-family="Montserrat" font-size="12" font-weight="700" font-style="normal" 
>
</g>
</g>

<clipPath id ="clip33" >
<rect x="0" y="0" height="937" width="977" transform="matrix(1,0,0,1,12,12)" />
</clipPath>
<g  clip-path="url(#clip33)" 
>
<g fill="none" stroke="#555555" stroke-opacity="1" stroke-width="1" stroke-linecap="square" stroke-linejoin="bevel" transform="matrix(1,0,0,1,12,12)"
font-family="Montserrat" font-size="12" font-weight="700" font-style="normal" 
>
</g>
</g>

<clipPath id ="clip34" >
<rect x="0" y="0" height="937" width="977" transform="matrix(1,0,0,1,12,12)" />
</clipPath>
<g  clip-path="url(#clip34)" 
>
<g fill="none" stroke="#555555" stroke-opacity="1" stroke-width="1" stroke-linecap="square" stroke-linejoin="bevel" transform="matrix(1,0,0,1,12,12)"
font-family="Montserrat" font-size="12" font-weight="700" font-style="normal" 
>
</g>
</g>

<clipPath id ="clip35" >
<rect x="0" y="0" height="936" width="976" transform="matrix(1,0,0,1,12,12)" />
</clipPath>
<g  clip-path="url(#clip35)" 
>
<g fill="none" stroke="#555555" stroke-opacity="1" stroke-width="1" stroke-linecap="square" stroke-linejoin="bevel" transform="matrix(1,0,0,1,12,12)"
font-family="Montserrat" font-size="12" font-weight="700" font-style="normal" 
>
</g>
</g>

<clipPath id ="clip36" >
<rect x="0" y="0" height="937" width="977" transform="matrix(1,0,0,1,12,12)" />
</clipPath>
<g  clip-path="url(#clip36)" 
>
<g fill="none" stroke="#555555" stroke-opacity="1" stroke-width="1" stroke-linecap="square" stroke-linejoin="bevel" transform="matrix(1,0,0,1,12,12)"
font-family="Montserrat" font-size="12" font-weight="700" font-style="normal" 
>
</g>
</g>

<clipPath id ="clip37" >
<rect x="0" y="0" height="936" width="976" transform="matrix(1,0,0,1,12,12)" />
</clipPath>
<g  clip-path="url(#clip37)" 
>
<g fill="none" stroke="#555555" stroke-opacity="1" stroke-width="1" stroke-linecap="square" stroke-linejoin="bevel" transform="matrix(1,0,0,1,12,12)"
font-family="Montserrat" font-size="12" font-weight="700" font-style="normal" 
>
</g>
</g>

<clipPath id ="clip38" >
<rect x="0" y="0" height="937" width="977" transform="matrix(1,0,0,1,12,12)" />
</clipPath>
<g  clip-path="url(#clip38)" 
>
<g fill="none" stroke="#555555" stroke-opacity="1" stroke-width="1" stroke-linecap="square" stroke-linejoin="bevel" transform="matrix(1,0,0,1,12,12)"
font-family="Montserrat" font-size="12" font-weight="700" font-style="normal" 
>
</g>
</g>

<g >
<g fill="none" stroke="#555555" stroke-opacity="1" stroke-width="1" stroke-linecap="square" stroke-linejoin="bevel" transform="matrix(1,0,0,1,12,12)"
font-family="Montserrat" font-size="12" font-weight="700" font-style="normal" 
>
</g>
</g>
</g>
</svg>
