<?xml version="1.0" encoding="UTF-8" standalone="no"?>
<svg width="264.848mm" height="264.848mm"
 xmlns="http://www.w3.org/2000/svg" xmlns:xlink="http://www.w3.org/1999/xlink"  version="1.2" baseProfile="tiny">
<title>Tableau de bord 1</title>
<desc>Rendered by Tableau</desc>
<defs>
</defs>
<g fill="none" stroke="black" stroke-width="1" fill-rule="evenodd" stroke-linecap="square" stroke-linejoin="bevel" >

<g >
<g fill="#ffffff" fill-opacity="1" stroke="none" transform="matrix(1,0,0,1,0,0)"
font-family="Benton Sans Book" font-size="16" font-weight="400" font-style="normal" 
>
<rect x="0" y="0" width="1001" height="1001"/>
</g>
</g>

<g >
<g fill="#fff8f6" fill-opacity="1" stroke="none" transform="matrix(1,0,0,1,12,12)"
font-family="Benton Sans Book" font-size="16" font-weight="400" font-style="normal" 
>
<rect x="0" y="0" width="976" height="976"/>
</g>
</g>

<clipPath id ="clip1" >
<rect x="-1" y="-1" height="22" width="919" transform="matrix(1,0,0,1,71,968)" />
</clipPath>
<g  clip-path="url(#clip1)" 
>
<g fill="none" stroke="#000000" stroke-opacity="1" stroke-width="1" stroke-linecap="square" stroke-linejoin="bevel" transform="matrix(1,0,0,1,71,968)"
font-family="Benton Sans Book" font-size="16" font-weight="400" font-style="normal" 
>
</g>
</g>

<g  clip-path="url(#clip1)" 
>
<g fill="none" stroke="#000000" stroke-opacity="0" stroke-width="1" stroke-linecap="butt" stroke-linejoin="bevel" transform="matrix(1,0,0,1,71,968)"
font-family="Benton Sans Book" font-size="16" font-weight="400" font-style="normal" 
>
<polyline fill="none" vector-effect="none" points="0,0 0,5 " />
<polyline fill="none" vector-effect="none" points="131,0 131,5 " />
<polyline fill="none" vector-effect="none" points="262,0 262,5 " />
<polyline fill="none" vector-effect="none" points="393,0 393,5 " />
<polyline fill="none" vector-effect="none" points="524,0 524,5 " />
<polyline fill="none" vector-effect="none" points="655,0 655,5 " />
<polyline fill="none" vector-effect="none" points="786,0 786,5 " />
<polyline fill="none" vector-effect="none" points="917,0 917,5 " />
</g>
</g>

<g  clip-path="url(#clip1)" 
>
<g fill="none" stroke="#000000" stroke-opacity="0" stroke-width="1" stroke-linecap="butt" stroke-linejoin="bevel" transform="matrix(1,0,0,1,71,968)"
font-family="Benton Sans Book" font-size="16" font-weight="400" font-style="normal" 
>
</g>
</g>

<g  clip-path="url(#clip1)" 
>
<g fill="none" stroke="#555555" stroke-opacity="1" stroke-width="1" stroke-linecap="square" stroke-linejoin="bevel" transform="matrix(1,0,0,1,71,968)"
font-family="Montserrat" font-size="12" font-weight="700" font-style="normal" 
>
<text fill="#555555" fill-opacity="1" stroke="none" xml:space="preserve" x="51.4375" y="16" font-family="Montserrat" font-size="12" font-weight="700" font-style="normal" 
 >1990</text>
</g>
</g>

<g  clip-path="url(#clip1)" 
>
<g fill="none" stroke="#555555" stroke-opacity="1" stroke-width="1" stroke-linecap="square" stroke-linejoin="bevel" transform="matrix(1,0,0,1,71,968)"
font-family="Montserrat" font-size="12" font-weight="700" font-style="normal" 
>
<text fill="#555555" fill-opacity="1" stroke="none" xml:space="preserve" x="182.938" y="16" font-family="Montserrat" font-size="12" font-weight="700" font-style="normal" 
 >1995</text>
</g>
</g>

<g  clip-path="url(#clip1)" 
>
<g fill="none" stroke="#555555" stroke-opacity="1" stroke-width="1" stroke-linecap="square" stroke-linejoin="bevel" transform="matrix(1,0,0,1,71,968)"
font-family="Montserrat" font-size="12" font-weight="700" font-style="normal" 
>
<text fill="#555555" fill-opacity="1" stroke="none" xml:space="preserve" x="311.75" y="16" font-family="Montserrat" font-size="12" font-weight="700" font-style="normal" 
 >2000</text>
</g>
</g>

<g  clip-path="url(#clip1)" 
>
<g fill="none" stroke="#555555" stroke-opacity="1" stroke-width="1" stroke-linecap="square" stroke-linejoin="bevel" transform="matrix(1,0,0,1,71,968)"
font-family="Montserrat" font-size="12" font-weight="700" font-style="normal" 
>
<text fill="#555555" fill-opacity="1" stroke="none" xml:space="preserve" x="443.25" y="16" font-family="Montserrat" font-size="12" font-weight="700" font-style="normal" 
 >2005</text>
</g>
</g>

<g  clip-path="url(#clip1)" 
>
<g fill="none" stroke="#555555" stroke-opacity="1" stroke-width="1" stroke-linecap="square" stroke-linejoin="bevel" transform="matrix(1,0,0,1,71,968)"
font-family="Montserrat" font-size="12" font-weight="700" font-style="normal" 
>
<text fill="#555555" fill-opacity="1" stroke="none" xml:space="preserve" x="575.469" y="16" font-family="Montserrat" font-size="12" font-weight="700" font-style="normal" 
 >2010</text>
</g>
</g>

<g  clip-path="url(#clip1)" 
>
<g fill="none" stroke="#555555" stroke-opacity="1" stroke-width="1" stroke-linecap="square" stroke-linejoin="bevel" transform="matrix(1,0,0,1,71,968)"
font-family="Montserrat" font-size="12" font-weight="700" font-style="normal" 
>
<text fill="#555555" fill-opacity="1" stroke="none" xml:space="preserve" x="706.969" y="16" font-family="Montserrat" font-size="12" font-weight="700" font-style="normal" 
 >2015</text>
</g>
</g>

<g  clip-path="url(#clip1)" 
>
<g fill="none" stroke="#555555" stroke-opacity="1" stroke-width="1" stroke-linecap="square" stroke-linejoin="bevel" transform="matrix(1,0,0,1,71,968)"
font-family="Montserrat" font-size="12" font-weight="700" font-style="normal" 
>
<text fill="#555555" fill-opacity="1" stroke="none" xml:space="preserve" x="836.281" y="16" font-family="Montserrat" font-size="12" font-weight="700" font-style="normal" 
 >2020</text>
</g>
</g>

<g >
<g fill="none" stroke="#555555" stroke-opacity="1" stroke-width="1" stroke-linecap="square" stroke-linejoin="bevel" transform="matrix(1,0,0,1,71,968)"
font-family="Montserrat" font-size="12" font-weight="700" font-style="normal" 
>
</g>
</g>

<clipPath id ="clip2" >
<rect x="-1" y="-1" height="958" width="61" transform="matrix(1,0,0,1,12,12)" />
</clipPath>
<g  clip-path="url(#clip2)" 
>
<g fill="none" stroke="#555555" stroke-opacity="1" stroke-width="1" stroke-linecap="square" stroke-linejoin="bevel" transform="matrix(1,0,0,1,12,12)"
font-family="Montserrat" font-size="12" font-weight="700" font-style="normal" 
>
</g>
</g>

<g  clip-path="url(#clip2)" 
>
<g fill="none" stroke="#000000" stroke-opacity="0" stroke-width="1" stroke-linecap="butt" stroke-linejoin="bevel" transform="matrix(1,0,0,1,12,12)"
font-family="Montserrat" font-size="12" font-weight="700" font-style="normal" 
>
<polyline fill="none" vector-effect="none" points="54,956 59,956 " />
<polyline fill="none" vector-effect="none" points="54,913 59,913 " />
<polyline fill="none" vector-effect="none" points="54,870 59,870 " />
<polyline fill="none" vector-effect="none" points="54,827 59,827 " />
<polyline fill="none" vector-effect="none" points="54,785 59,785 " />
<polyline fill="none" vector-effect="none" points="54,742 59,742 " />
<polyline fill="none" vector-effect="none" points="54,699 59,699 " />
<polyline fill="none" vector-effect="none" points="54,656 59,656 " />
<polyline fill="none" vector-effect="none" points="54,613 59,613 " />
<polyline fill="none" vector-effect="none" points="54,570 59,570 " />
<polyline fill="none" vector-effect="none" points="54,527 59,527 " />
<polyline fill="none" vector-effect="none" points="54,484 59,484 " />
<polyline fill="none" vector-effect="none" points="54,442 59,442 " />
<polyline fill="none" vector-effect="none" points="54,399 59,399 " />
<polyline fill="none" vector-effect="none" points="54,356 59,356 " />
<polyline fill="none" vector-effect="none" points="54,313 59,313 " />
<polyline fill="none" vector-effect="none" points="54,270 59,270 " />
<polyline fill="none" vector-effect="none" points="54,227 59,227 " />
<polyline fill="none" vector-effect="none" points="54,184 59,184 " />
<polyline fill="none" vector-effect="none" points="54,141 59,141 " />
<polyline fill="none" vector-effect="none" points="54,99 59,99 " />
<polyline fill="none" vector-effect="none" points="54,56 59,56 " />
<polyline fill="none" vector-effect="none" points="54,13 59,13 " />
</g>
</g>

<g  clip-path="url(#clip2)" 
>
<g fill="none" stroke="#555555" stroke-opacity="1" stroke-width="1" stroke-linecap="square" stroke-linejoin="bevel" transform="matrix(1,0,0,1,12,12)"
font-family="Montserrat" font-size="12" font-weight="700" font-style="normal" 
>
<text fill="#555555" fill-opacity="1" stroke="none" xml:space="preserve" x="43.8594" y="952" font-family="Montserrat" font-size="12" font-weight="700" font-style="normal" 
 >0</text>
</g>
</g>

<g  clip-path="url(#clip2)" 
>
<g fill="none" stroke="#555555" stroke-opacity="1" stroke-width="1" stroke-linecap="square" stroke-linejoin="bevel" transform="matrix(1,0,0,1,12,12)"
font-family="Montserrat" font-size="12" font-weight="700" font-style="normal" 
>
<text fill="#555555" fill-opacity="1" stroke="none" xml:space="preserve" x="39.1563" y="917" font-family="Montserrat" font-size="12" font-weight="700" font-style="normal" 
 >10</text>
</g>
</g>

<g  clip-path="url(#clip2)" 
>
<g fill="none" stroke="#555555" stroke-opacity="1" stroke-width="1" stroke-linecap="square" stroke-linejoin="bevel" transform="matrix(1,0,0,1,12,12)"
font-family="Montserrat" font-size="12" font-weight="700" font-style="normal" 
>
<text fill="#555555" fill-opacity="1" stroke="none" xml:space="preserve" x="36.7813" y="874" font-family="Montserrat" font-size="12" font-weight="700" font-style="normal" 
 >20</text>
</g>
</g>

<g  clip-path="url(#clip2)" 
>
<g fill="none" stroke="#555555" stroke-opacity="1" stroke-width="1" stroke-linecap="square" stroke-linejoin="bevel" transform="matrix(1,0,0,1,12,12)"
font-family="Montserrat" font-size="12" font-weight="700" font-style="normal" 
>
<text fill="#555555" fill-opacity="1" stroke="none" xml:space="preserve" x="36.7656" y="831" font-family="Montserrat" font-size="12" font-weight="700" font-style="normal" 
 >30</text>
</g>
</g>

<g  clip-path="url(#clip2)" 
>
<g fill="none" stroke="#555555" stroke-opacity="1" stroke-width="1" stroke-linecap="square" stroke-linejoin="bevel" transform="matrix(1,0,0,1,12,12)"
font-family="Montserrat" font-size="12" font-weight="700" font-style="normal" 
>
<text fill="#555555" fill-opacity="1" stroke="none" xml:space="preserve" x="35.5938" y="789" font-family="Montserrat" font-size="12" font-weight="700" font-style="normal" 
 >40</text>
</g>
</g>

<g  clip-path="url(#clip2)" 
>
<g fill="none" stroke="#555555" stroke-opacity="1" stroke-width="1" stroke-linecap="square" stroke-linejoin="bevel" transform="matrix(1,0,0,1,12,12)"
font-family="Montserrat" font-size="12" font-weight="700" font-style="normal" 
>
<text fill="#555555" fill-opacity="1" stroke="none" xml:space="preserve" x="36.7344" y="746" font-family="Montserrat" font-size="12" font-weight="700" font-style="normal" 
 >50</text>
</g>
</g>

<g  clip-path="url(#clip2)" 
>
<g fill="none" stroke="#555555" stroke-opacity="1" stroke-width="1" stroke-linecap="square" stroke-linejoin="bevel" transform="matrix(1,0,0,1,12,12)"
font-family="Montserrat" font-size="12" font-weight="700" font-style="normal" 
>
<text fill="#555555" fill-opacity="1" stroke="none" xml:space="preserve" x="36.2188" y="703" font-family="Montserrat" font-size="12" font-weight="700" font-style="normal" 
 >60</text>
</g>
</g>

<g  clip-path="url(#clip2)" 
>
<g fill="none" stroke="#555555" stroke-opacity="1" stroke-width="1" stroke-linecap="square" stroke-linejoin="bevel" transform="matrix(1,0,0,1,12,12)"
font-family="Montserrat" font-size="12" font-weight="700" font-style="normal" 
>
<text fill="#555555" fill-opacity="1" stroke="none" xml:space="preserve" x="36.4219" y="660" font-family="Montserrat" font-size="12" font-weight="700" font-style="normal" 
 >70</text>
</g>
</g>

<g  clip-path="url(#clip2)" 
>
<g fill="none" stroke="#555555" stroke-opacity="1" stroke-width="1" stroke-linecap="square" stroke-linejoin="bevel" transform="matrix(1,0,0,1,12,12)"
font-family="Montserrat" font-size="12" font-weight="700" font-style="normal" 
>
<text fill="#555555" fill-opacity="1" stroke="none" xml:space="preserve" x="35.9531" y="617" font-family="Montserrat" font-size="12" font-weight="700" font-style="normal" 
 >80</text>
</g>
</g>

<g  clip-path="url(#clip2)" 
>
<g fill="none" stroke="#555555" stroke-opacity="1" stroke-width="1" stroke-linecap="square" stroke-linejoin="bevel" transform="matrix(1,0,0,1,12,12)"
font-family="Montserrat" font-size="12" font-weight="700" font-style="normal" 
>
<text fill="#555555" fill-opacity="1" stroke="none" xml:space="preserve" x="36.2188" y="574" font-family="Montserrat" font-size="12" font-weight="700" font-style="normal" 
 >90</text>
</g>
</g>

<g  clip-path="url(#clip2)" 
>
<g fill="none" stroke="#555555" stroke-opacity="1" stroke-width="1" stroke-linecap="square" stroke-linejoin="bevel" transform="matrix(1,0,0,1,12,12)"
font-family="Montserrat" font-size="12" font-weight="700" font-style="normal" 
>
<text fill="#555555" fill-opacity="1" stroke="none" xml:space="preserve" x="31.0156" y="531" font-family="Montserrat" font-size="12" font-weight="700" font-style="normal" 
 >100</text>
</g>
</g>

<g  clip-path="url(#clip2)" 
>
<g fill="none" stroke="#555555" stroke-opacity="1" stroke-width="1" stroke-linecap="square" stroke-linejoin="bevel" transform="matrix(1,0,0,1,12,12)"
font-family="Montserrat" font-size="12" font-weight="700" font-style="normal" 
>
<text fill="#555555" fill-opacity="1" stroke="none" xml:space="preserve" x="34.4531" y="488" font-family="Montserrat" font-size="12" font-weight="700" font-style="normal" 
 >110</text>
</g>
</g>

<g  clip-path="url(#clip2)" 
>
<g fill="none" stroke="#555555" stroke-opacity="1" stroke-width="1" stroke-linecap="square" stroke-linejoin="bevel" transform="matrix(1,0,0,1,12,12)"
font-family="Montserrat" font-size="12" font-weight="700" font-style="normal" 
>
<text fill="#555555" fill-opacity="1" stroke="none" xml:space="preserve" x="32.0781" y="446" font-family="Montserrat" font-size="12" font-weight="700" font-style="normal" 
 >120</text>
</g>
</g>

<g  clip-path="url(#clip2)" 
>
<g fill="none" stroke="#555555" stroke-opacity="1" stroke-width="1" stroke-linecap="square" stroke-linejoin="bevel" transform="matrix(1,0,0,1,12,12)"
font-family="Montserrat" font-size="12" font-weight="700" font-style="normal" 
>
<text fill="#555555" fill-opacity="1" stroke="none" xml:space="preserve" x="32.0625" y="403" font-family="Montserrat" font-size="12" font-weight="700" font-style="normal" 
 >130</text>
</g>
</g>

<g  clip-path="url(#clip2)" 
>
<g fill="none" stroke="#555555" stroke-opacity="1" stroke-width="1" stroke-linecap="square" stroke-linejoin="bevel" transform="matrix(1,0,0,1,12,12)"
font-family="Montserrat" font-size="12" font-weight="700" font-style="normal" 
>
<text fill="#555555" fill-opacity="1" stroke="none" xml:space="preserve" x="30.8906" y="360" font-family="Montserrat" font-size="12" font-weight="700" font-style="normal" 
 >140</text>
</g>
</g>

<g  clip-path="url(#clip2)" 
>
<g fill="none" stroke="#555555" stroke-opacity="1" stroke-width="1" stroke-linecap="square" stroke-linejoin="bevel" transform="matrix(1,0,0,1,12,12)"
font-family="Montserrat" font-size="12" font-weight="700" font-style="normal" 
>
<text fill="#555555" fill-opacity="1" stroke="none" xml:space="preserve" x="32.0313" y="317" font-family="Montserrat" font-size="12" font-weight="700" font-style="normal" 
 >150</text>
</g>
</g>

<g  clip-path="url(#clip2)" 
>
<g fill="none" stroke="#555555" stroke-opacity="1" stroke-width="1" stroke-linecap="square" stroke-linejoin="bevel" transform="matrix(1,0,0,1,12,12)"
font-family="Montserrat" font-size="12" font-weight="700" font-style="normal" 
>
<text fill="#555555" fill-opacity="1" stroke="none" xml:space="preserve" x="31.5156" y="274" font-family="Montserrat" font-size="12" font-weight="700" font-style="normal" 
 >160</text>
</g>
</g>

<g  clip-path="url(#clip2)" 
>
<g fill="none" stroke="#555555" stroke-opacity="1" stroke-width="1" stroke-linecap="square" stroke-linejoin="bevel" transform="matrix(1,0,0,1,12,12)"
font-family="Montserrat" font-size="12" font-weight="700" font-style="normal" 
>
<text fill="#555555" fill-opacity="1" stroke="none" xml:space="preserve" x="31.7188" y="231" font-family="Montserrat" font-size="12" font-weight="700" font-style="normal" 
 >170</text>
</g>
</g>

<g  clip-path="url(#clip2)" 
>
<g fill="none" stroke="#555555" stroke-opacity="1" stroke-width="1" stroke-linecap="square" stroke-linejoin="bevel" transform="matrix(1,0,0,1,12,12)"
font-family="Montserrat" font-size="12" font-weight="700" font-style="normal" 
>
<text fill="#555555" fill-opacity="1" stroke="none" xml:space="preserve" x="31.25" y="188" font-family="Montserrat" font-size="12" font-weight="700" font-style="normal" 
 >180</text>
</g>
</g>

<g  clip-path="url(#clip2)" 
>
<g fill="none" stroke="#555555" stroke-opacity="1" stroke-width="1" stroke-linecap="square" stroke-linejoin="bevel" transform="matrix(1,0,0,1,12,12)"
font-family="Montserrat" font-size="12" font-weight="700" font-style="normal" 
>
<text fill="#555555" fill-opacity="1" stroke="none" xml:space="preserve" x="31.5156" y="145" font-family="Montserrat" font-size="12" font-weight="700" font-style="normal" 
 >190</text>
</g>
</g>

<g  clip-path="url(#clip2)" 
>
<g fill="none" stroke="#555555" stroke-opacity="1" stroke-width="1" stroke-linecap="square" stroke-linejoin="bevel" transform="matrix(1,0,0,1,12,12)"
font-family="Montserrat" font-size="12" font-weight="700" font-style="normal" 
>
<text fill="#555555" fill-opacity="1" stroke="none" xml:space="preserve" x="28.6406" y="103" font-family="Montserrat" font-size="12" font-weight="700" font-style="normal" 
 >200</text>
</g>
</g>

<g  clip-path="url(#clip2)" 
>
<g fill="none" stroke="#555555" stroke-opacity="1" stroke-width="1" stroke-linecap="square" stroke-linejoin="bevel" transform="matrix(1,0,0,1,12,12)"
font-family="Montserrat" font-size="12" font-weight="700" font-style="normal" 
>
<text fill="#555555" fill-opacity="1" stroke="none" xml:space="preserve" x="32.0781" y="60" font-family="Montserrat" font-size="12" font-weight="700" font-style="normal" 
 >210</text>
</g>
</g>

<g  clip-path="url(#clip2)" 
>
<g fill="none" stroke="#555555" stroke-opacity="1" stroke-width="1" stroke-linecap="square" stroke-linejoin="bevel" transform="matrix(1,0,0,1,12,12)"
font-family="Montserrat" font-size="12" font-weight="700" font-style="normal" 
>
<text fill="#555555" fill-opacity="1" stroke="none" xml:space="preserve" x="29.7031" y="17" font-family="Montserrat" font-size="12" font-weight="700" font-style="normal" 
 >220</text>
</g>
</g>

<g  clip-path="url(#clip2)" 
>
<g fill="none" stroke="#555555" stroke-opacity="1" stroke-width="1" stroke-linecap="square" stroke-linejoin="bevel" transform="matrix(1,0,0,1,12,12)"
font-family="Montserrat" font-size="12" font-weight="700" font-style="normal" 
>
</g>
</g>

<g  clip-path="url(#clip2)" 
>
<g fill="none" stroke="#555555" stroke-opacity="1" stroke-width="1" stroke-linecap="square" stroke-linejoin="bevel" transform="matrix(0,-1,1,0,30.6094,548.867)"
font-family="Montserrat" font-size="12" font-weight="700" font-style="normal" 
>
<text fill="#555555" fill-opacity="1" stroke="none" xml:space="preserve" x="0" y="0" font-family="Montserrat" font-size="12" font-weight="700" font-style="normal" 
 >Nombre de notices</text>
</g>
</g>

<g  clip-path="url(#clip2)" 
>
<g fill="none" stroke="#555555" stroke-opacity="1" stroke-width="1" stroke-linecap="square" stroke-linejoin="bevel" transform="matrix(1,0,0,1,12,12)"
font-family="Montserrat" font-size="12" font-weight="700" font-style="normal" 
>
</g>
</g>

<g >
<g fill="none" stroke="#555555" stroke-opacity="1" stroke-width="1" stroke-linecap="square" stroke-linejoin="bevel" transform="matrix(1,0,0,1,12,12)"
font-family="Montserrat" font-size="12" font-weight="700" font-style="normal" 
>
</g>
</g>

<g  clip-path="url(#clip2)" 
>
<g fill="none" stroke="#555555" stroke-opacity="1" stroke-width="1" stroke-linecap="square" stroke-linejoin="bevel" transform="matrix(1,0,0,1,71,12)"
font-family="Montserrat" font-size="12" font-weight="700" font-style="normal" 
>
</g>
</g>

<clipPath id ="clip3" >
<rect x="0" y="0" height="957" width="918" transform="matrix(1,0,0,1,71,12)" />
</clipPath>
<g  clip-path="url(#clip3)" 
>
<g fill="none" stroke="#555555" stroke-opacity="1" stroke-width="1" stroke-linecap="square" stroke-linejoin="bevel" transform="matrix(1,0,0,1,71,12)"
font-family="Montserrat" font-size="12" font-weight="700" font-style="normal" 
>
</g>
</g>

<clipPath id ="clip4" >
<rect x="0" y="0" height="957" width="918" transform="matrix(1,0,0,1,71,12)" />
</clipPath>
<g  clip-path="url(#clip4)" 
>
<g fill="none" stroke="#555555" stroke-opacity="1" stroke-width="1" stroke-linecap="square" stroke-linejoin="bevel" transform="matrix(1,0,0,1,71,12)"
font-family="Montserrat" font-size="12" font-weight="700" font-style="normal" 
>
</g>
</g>

<g  clip-path="url(#clip4)" 
>
<g fill="#fff8f6" fill-opacity="1" stroke="none" transform="matrix(1,0,0,1,71,12)"
font-family="Montserrat" font-size="12" font-weight="700" font-style="normal" 
>
<rect x="0" y="0" width="918" height="957"/>
</g>
</g>

<g  clip-path="url(#clip4)" 
>
<g fill="#fff8f6" fill-opacity="1" stroke="none" transform="matrix(1,0,0,1,71,12)"
font-family="Montserrat" font-size="12" font-weight="700" font-style="normal" 
>
<rect x="0" y="0" width="918" height="957"/>
</g>
</g>

<clipPath id ="clip5" >
<rect x="0" y="0" height="957" width="918" transform="matrix(1,0,0,1,71,12)" />
</clipPath>
<g  clip-path="url(#clip5)" 
>
<g fill="none" stroke="#555555" stroke-opacity="1" stroke-width="1" stroke-linecap="square" stroke-linejoin="bevel" transform="matrix(1,0,0,1,71,12)"
font-family="Montserrat" font-size="12" font-weight="700" font-style="normal" 
>
</g>
</g>

<g  clip-path="url(#clip5)" 
>
<g fill="#fff8f6" fill-opacity="1" stroke="none" transform="matrix(1,0,0,1,71,12)"
font-family="Montserrat" font-size="12" font-weight="700" font-style="normal" 
>
<rect x="0" y="0" width="918" height="957"/>
</g>
</g>

<clipPath id ="clip6" >
<rect x="0" y="0" height="957" width="918" transform="matrix(1,0,0,1,71,12)" />
</clipPath>
<g  clip-path="url(#clip6)" 
>
<g fill="none" stroke="#555555" stroke-opacity="1" stroke-width="1" stroke-linecap="square" stroke-linejoin="bevel" transform="matrix(1,0,0,1,71,12)"
font-family="Montserrat" font-size="12" font-weight="700" font-style="normal" 
>
</g>
</g>

<clipPath id ="clip7" >
<rect x="0" y="0" height="957" width="918" transform="matrix(1,0,0,1,71,12)" />
</clipPath>
<g  clip-path="url(#clip7)" 
>
<g fill="none" stroke="#555555" stroke-opacity="1" stroke-width="1" stroke-linecap="square" stroke-linejoin="bevel" transform="matrix(1,0,0,1,71,12)"
font-family="Montserrat" font-size="12" font-weight="700" font-style="normal" 
>
</g>
</g>

<clipPath id ="clip8" >
<rect x="0" y="0" height="957" width="918" transform="matrix(1,0,0,1,71,12)" />
</clipPath>
<g  clip-path="url(#clip8)" 
>
<g fill="none" stroke="#555555" stroke-opacity="1" stroke-width="1" stroke-linecap="square" stroke-linejoin="bevel" transform="matrix(1,0,0,1,71,12)"
font-family="Montserrat" font-size="12" font-weight="700" font-style="normal" 
>
</g>
</g>

<clipPath id ="clip9" >
<rect x="0" y="0" height="957" width="918" transform="matrix(1,0,0,1,71,12)" />
</clipPath>
<g  clip-path="url(#clip9)" 
>
<g fill="none" stroke="#555555" stroke-opacity="1" stroke-width="1" stroke-linecap="square" stroke-linejoin="bevel" transform="matrix(1,0,0,1,71,12)"
font-family="Montserrat" font-size="12" font-weight="700" font-style="normal" 
>
</g>
</g>

<g  clip-path="url(#clip9)" 
>
<g fill="#fff8f6" fill-opacity="1" stroke="none" transform="matrix(1,0,0,1,71,12)"
font-family="Montserrat" font-size="12" font-weight="700" font-style="normal" 
>
<rect x="0" y="0" width="918" height="957"/>
</g>
</g>

<clipPath id ="clip10" >
<rect x="0" y="0" height="957" width="918" transform="matrix(1,0,0,1,71,12)" />
</clipPath>
<g  clip-path="url(#clip10)" 
>
<g fill="none" stroke="#555555" stroke-opacity="1" stroke-width="1" stroke-linecap="square" stroke-linejoin="bevel" transform="matrix(1,0,0,1,71,12)"
font-family="Montserrat" font-size="12" font-weight="700" font-style="normal" 
>
</g>
</g>

<clipPath id ="clip11" >
<rect x="0" y="0" height="956" width="917" transform="matrix(1,0,0,1,71,12)" />
</clipPath>
<g  clip-path="url(#clip11)" 
>
<g fill="none" stroke="#555555" stroke-opacity="1" stroke-width="1" stroke-linecap="square" stroke-linejoin="bevel" transform="matrix(1,0,0,1,71,12)"
font-family="Montserrat" font-size="12" font-weight="700" font-style="normal" 
>
</g>
</g>

<clipPath id ="clip12" >
<rect x="0" y="0" height="957" width="918" transform="matrix(1,0,0,1,71,12)" />
</clipPath>
<g  clip-path="url(#clip12)" 
>
<g fill="none" stroke="#555555" stroke-opacity="1" stroke-width="1" stroke-linecap="square" stroke-linejoin="bevel" transform="matrix(1,0,0,1,71,12)"
font-family="Montserrat" font-size="12" font-weight="700" font-style="normal" 
>
</g>
</g>

<clipPath id ="clip13" >
<rect x="0" y="0" height="957" width="918" transform="matrix(1,0,0,1,71,12)" />
</clipPath>
<g  clip-path="url(#clip13)" 
>
<g fill="none" stroke="#555555" stroke-opacity="1" stroke-width="1" stroke-linecap="square" stroke-linejoin="bevel" transform="matrix(1,0,0,1,71,12)"
font-family="Montserrat" font-size="12" font-weight="700" font-style="normal" 
>
</g>
</g>

<clipPath id ="clip14" >
<rect x="0" y="0" height="956" width="917" transform="matrix(1,0,0,1,71,12)" />
</clipPath>
<g  clip-path="url(#clip14)" 
>
<g fill="none" stroke="#555555" stroke-opacity="1" stroke-width="1" stroke-linecap="square" stroke-linejoin="bevel" transform="matrix(1,0,0,1,71,12)"
font-family="Montserrat" font-size="12" font-weight="700" font-style="normal" 
>
</g>
</g>

<g  clip-path="url(#clip14)" 
>
<g fill="none" stroke="#000000" stroke-opacity="1" stroke-width="3" stroke-linecap="round" stroke-linejoin="round" transform="matrix(1,0,0,1,71,12)"
font-family="Montserrat" font-size="12" font-weight="700" font-style="normal" 
>
<polyline fill="none" vector-effect="none" points="197,952.213 328,887.908 459,789.307 590,694.993 721,703.567 852,206.276 " />
</g>
</g>

<g  clip-path="url(#clip14)" 
>
<g fill="none" stroke="#555555" stroke-opacity="1" stroke-width="1" stroke-linecap="square" stroke-linejoin="bevel" transform="matrix(1,0,0,1,71,12)"
font-family="Montserrat" font-size="12" font-weight="700" font-style="normal" 
>
<path vector-effect="none" fill-rule="nonzero" d="M0,0"/>
</g>
</g>

<g  clip-path="url(#clip14)" 
>
<g fill="#000000" fill-opacity="1" stroke="none" transform="matrix(1,0,0,1,71,12)"
font-family="Montserrat" font-size="12" font-weight="700" font-style="normal" 
>
<circle cx="197" cy="952.213" r="3" />
</g>
</g>

<g  clip-path="url(#clip14)" 
>
<g fill="#000000" fill-opacity="1" stroke="none" transform="matrix(1,0,0,1,71,12)"
font-family="Montserrat" font-size="12" font-weight="700" font-style="normal" 
>
<circle cx="328" cy="887.908" r="3" />
</g>
</g>

<g  clip-path="url(#clip14)" 
>
<g fill="#000000" fill-opacity="1" stroke="none" transform="matrix(1,0,0,1,71,12)"
font-family="Montserrat" font-size="12" font-weight="700" font-style="normal" 
>
<circle cx="459" cy="789.307" r="3" />
</g>
</g>

<g  clip-path="url(#clip14)" 
>
<g fill="#000000" fill-opacity="1" stroke="none" transform="matrix(1,0,0,1,71,12)"
font-family="Montserrat" font-size="12" font-weight="700" font-style="normal" 
>
<circle cx="590" cy="694.993" r="3" />
</g>
</g>

<g  clip-path="url(#clip14)" 
>
<g fill="#000000" fill-opacity="1" stroke="none" transform="matrix(1,0,0,1,71,12)"
font-family="Montserrat" font-size="12" font-weight="700" font-style="normal" 
>
<circle cx="721" cy="703.567" r="3" />
</g>
</g>

<g  clip-path="url(#clip14)" 
>
<g fill="#000000" fill-opacity="1" stroke="none" transform="matrix(1,0,0,1,71,12)"
font-family="Montserrat" font-size="12" font-weight="700" font-style="normal" 
>
<circle cx="852" cy="206.276" r="3" />
</g>
</g>

<g  clip-path="url(#clip14)" 
>
<g fill="#000000" fill-opacity="1" stroke="#edc948" stroke-opacity="1" stroke-width="3" stroke-linecap="round" stroke-linejoin="round" transform="matrix(1,0,0,1,71,12)"
font-family="Montserrat" font-size="12" font-weight="700" font-style="normal" 
>
<polyline fill="none" vector-effect="none" points="66,892.195 197,47.657 328,154.832 459,296.303 590,223.424 721,262.007 852,240.572 " />
</g>
</g>

<g  clip-path="url(#clip14)" 
>
<g fill="#000000" fill-opacity="1" stroke="none" transform="matrix(1,0,0,1,71,12)"
font-family="Montserrat" font-size="12" font-weight="700" font-style="normal" 
>
<path vector-effect="none" fill-rule="nonzero" d="M0,0"/>
</g>
</g>

<g  clip-path="url(#clip14)" 
>
<g fill="#edc948" fill-opacity="1" stroke="none" transform="matrix(1,0,0,1,71,12)"
font-family="Montserrat" font-size="12" font-weight="700" font-style="normal" 
>
<circle cx="66" cy="892.195" r="3" />
</g>
</g>

<g  clip-path="url(#clip14)" 
>
<g fill="#edc948" fill-opacity="1" stroke="none" transform="matrix(1,0,0,1,71,12)"
font-family="Montserrat" font-size="12" font-weight="700" font-style="normal" 
>
<circle cx="197" cy="47.657" r="3" />
</g>
</g>

<g  clip-path="url(#clip14)" 
>
<g fill="#edc948" fill-opacity="1" stroke="none" transform="matrix(1,0,0,1,71,12)"
font-family="Montserrat" font-size="12" font-weight="700" font-style="normal" 
>
<circle cx="328" cy="154.832" r="3" />
</g>
</g>

<g  clip-path="url(#clip14)" 
>
<g fill="#edc948" fill-opacity="1" stroke="none" transform="matrix(1,0,0,1,71,12)"
font-family="Montserrat" font-size="12" font-weight="700" font-style="normal" 
>
<circle cx="459" cy="296.303" r="3" />
</g>
</g>

<g  clip-path="url(#clip14)" 
>
<g fill="#edc948" fill-opacity="1" stroke="none" transform="matrix(1,0,0,1,71,12)"
font-family="Montserrat" font-size="12" font-weight="700" font-style="normal" 
>
<circle cx="590" cy="223.424" r="3" />
</g>
</g>

<g  clip-path="url(#clip14)" 
>
<g fill="#edc948" fill-opacity="1" stroke="none" transform="matrix(1,0,0,1,71,12)"
font-family="Montserrat" font-size="12" font-weight="700" font-style="normal" 
>
<circle cx="721" cy="262.007" r="3" />
</g>
</g>

<g  clip-path="url(#clip14)" 
>
<g fill="#edc948" fill-opacity="1" stroke="none" transform="matrix(1,0,0,1,71,12)"
font-family="Montserrat" font-size="12" font-weight="700" font-style="normal" 
>
<circle cx="852" cy="240.572" r="3" />
</g>
</g>

<g  clip-path="url(#clip14)" 
>
<g fill="#edc948" fill-opacity="1" stroke="#003366" stroke-opacity="1" stroke-width="3" stroke-linecap="round" stroke-linejoin="round" transform="matrix(1,0,0,1,71,12)"
font-family="Montserrat" font-size="12" font-weight="700" font-style="normal" 
>
<polyline fill="none" vector-effect="none" points="66,887.908 197,442.061 328,686.419 459,287.729 590,69.0919 721,137.684 852,296.303 " />
</g>
</g>

<g  clip-path="url(#clip14)" 
>
<g fill="#edc948" fill-opacity="1" stroke="none" transform="matrix(1,0,0,1,71,12)"
font-family="Montserrat" font-size="12" font-weight="700" font-style="normal" 
>
<path vector-effect="none" fill-rule="nonzero" d="M0,0"/>
</g>
</g>

<g  clip-path="url(#clip14)" 
>
<g fill="#003366" fill-opacity="1" stroke="none" transform="matrix(1,0,0,1,71,12)"
font-family="Montserrat" font-size="12" font-weight="700" font-style="normal" 
>
<circle cx="66" cy="887.908" r="3" />
</g>
</g>

<g  clip-path="url(#clip14)" 
>
<g fill="#003366" fill-opacity="1" stroke="none" transform="matrix(1,0,0,1,71,12)"
font-family="Montserrat" font-size="12" font-weight="700" font-style="normal" 
>
<circle cx="197" cy="442.061" r="3" />
</g>
</g>

<g  clip-path="url(#clip14)" 
>
<g fill="#003366" fill-opacity="1" stroke="none" transform="matrix(1,0,0,1,71,12)"
font-family="Montserrat" font-size="12" font-weight="700" font-style="normal" 
>
<circle cx="328" cy="686.419" r="3" />
</g>
</g>

<g  clip-path="url(#clip14)" 
>
<g fill="#003366" fill-opacity="1" stroke="none" transform="matrix(1,0,0,1,71,12)"
font-family="Montserrat" font-size="12" font-weight="700" font-style="normal" 
>
<circle cx="459" cy="287.729" r="3" />
</g>
</g>

<g  clip-path="url(#clip14)" 
>
<g fill="#003366" fill-opacity="1" stroke="none" transform="matrix(1,0,0,1,71,12)"
font-family="Montserrat" font-size="12" font-weight="700" font-style="normal" 
>
<circle cx="590" cy="69.0919" r="3" />
</g>
</g>

<g  clip-path="url(#clip14)" 
>
<g fill="#003366" fill-opacity="1" stroke="none" transform="matrix(1,0,0,1,71,12)"
font-family="Montserrat" font-size="12" font-weight="700" font-style="normal" 
>
<circle cx="721" cy="137.684" r="3" />
</g>
</g>

<g  clip-path="url(#clip14)" 
>
<g fill="#003366" fill-opacity="1" stroke="none" transform="matrix(1,0,0,1,71,12)"
font-family="Montserrat" font-size="12" font-weight="700" font-style="normal" 
>
<circle cx="852" cy="296.303" r="3" />
</g>
</g>

<g  clip-path="url(#clip14)" 
>
<g fill="#003366" fill-opacity="1" stroke="#9900ff" stroke-opacity="1" stroke-width="3" stroke-linecap="round" stroke-linejoin="round" transform="matrix(1,0,0,1,71,12)"
font-family="Montserrat" font-size="12" font-weight="700" font-style="normal" 
>
<polyline fill="none" vector-effect="none" points="66,952.213 197,849.325 328,806.455 459,772.159 590,480.643 721,484.93 852,484.93 " />
</g>
</g>

<g  clip-path="url(#clip14)" 
>
<g fill="#003366" fill-opacity="1" stroke="none" transform="matrix(1,0,0,1,71,12)"
font-family="Montserrat" font-size="12" font-weight="700" font-style="normal" 
>
<path vector-effect="none" fill-rule="nonzero" d="M0,0"/>
</g>
</g>

<g  clip-path="url(#clip14)" 
>
<g fill="#9900ff" fill-opacity="1" stroke="none" transform="matrix(1,0,0,1,71,12)"
font-family="Montserrat" font-size="12" font-weight="700" font-style="normal" 
>
<circle cx="66" cy="952.213" r="3" />
</g>
</g>

<g  clip-path="url(#clip14)" 
>
<g fill="#9900ff" fill-opacity="1" stroke="none" transform="matrix(1,0,0,1,71,12)"
font-family="Montserrat" font-size="12" font-weight="700" font-style="normal" 
>
<circle cx="197" cy="849.325" r="3" />
</g>
</g>

<g  clip-path="url(#clip14)" 
>
<g fill="#9900ff" fill-opacity="1" stroke="none" transform="matrix(1,0,0,1,71,12)"
font-family="Montserrat" font-size="12" font-weight="700" font-style="normal" 
>
<circle cx="328" cy="806.455" r="3" />
</g>
</g>

<g  clip-path="url(#clip14)" 
>
<g fill="#9900ff" fill-opacity="1" stroke="none" transform="matrix(1,0,0,1,71,12)"
font-family="Montserrat" font-size="12" font-weight="700" font-style="normal" 
>
<circle cx="459" cy="772.159" r="3" />
</g>
</g>

<g  clip-path="url(#clip14)" 
>
<g fill="#9900ff" fill-opacity="1" stroke="none" transform="matrix(1,0,0,1,71,12)"
font-family="Montserrat" font-size="12" font-weight="700" font-style="normal" 
>
<circle cx="590" cy="480.643" r="3" />
</g>
</g>

<g  clip-path="url(#clip14)" 
>
<g fill="#9900ff" fill-opacity="1" stroke="none" transform="matrix(1,0,0,1,71,12)"
font-family="Montserrat" font-size="12" font-weight="700" font-style="normal" 
>
<circle cx="721" cy="484.93" r="3" />
</g>
</g>

<g  clip-path="url(#clip14)" 
>
<g fill="#9900ff" fill-opacity="1" stroke="none" transform="matrix(1,0,0,1,71,12)"
font-family="Montserrat" font-size="12" font-weight="700" font-style="normal" 
>
<circle cx="852" cy="484.93" r="3" />
</g>
</g>

<g  clip-path="url(#clip14)" 
>
<g fill="#9900ff" fill-opacity="1" stroke="#00ff00" stroke-opacity="1" stroke-width="3" stroke-linecap="round" stroke-linejoin="round" transform="matrix(1,0,0,1,71,12)"
font-family="Montserrat" font-size="12" font-weight="700" font-style="normal" 
>
<polyline fill="none" vector-effect="none" points="66,947.926 197,716.428 328,797.881 459,420.626 590,287.729 721,124.823 852,523.513 " />
</g>
</g>

<g  clip-path="url(#clip14)" 
>
<g fill="#9900ff" fill-opacity="1" stroke="none" transform="matrix(1,0,0,1,71,12)"
font-family="Montserrat" font-size="12" font-weight="700" font-style="normal" 
>
<path vector-effect="none" fill-rule="nonzero" d="M0,0"/>
</g>
</g>

<g  clip-path="url(#clip14)" 
>
<g fill="#00ff00" fill-opacity="1" stroke="none" transform="matrix(1,0,0,1,71,12)"
font-family="Montserrat" font-size="12" font-weight="700" font-style="normal" 
>
<circle cx="66" cy="947.926" r="3" />
</g>
</g>

<g  clip-path="url(#clip14)" 
>
<g fill="#00ff00" fill-opacity="1" stroke="none" transform="matrix(1,0,0,1,71,12)"
font-family="Montserrat" font-size="12" font-weight="700" font-style="normal" 
>
<circle cx="197" cy="716.428" r="3" />
</g>
</g>

<g  clip-path="url(#clip14)" 
>
<g fill="#00ff00" fill-opacity="1" stroke="none" transform="matrix(1,0,0,1,71,12)"
font-family="Montserrat" font-size="12" font-weight="700" font-style="normal" 
>
<circle cx="328" cy="797.881" r="3" />
</g>
</g>

<g  clip-path="url(#clip14)" 
>
<g fill="#00ff00" fill-opacity="1" stroke="none" transform="matrix(1,0,0,1,71,12)"
font-family="Montserrat" font-size="12" font-weight="700" font-style="normal" 
>
<circle cx="459" cy="420.626" r="3" />
</g>
</g>

<g  clip-path="url(#clip14)" 
>
<g fill="#00ff00" fill-opacity="1" stroke="none" transform="matrix(1,0,0,1,71,12)"
font-family="Montserrat" font-size="12" font-weight="700" font-style="normal" 
>
<circle cx="590" cy="287.729" r="3" />
</g>
</g>

<g  clip-path="url(#clip14)" 
>
<g fill="#00ff00" fill-opacity="1" stroke="none" transform="matrix(1,0,0,1,71,12)"
font-family="Montserrat" font-size="12" font-weight="700" font-style="normal" 
>
<circle cx="721" cy="124.823" r="3" />
</g>
</g>

<g  clip-path="url(#clip14)" 
>
<g fill="#00ff00" fill-opacity="1" stroke="none" transform="matrix(1,0,0,1,71,12)"
font-family="Montserrat" font-size="12" font-weight="700" font-style="normal" 
>
<circle cx="852" cy="523.513" r="3" />
</g>
</g>

<clipPath id ="clip15" >
<rect x="0" y="0" height="957" width="918" transform="matrix(1,0,0,1,71,12)" />
</clipPath>
<g  clip-path="url(#clip15)" 
>
<g fill="#00ff00" fill-opacity="1" stroke="none" transform="matrix(1,0,0,1,71,12)"
font-family="Montserrat" font-size="12" font-weight="700" font-style="normal" 
>
</g>
</g>

<clipPath id ="clip16" >
<rect x="0" y="0" height="957" width="918" transform="matrix(1,0,0,1,71,12)" />
</clipPath>
<g  clip-path="url(#clip16)" 
>
<g fill="#00ff00" fill-opacity="1" stroke="none" transform="matrix(1,0,0,1,71,12)"
font-family="Montserrat" font-size="12" font-weight="700" font-style="normal" 
>
</g>
</g>

<clipPath id ="clip17" >
<rect x="0" y="0" height="956" width="917" transform="matrix(1,0,0,1,71,12)" />
</clipPath>
<g  clip-path="url(#clip17)" 
>
<g fill="#00ff00" fill-opacity="1" stroke="none" transform="matrix(1,0,0,1,71,12)"
font-family="Montserrat" font-size="12" font-weight="700" font-style="normal" 
>
</g>
</g>

<clipPath id ="clip18" >
<rect x="0" y="0" height="957" width="918" transform="matrix(1,0,0,1,71,12)" />
</clipPath>
<g  clip-path="url(#clip18)" 
>
<g fill="#00ff00" fill-opacity="1" stroke="none" transform="matrix(1,0,0,1,71,12)"
font-family="Montserrat" font-size="12" font-weight="700" font-style="normal" 
>
</g>
</g>

<clipPath id ="clip19" >
<rect x="0" y="0" height="957" width="918" transform="matrix(1,0,0,1,71,12)" />
</clipPath>
<g  clip-path="url(#clip19)" 
>
<g fill="#00ff00" fill-opacity="1" stroke="none" transform="matrix(1,0,0,1,71,12)"
font-family="Montserrat" font-size="12" font-weight="700" font-style="normal" 
>
</g>
</g>

<clipPath id ="clip20" >
<rect x="0" y="0" height="956" width="917" transform="matrix(1,0,0,1,71,12)" />
</clipPath>
<g  clip-path="url(#clip20)" 
>
<g fill="#00ff00" fill-opacity="1" stroke="none" transform="matrix(1,0,0,1,71,12)"
font-family="Montserrat" font-size="12" font-weight="700" font-style="normal" 
>
</g>
</g>

<clipPath id ="clip21" >
<rect x="0" y="0" height="957" width="918" transform="matrix(1,0,0,1,71,12)" />
</clipPath>
<g  clip-path="url(#clip21)" 
>
<g fill="#00ff00" fill-opacity="1" stroke="none" transform="matrix(1,0,0,1,71,12)"
font-family="Montserrat" font-size="12" font-weight="700" font-style="normal" 
>
</g>
</g>

<clipPath id ="clip22" >
<rect x="0" y="0" height="957" width="918" transform="matrix(1,0,0,1,71,12)" />
</clipPath>
<g  clip-path="url(#clip22)" 
>
<g fill="#00ff00" fill-opacity="1" stroke="none" transform="matrix(1,0,0,1,71,12)"
font-family="Montserrat" font-size="12" font-weight="700" font-style="normal" 
>
</g>
</g>

<clipPath id ="clip23" >
<rect x="0" y="0" height="956" width="917" transform="matrix(1,0,0,1,71,12)" />
</clipPath>
<g  clip-path="url(#clip23)" 
>
<g fill="#00ff00" fill-opacity="1" stroke="none" transform="matrix(1,0,0,1,71,12)"
font-family="Montserrat" font-size="12" font-weight="700" font-style="normal" 
>
</g>
</g>

<clipPath id ="clip24" >
<rect x="0" y="0" height="957" width="918" transform="matrix(1,0,0,1,71,12)" />
</clipPath>
<g  clip-path="url(#clip24)" 
>
<g fill="#00ff00" fill-opacity="1" stroke="none" transform="matrix(1,0,0,1,71,12)"
font-family="Montserrat" font-size="12" font-weight="700" font-style="normal" 
>
</g>
</g>

<clipPath id ="clip25" >
<rect x="0" y="0" height="957" width="918" transform="matrix(1,0,0,1,71,12)" />
</clipPath>
<g  clip-path="url(#clip25)" 
>
<g fill="#00ff00" fill-opacity="1" stroke="none" transform="matrix(1,0,0,1,71,12)"
font-family="Montserrat" font-size="12" font-weight="700" font-style="normal" 
>
</g>
</g>

<clipPath id ="clip26" >
<rect x="0" y="0" height="956" width="917" transform="matrix(1,0,0,1,71,12)" />
</clipPath>
<g  clip-path="url(#clip26)" 
>
<g fill="#00ff00" fill-opacity="1" stroke="none" transform="matrix(1,0,0,1,71,12)"
font-family="Montserrat" font-size="12" font-weight="700" font-style="normal" 
>
</g>
</g>

<clipPath id ="clip27" >
<rect x="0" y="0" height="957" width="918" transform="matrix(1,0,0,1,71,12)" />
</clipPath>
<g  clip-path="url(#clip27)" 
>
<g fill="#00ff00" fill-opacity="1" stroke="none" transform="matrix(1,0,0,1,71,12)"
font-family="Montserrat" font-size="12" font-weight="700" font-style="normal" 
>
</g>
</g>

<g >
<g fill="#00ff00" fill-opacity="1" stroke="none" transform="matrix(1,0,0,1,71,12)"
font-family="Montserrat" font-size="12" font-weight="700" font-style="normal" 
>
</g>
</g>
</g>
</svg>
